<?xml version="1.0" encoding="utf-8"?>
<!-- Generator: Adobe Illustrator 24.3.0, SVG Export Plug-In . SVG Version: 6.00 Build 0)  -->
<svg version="1.1" id="Layer_1" xmlns="http://www.w3.org/2000/svg" xmlns:xlink="http://www.w3.org/1999/xlink" x="0px" y="0px"
	 viewBox="0 0 237 140" style="enable-background:new 0 0 237 140;" xml:space="preserve">
<style type="text/css">
	.st0{fill:url(#XMLID_9_);}
	.st1{clip-path:url(#SVGID_2_);fill:url(#SVGID_3_);}
	.st2{fill:url(#SVGID_4_);}
	.st3{fill:url(#SVGID_5_);}
	.st4{fill:url(#SVGID_6_);}
	.st5{fill:url(#XMLID_10_);}
	.st6{clip-path:url(#SVGID_9_);fill:url(#SVGID_10_);}
	.st7{fill:url(#SVGID_11_);}
	.st8{fill:url(#SVGID_12_);}
	.st9{fill:url(#SVGID_13_);}
	.st10{fill:#6D381D;}
	.st11{fill:#F9F5EF;}
	.st12{fill:#F7E5CB;}
	.st13{fill:#EEDCC3;}
	.st14{fill:#CAA99A;}
	.st15{fill:#C6B1A8;}
	.st16{fill:#EFEAE8;}
	.st17{fill:#D0B8AC;}
	.st18{fill:#B79D90;}
	.st19{fill:#FEEED7;}
	.st20{fill:#88401D;}
	.st21{fill:#62280C;}
	.st22{fill:#F3E2CC;}
	.st23{fill:#B28164;}
	.st24{fill:#F7EAD3;}
	.st25{fill:#FEF9E3;}
	.st26{fill:#813410;}
	.st27{fill:#FFFFFF;}
	.st28{fill:url(#SVGID_14_);}
	.st29{fill:url(#SVGID_15_);}
	.st30{fill:url(#XMLID_11_);}
	.st31{clip-path:url(#SVGID_16_);fill:url(#SVGID_17_);}
	.st32{fill:url(#SVGID_18_);}
	.st33{fill:url(#SVGID_19_);}
	.st34{fill:url(#SVGID_20_);}
	.st35{fill:url(#SVGID_21_);}
	.st36{fill:#BCC2C6;}
	.st37{fill:#FFB600;}
	.st38{fill:url(#XMLID_12_);}
	.st39{clip-path:url(#SVGID_23_);fill:url(#SVGID_24_);}
	.st40{fill:url(#SVGID_25_);}
	.st41{fill:url(#SVGID_26_);}
	.st42{fill:url(#SVGID_27_);}
</style>
<g>
	<g>
		<g>
			
				<linearGradient id="XMLID_9_" gradientUnits="userSpaceOnUse" x1="105.5786" y1="131.6982" x2="128.0669" y2="4.1608" gradientTransform="matrix(1 0 0 -1 0 140)">
				<stop  offset="0" style="stop-color:#165FD3"/>
				<stop  offset="0.6343" style="stop-color:#4496EF"/>
				<stop  offset="1" style="stop-color:#5BB1FC"/>
			</linearGradient>
			<path id="XMLID_1_" class="st0" d="M69.8,16.3c0,0-26.4,15.4-22.1,54.2c2.7,20,19.8,55.1,56,63.4c18.8,2.9,53.7,3.9,77.5-28.3
				c8-13.5,16.6-50.7-36.5-57.8c-20.9-2.9-42.5-1.7-56.5-13.7C80.7,25.2,82.4,12.8,69.8,16.3z"/>
		</g>
		<g>
			<defs>
				<path id="SVGID_1_" d="M69.8,16.3c0,0-26.4,15.4-22.1,54.2c2.7,20,19.8,55.1,56,63.4c18.8,2.9,53.7,3.9,77.5-28.3
					c8-13.5,16.6-50.7-36.5-57.8c-20.9-2.9-42.5-1.7-56.5-13.7C80.7,25.2,82.4,12.8,69.8,16.3z"/>
			</defs>
			<clipPath id="SVGID_2_">
				<use xlink:href="#SVGID_1_"  style="overflow:visible;"/>
			</clipPath>
			
				<linearGradient id="SVGID_3_" gradientUnits="userSpaceOnUse" x1="73.8178" y1="127.9455" x2="169.5984" y2="13.7987" gradientTransform="matrix(1 0 0 -1 0 140)">
				<stop  offset="0" style="stop-color:#054AC9"/>
				<stop  offset="0.2918" style="stop-color:#2C76D9"/>
				<stop  offset="0.7741" style="stop-color:#67BBF2"/>
				<stop  offset="1" style="stop-color:#7FD6FC"/>
			</linearGradient>
			<path class="st1" d="M75.4,13c0,0-1,37.8,28.3,43.6s65.9,43.1,26.7,80.4s46.1-17.5,46.1-17.5l13.9-22.4l0.3-12l-3.5-18.8
				L179,55.1c0,0-19.1-6.3-21.1-7.9c-1.9-1.6-20.4-7.2-20.4-7.2s-21.9-4.2-22.8-4.2s-21-13-21-13L75.4,13z"/>
		</g>
	</g>
	<g>
		
			<linearGradient id="SVGID_4_" gradientUnits="userSpaceOnUse" x1="90.9674" y1="113.3285" x2="106.0678" y2="98.228" gradientTransform="matrix(0.9644 -0.2645 -0.2645 -0.9644 27.9675 165.1811)">
			<stop  offset="0" style="stop-color:#FED634"/>
			<stop  offset="0.1999" style="stop-color:#FCD234"/>
			<stop  offset="0.4125" style="stop-color:#F5C534"/>
			<stop  offset="0.631" style="stop-color:#EAB034"/>
			<stop  offset="0.8522" style="stop-color:#DA9233"/>
			<stop  offset="1" style="stop-color:#CD7A33"/>
		</linearGradient>
		<path class="st2" d="M103.9,29.8c-0.5-0.1-1-0.1-1.4,0c-0.3,0-0.6,0-0.9,0.1c-0.7,0.1-1.4,0.2-2,0.3c-0.5,0.1-0.9,0.1-1.4,0.2
			c-0.2,0-0.4,0-0.6,0c-0.3,0-0.6-0.1-0.9-0.3c-0.3-0.2-0.5-0.5-0.7-0.7l0,0c-0.3-0.4-0.7-0.8-1-1.2c-0.6-0.7-1.3-1.5-2-2.1
			c-0.3-0.3-0.6-0.6-1.1-0.7c-0.1,0-0.1,0-0.2,0c-0.2,0.1-0.3,0.3-0.4,0.5c-0.2,0.4-0.3,0.8-0.4,1.3c-0.2,0.9-0.4,1.8-0.6,2.7
			c-0.1,0.6-0.2,1.2-0.4,1.8c-0.1,0.4-0.3,0.6-0.6,0.8c-0.3,0.1-0.5,0.3-0.8,0.4c-0.9,0.4-1.8,0.8-2.8,1.2c-0.6,0.3-1.2,0.5-1.7,0.9
			c-0.2,0.2-0.5,0.3-0.6,0.6c-0.1,0,0,0.1,0,0.1c0,0.1,0,0.2,0.1,0.3c0.1,0.2,0.3,0.3,0.4,0.5c0.2,0.2,0.5,0.4,0.8,0.6
			c0.5,0.3,1,0.6,1.5,0.9c0.1,0.1,0.3,0.2,0.4,0.2l0,0l0,0c0.8,0.4,1.6,0.8,2.3,1.3l0.1,0.1c0.1,0.1,0.3,0.2,0.3,0.4
			c0.1,0.1,0.1,0.2,0.1,0.4c0.1,0.4,0.1,0.7,0.2,1.1c0,0.3,0,0.6,0.1,1l0,0c0,0.2,0,0.4,0,0.5v0.1c0,0.6,0.1,1.1,0.2,1.7
			c0,0.1,0,0.1,0.1,0.2l0,0l0,0v0.1c0,0.1,0,0.2,0,0.3c0,0.2,0.1,0.4,0.1,0.6c0,0.1,0,0.2,0.1,0.3c0,0.1,0,0.1,0.1,0.2l0,0v0.1
			c0.2,0.4,0.4,0.5,0.9,0.3c0.2-0.1,0.4-0.2,0.6-0.3s0.3-0.2,0.5-0.3l0,0l0,0c0.1-0.1,0.2-0.1,0.3-0.2c0.2-0.1,0.3-0.3,0.5-0.4
			c0.3-0.2,0.5-0.5,0.8-0.7s0.5-0.5,0.8-0.7l0.1-0.1c0.4-0.4,0.9-0.8,1.4-1.1c0.2-0.1,0.4-0.2,0.6-0.2s0.3,0,0.4,0l0,0h0.1
			c0.1,0,0.3,0,0.4,0.1c0.4,0.1,0.7,0.2,1.1,0.2c0.3,0.1,0.7,0.2,1,0.2c0.4,0.1,0.7,0.2,1.1,0.2c0.3,0.1,0.5,0.1,0.8,0.1
			c0.1,0,0.2,0,0.2,0c0.2,0.1,0.4,0.1,0.6,0.1c0.1,0,0.3,0,0.4,0c0.2,0,0.4,0,0.5-0.1s0.2-0.3,0.2-0.5c0-0.5-0.2-0.9-0.3-1.3
			c-0.3-0.8-0.7-1.6-1.1-2.3c-0.2-0.3-0.3-0.6-0.5-1s-0.3-0.7-0.5-1.1c0-0.1,0-0.1-0.1-0.2c0,0,0,0,0-0.1v-0.1
			c-0.1-0.3,0-0.5,0.1-0.8l0,0c0.2-0.6,0.5-1.1,0.9-1.6c0.5-0.9,1-1.7,1.5-2.6c0,0,0.1-0.1,0-0.1c0.3-0.5,0.5-1,0.6-1.6
			c0-0.1,0-0.1-0.1-0.2C104.2,29.9,104.1,29.9,103.9,29.8z M95.4,35.9L95.4,35.9L95.4,35.9L95.4,35.9z M95,36.3L95,36.3L95,36.3z
			 M97.8,33.8C97.9,33.8,97.9,33.8,97.8,33.8C97.9,33.8,97.9,33.8,97.8,33.8z M92.2,44.3C92.2,44.4,92.2,44.4,92.2,44.3
			C92.2,44.4,92.2,44.4,92.2,44.3z M97.8,30.8L97.8,30.8L97.8,30.8L97.8,30.8z M87.8,38.1L87.8,38.1L87.8,38.1L87.8,38.1z"/>
	</g>
	<g>
		
			<linearGradient id="SVGID_5_" gradientUnits="userSpaceOnUse" x1="159.3232" y1="73.1671" x2="169.654" y2="62.8363" gradientTransform="matrix(0.9644 -0.2645 -0.2645 -0.9644 27.9675 165.1811)">
			<stop  offset="0" style="stop-color:#FED634"/>
			<stop  offset="0.1999" style="stop-color:#FCD234"/>
			<stop  offset="0.4125" style="stop-color:#F5C534"/>
			<stop  offset="0.631" style="stop-color:#EAB034"/>
			<stop  offset="0.8522" style="stop-color:#DA9233"/>
			<stop  offset="1" style="stop-color:#CD7A33"/>
		</linearGradient>
		<path class="st3" d="M174.7,51.1c-0.3-0.1-0.7-0.1-1,0c-0.2,0-0.4,0-0.6,0c-0.5,0.1-0.9,0.1-1.4,0.2c-0.3,0-0.6,0.1-0.9,0.1
			c-0.1,0-0.3,0-0.4,0c-0.2,0-0.4-0.1-0.6-0.2c-0.2-0.2-0.3-0.3-0.5-0.5l0,0c-0.2-0.3-0.5-0.5-0.7-0.8c-0.4-0.5-0.9-1-1.3-1.5
			c-0.2-0.2-0.4-0.4-0.7-0.5h-0.1c-0.1,0.1-0.2,0.2-0.3,0.4c-0.1,0.3-0.2,0.6-0.3,0.9c-0.2,0.6-0.3,1.2-0.4,1.9
			c-0.1,0.4-0.2,0.8-0.3,1.3c-0.1,0.2-0.2,0.4-0.4,0.6c-0.2,0.1-0.4,0.2-0.6,0.3c-0.6,0.3-1.3,0.5-1.9,0.8c-0.4,0.2-0.8,0.4-1.2,0.6
			c-0.2,0.1-0.3,0.2-0.4,0.4c0,0,0,0,0,0.1s0,0.1,0.1,0.2c0.1,0.1,0.2,0.2,0.3,0.3c0.2,0.1,0.4,0.3,0.5,0.4c0.3,0.2,0.7,0.4,1,0.6
			c0.1,0.1,0.2,0.1,0.3,0.1l0,0l0,0c0.5,0.3,1.1,0.6,1.6,0.9c0,0,0.1,0,0.1,0.1c0.1,0.1,0.2,0.2,0.2,0.3s0.1,0.2,0.1,0.2
			c0.1,0.2,0.1,0.5,0.1,0.7s0,0.4,0.1,0.7l0,0c0,0.1,0,0.2,0,0.4v0.1c0,0.4,0.1,0.8,0.1,1.2v0.1l0,0l0,0v0.1c0,0.1,0,0.1,0,0.2
			c0,0.1,0.1,0.3,0.1,0.4c0,0.1,0,0.2,0.1,0.2v0.1l0,0v0.1c0.1,0.3,0.3,0.4,0.6,0.2c0.1-0.1,0.3-0.2,0.4-0.2
			c0.1-0.1,0.2-0.1,0.3-0.2l0,0l0,0c0.1,0,0.1-0.1,0.2-0.1c0.1-0.1,0.2-0.2,0.3-0.3c0.2-0.2,0.4-0.3,0.6-0.5
			c0.2-0.2,0.3-0.3,0.5-0.5l0.1-0.1c0.3-0.3,0.6-0.6,0.9-0.8c0.1-0.1,0.3-0.1,0.4-0.1c0.1,0,0.2,0,0.3,0l0,0c0,0,0,0,0.1,0
			s0.2,0,0.3,0.1c0.3,0,0.5,0.1,0.8,0.2c0.2,0,0.4,0.1,0.7,0.2c0.3,0.1,0.5,0.1,0.8,0.2c0.2,0,0.4,0.1,0.5,0.1s0.1,0,0.2,0
			c0.1,0,0.3,0.1,0.4,0c0.1,0,0.2,0,0.3,0s0.2,0,0.3-0.1s0.1-0.2,0.1-0.3c0-0.3-0.1-0.6-0.2-0.9c-0.2-0.5-0.5-1.1-0.7-1.6
			c-0.1-0.2-0.2-0.4-0.3-0.7c-0.1-0.2-0.2-0.5-0.3-0.7v-0.1l0,0c0,0,0,0,0-0.1c-0.1-0.2,0-0.4,0-0.5l0,0c0.2-0.4,0.4-0.7,0.6-1.1
			c0.3-0.6,0.7-1.2,1-1.8v-0.1c0.2-0.3,0.4-0.7,0.4-1.1v-0.1C175,51.1,174.9,51.1,174.7,51.1z M168.9,55.2L168.9,55.2L168.9,55.2
			L168.9,55.2z M168.6,55.5L168.6,55.5L168.6,55.5z M170.6,53.8C170.6,53.7,170.6,53.7,170.6,53.8C170.6,53.7,170.6,53.7,170.6,53.8
			z M166.7,61L166.7,61L166.7,61z M170.6,51.7L170.6,51.7L170.6,51.7L170.6,51.7z M163.7,56.7L163.7,56.7L163.7,56.7L163.7,56.7z"/>
	</g>
	<g>
		
			<linearGradient id="SVGID_6_" gradientUnits="userSpaceOnUse" x1="169.1053" y1="57.9065" x2="178.0027" y2="49.0092" gradientTransform="matrix(0.9644 -0.2645 -0.2645 -0.9644 27.9675 165.1811)">
			<stop  offset="0" style="stop-color:#FED634"/>
			<stop  offset="0.1999" style="stop-color:#FCD234"/>
			<stop  offset="0.4125" style="stop-color:#F5C534"/>
			<stop  offset="0.631" style="stop-color:#EAB034"/>
			<stop  offset="0.8522" style="stop-color:#DA9233"/>
			<stop  offset="1" style="stop-color:#CD7A33"/>
		</linearGradient>
		<path class="st4" d="M186.3,63.7c-0.3-0.1-0.6-0.1-0.9,0c-0.2,0-0.3,0-0.5,0c-0.4,0-0.8,0.1-1.2,0.1c-0.3,0-0.5,0.1-0.8,0.1
			c-0.1,0-0.2,0-0.4,0s-0.4-0.1-0.5-0.2c-0.1-0.1-0.3-0.3-0.4-0.4l0,0c-0.2-0.2-0.4-0.5-0.6-0.7c-0.4-0.4-0.7-0.9-1.2-1.3
			c-0.2-0.2-0.4-0.4-0.6-0.4h-0.1c-0.1,0.1-0.2,0.2-0.2,0.3c-0.1,0.2-0.2,0.5-0.2,0.7c-0.1,0.5-0.2,1.1-0.3,1.6
			c-0.1,0.4-0.1,0.7-0.2,1.1c-0.1,0.2-0.2,0.4-0.4,0.5s-0.3,0.2-0.5,0.2c-0.5,0.2-1.1,0.5-1.6,0.7c-0.3,0.2-0.7,0.3-1,0.5
			c-0.1,0.1-0.3,0.2-0.3,0.3c0,0,0,0,0,0.1s0,0.1,0,0.2c0.1,0.1,0.2,0.2,0.3,0.3s0.3,0.2,0.5,0.3c0.3,0.2,0.6,0.3,0.9,0.5
			c0.1,0,0.2,0.1,0.2,0.1l0,0l0,0c0.5,0.3,0.9,0.5,1.3,0.8c0,0,0,0,0.1,0.1s0.2,0.1,0.2,0.2s0.1,0.1,0.1,0.2c0,0.2,0.1,0.4,0.1,0.6
			s0,0.4,0.1,0.6l0,0c0,0.1,0,0.2,0,0.3c0,0,0,0,0,0.1c0,0.3,0.1,0.7,0.1,1v0.1l0,0l0,0c0,0,0,0,0,0.1s0,0.1,0,0.2s0,0.2,0.1,0.4
			c0,0.1,0,0.1,0.1,0.2v0.1l0,0v0.1c0.1,0.3,0.2,0.3,0.5,0.2c0.1-0.1,0.2-0.1,0.3-0.2c0.1,0,0.2-0.1,0.3-0.2l0,0l0,0
			c0.1,0,0.1-0.1,0.2-0.1c0.1-0.1,0.2-0.2,0.3-0.3c0.2-0.1,0.3-0.3,0.5-0.4s0.3-0.3,0.5-0.4l0.1-0.1c0.3-0.2,0.5-0.5,0.8-0.7
			c0.1-0.1,0.2-0.1,0.4-0.1c0.1,0,0.2,0,0.3,0l0,0c0,0,0,0,0.1,0s0.2,0,0.2,0c0.2,0,0.4,0.1,0.7,0.1c0.2,0,0.4,0.1,0.6,0.1
			c0.2,0,0.4,0.1,0.7,0.1c0.2,0,0.3,0.1,0.5,0.1h0.1c0.1,0,0.2,0,0.3,0s0.2,0,0.2,0c0.1,0,0.2,0,0.3-0.1s0.1-0.2,0.1-0.3
			c0-0.3-0.1-0.5-0.2-0.8c-0.2-0.5-0.4-0.9-0.6-1.4c-0.1-0.2-0.2-0.4-0.3-0.6s-0.2-0.4-0.3-0.6v-0.1l0,0c0,0,0,0,0-0.1
			c-0.1-0.2,0-0.3,0-0.5l0,0c0.1-0.3,0.3-0.6,0.5-0.9c0.3-0.5,0.6-1,0.9-1.5c0,0,0,0,0-0.1c0.2-0.3,0.3-0.6,0.3-0.9v-0.1
			C186.5,63.7,186.4,63.7,186.3,63.7z M181.3,67.2L181.3,67.2L181.3,67.2L181.3,67.2z M181,67.5L181,67.5L181,67.5z M182.7,66
			L182.7,66L182.7,66z M179.4,72.2L179.4,72.2L179.4,72.2z M182.7,64.2L182.7,64.2L182.7,64.2L182.7,64.2z M176.8,68.5L176.8,68.5
			L176.8,68.5L176.8,68.5z"/>
	</g>
</g>
<g>
	<g>
		
			<linearGradient id="XMLID_10_" gradientUnits="userSpaceOnUse" x1="217.5699" y1="40.5256" x2="240.0582" y2="-87.0117" gradientTransform="matrix(1 0 0 -1 -277.5 -96)">
			<stop  offset="0" style="stop-color:#165FD3"/>
			<stop  offset="0.6343" style="stop-color:#4496EF"/>
			<stop  offset="1" style="stop-color:#5BB1FC"/>
		</linearGradient>
		<path id="XMLID_3_" class="st5" d="M-95.7-128.5c0,0-26.4,15.4-22.1,54.2c2.7,20,19.8,55.1,56,63.4C-43-8-8.1-7,15.7-39.2
			c8-13.5,16.6-50.7-36.5-57.8c-20.9-2.9-42.5-1.7-56.5-13.7C-84.8-119.6-83.1-132-95.7-128.5z"/>
	</g>
	<g>
		<defs>
			<path id="SVGID_7_" d="M-95.7-128.5c0,0-26.4,15.4-22.1,54.2c2.7,20,19.8,55.1,56,63.4C-43-8-8.1-7,15.7-39.2
				c8-13.5,16.6-50.7-36.5-57.8c-20.9-2.9-42.5-1.7-56.5-13.7C-84.8-119.6-83.1-132-95.7-128.5z"/>
		</defs>
		<clipPath id="SVGID_9_">
			<use xlink:href="#SVGID_7_"  style="overflow:visible;"/>
		</clipPath>
		
			<linearGradient id="SVGID_10_" gradientUnits="userSpaceOnUse" x1="185.8091" y1="36.773" x2="281.5898" y2="-77.3738" gradientTransform="matrix(1 0 0 -1 -277.5 -96)">
			<stop  offset="0" style="stop-color:#054AC9"/>
			<stop  offset="0.2918" style="stop-color:#2C76D9"/>
			<stop  offset="0.7741" style="stop-color:#67BBF2"/>
			<stop  offset="1" style="stop-color:#7FD6FC"/>
		</linearGradient>
		<path class="st6" d="M-90.1-131.8c0,0-1,37.8,28.3,43.6c29.3,5.8,65.9,43.1,26.7,80.4S11-25.3,11-25.3l13.9-22.4l0.3-12l-3.5-18.8
			l-8.2-11.2c0,0-19.1-6.3-21.1-7.9c-1.9-1.6-20.4-7.2-20.4-7.2s-21.9-4.2-22.8-4.2s-21-13-21-13L-90.1-131.8z"/>
	</g>
</g>
<g>
	
		<linearGradient id="SVGID_11_" gradientUnits="userSpaceOnUse" x1="174.8544" y1="-4.2168" x2="189.9548" y2="-19.3173" gradientTransform="matrix(0.9644 -0.2645 -0.2645 -0.9644 -249.5325 -70.8189)">
		<stop  offset="0" style="stop-color:#FED634"/>
		<stop  offset="0.1999" style="stop-color:#FCD234"/>
		<stop  offset="0.4125" style="stop-color:#F5C534"/>
		<stop  offset="0.631" style="stop-color:#EAB034"/>
		<stop  offset="0.8522" style="stop-color:#DA9233"/>
		<stop  offset="1" style="stop-color:#CD7A33"/>
	</linearGradient>
	<path class="st7" d="M-61.6-115c-0.5-0.1-1-0.1-1.4,0c-0.3,0-0.6,0-0.9,0.1c-0.7,0.1-1.4,0.2-2,0.3c-0.5,0.1-0.9,0.1-1.4,0.2
		c-0.2,0-0.4,0-0.6,0c-0.3,0-0.6-0.1-0.9-0.3c-0.3-0.2-0.5-0.5-0.7-0.7l0,0c-0.3-0.4-0.7-0.8-1-1.2c-0.6-0.7-1.3-1.5-2-2.1
		c-0.3-0.3-0.6-0.6-1.1-0.7c-0.1,0-0.1,0-0.2,0c-0.2,0.1-0.3,0.3-0.4,0.5c-0.2,0.4-0.3,0.8-0.4,1.3c-0.2,0.9-0.4,1.8-0.6,2.7
		c-0.1,0.6-0.2,1.2-0.4,1.8c-0.1,0.4-0.3,0.6-0.6,0.8c-0.3,0.1-0.5,0.3-0.8,0.4c-0.9,0.4-1.8,0.8-2.8,1.2c-0.6,0.3-1.2,0.5-1.7,0.9
		c-0.2,0.2-0.5,0.3-0.6,0.6c-0.1,0,0,0.1,0,0.1c0,0.1,0,0.2,0.1,0.3c0.1,0.2,0.3,0.3,0.4,0.5c0.2,0.2,0.5,0.4,0.8,0.6
		c0.5,0.3,1,0.6,1.5,0.9c0.1,0.1,0.3,0.2,0.4,0.2l0,0l0,0c0.8,0.4,1.6,0.8,2.3,1.3l0.1,0.1c0.1,0.1,0.3,0.2,0.3,0.4
		c0.1,0.1,0.1,0.2,0.1,0.4c0.1,0.4,0.1,0.7,0.2,1.1c0,0.3,0,0.6,0.1,1l0,0c0,0.2,0,0.4,0,0.5v0.1c0,0.6,0.1,1.1,0.2,1.7
		c0,0.1,0,0.1,0.1,0.2l0,0l0,0v0.1c0,0.1,0,0.2,0,0.3c0,0.2,0.1,0.4,0.1,0.6c0,0.1,0,0.2,0.1,0.3c0,0.1,0,0.1,0.1,0.2l0,0v0.1
		c0.2,0.4,0.4,0.5,0.9,0.3c0.2-0.1,0.4-0.2,0.6-0.3s0.3-0.2,0.5-0.3l0,0l0,0c0.1-0.1,0.2-0.1,0.3-0.2c0.2-0.1,0.3-0.3,0.5-0.4
		c0.3-0.2,0.5-0.5,0.8-0.7c0.3-0.2,0.5-0.5,0.8-0.7l0.1-0.1c0.4-0.4,0.9-0.8,1.4-1.1c0.2-0.1,0.4-0.2,0.6-0.2s0.3,0,0.4,0l0,0h0.1
		c0.1,0,0.3,0,0.4,0.1c0.4,0.1,0.7,0.2,1.1,0.2c0.3,0.1,0.7,0.2,1,0.2c0.4,0.1,0.7,0.2,1.1,0.2c0.3,0.1,0.5,0.1,0.8,0.1
		c0.1,0,0.2,0,0.2,0c0.2,0.1,0.4,0.1,0.6,0.1c0.1,0,0.3,0,0.4,0c0.2,0,0.4,0,0.5-0.1s0.2-0.3,0.2-0.5c0-0.5-0.2-0.9-0.3-1.3
		c-0.3-0.8-0.7-1.6-1.1-2.3c-0.2-0.3-0.3-0.6-0.5-1s-0.3-0.7-0.5-1.1c0-0.1,0-0.1-0.1-0.2c0,0,0,0,0-0.1v-0.1
		c-0.1-0.3,0-0.5,0.1-0.8l0,0c0.2-0.6,0.5-1.1,0.9-1.6c0.5-0.9,1-1.7,1.5-2.6c0,0,0.1-0.1,0-0.1c0.3-0.5,0.5-1,0.6-1.6
		c0-0.1,0-0.1-0.1-0.2C-61.3-114.9-61.4-114.9-61.6-115z M-70.1-108.9L-70.1-108.9L-70.1-108.9L-70.1-108.9z M-70.5-108.5
		L-70.5-108.5L-70.5-108.5z M-67.7-111C-67.6-111-67.6-111-67.7-111C-67.6-111-67.6-111-67.7-111z M-73.3-100.5
		C-73.3-100.4-73.3-100.4-73.3-100.5C-73.3-100.4-73.3-100.4-73.3-100.5z M-67.7-114L-67.7-114L-67.7-114L-67.7-114z M-77.7-106.7
		L-77.7-106.7L-77.7-106.7L-77.7-106.7z"/>
</g>
<g>
	
		<linearGradient id="SVGID_12_" gradientUnits="userSpaceOnUse" x1="243.2102" y1="-44.3782" x2="253.541" y2="-54.709" gradientTransform="matrix(0.9644 -0.2645 -0.2645 -0.9644 -249.5325 -70.8189)">
		<stop  offset="0" style="stop-color:#FED634"/>
		<stop  offset="0.1999" style="stop-color:#FCD234"/>
		<stop  offset="0.4125" style="stop-color:#F5C534"/>
		<stop  offset="0.631" style="stop-color:#EAB034"/>
		<stop  offset="0.8522" style="stop-color:#DA9233"/>
		<stop  offset="1" style="stop-color:#CD7A33"/>
	</linearGradient>
	<path class="st8" d="M9.2-93.7c-0.3-0.1-0.7-0.1-1,0c-0.2,0-0.4,0-0.6,0c-0.5,0.1-0.9,0.1-1.4,0.2c-0.3,0-0.6,0.1-0.9,0.1
		c-0.1,0-0.3,0-0.4,0c-0.2,0-0.4-0.1-0.6-0.2c-0.2-0.2-0.3-0.3-0.5-0.5l0,0c-0.2-0.3-0.5-0.5-0.7-0.8c-0.4-0.5-0.9-1-1.3-1.5
		c-0.2-0.2-0.4-0.4-0.7-0.5H1c-0.1,0.1-0.2,0.2-0.3,0.4c-0.1,0.3-0.2,0.6-0.3,0.9C0.2-95,0.1-94.4,0-93.7c-0.1,0.4-0.2,0.8-0.3,1.3
		c-0.1,0.2-0.2,0.4-0.4,0.6c-0.2,0.1-0.4,0.2-0.6,0.3c-0.6,0.3-1.3,0.5-1.9,0.8c-0.4,0.2-0.8,0.4-1.2,0.6c-0.2,0.1-0.3,0.2-0.4,0.4
		c0,0,0,0,0,0.1s0,0.1,0.1,0.2c0.1,0.1,0.2,0.2,0.3,0.3c0.2,0.1,0.4,0.3,0.5,0.4c0.3,0.2,0.7,0.4,1,0.6C-2.8-88-2.7-88-2.6-88l0,0
		l0,0c0.5,0.3,1.1,0.6,1.6,0.9c0,0,0.1,0,0.1,0.1c0.1,0.1,0.2,0.2,0.2,0.3s0.1,0.2,0.1,0.2c0.1,0.2,0.1,0.5,0.1,0.7
		c0,0.2,0,0.4,0.1,0.7l0,0c0,0.1,0,0.2,0,0.4v0.1c0,0.4,0.1,0.8,0.1,1.2v0.1l0,0l0,0v0.1c0,0.1,0,0.1,0,0.2s0.1,0.3,0.1,0.4
		s0,0.2,0.1,0.2v0.1l0,0v0.1C0-81.9,0.2-81.8,0.5-82c0.1-0.1,0.3-0.2,0.4-0.2c0.1-0.1,0.2-0.1,0.3-0.2l0,0l0,0
		c0.1,0,0.1-0.1,0.2-0.1c0.1-0.1,0.2-0.2,0.3-0.3c0.2-0.2,0.4-0.3,0.6-0.5c0.2-0.2,0.3-0.3,0.5-0.5l0.1-0.1c0.3-0.3,0.6-0.6,0.9-0.8
		c0.1-0.1,0.3-0.1,0.4-0.1c0.1,0,0.2,0,0.3,0l0,0c0,0,0,0,0.1,0s0.2,0,0.3,0.1c0.3,0,0.5,0.1,0.8,0.2c0.2,0,0.4,0.1,0.7,0.2
		s0.5,0.1,0.8,0.2c0.2,0,0.4,0.1,0.5,0.1s0.1,0,0.2,0c0.1,0,0.3,0.1,0.4,0c0.1,0,0.2,0,0.3,0s0.2,0,0.3-0.1S9-84.3,9-84.4
		c0-0.3-0.1-0.6-0.2-0.9c-0.2-0.5-0.5-1.1-0.7-1.6c-0.1-0.2-0.2-0.4-0.3-0.7c-0.1-0.2-0.2-0.5-0.3-0.7v-0.1l0,0c0,0,0,0,0-0.1
		c-0.1-0.2,0-0.4,0-0.5l0,0c0.2-0.4,0.4-0.7,0.6-1.1c0.3-0.6,0.7-1.2,1-1.8V-92c0.2-0.3,0.4-0.7,0.4-1.1v-0.1
		C9.5-93.7,9.4-93.7,9.2-93.7z M3.4-89.6L3.4-89.6L3.4-89.6L3.4-89.6z M3.1-89.3L3.1-89.3L3.1-89.3z M5.1-91
		C5.1-91.1,5.1-91.1,5.1-91C5.1-91.1,5.1-91.1,5.1-91z M1.2-83.8L1.2-83.8L1.2-83.8z M5.1-93.1L5.1-93.1L5.1-93.1L5.1-93.1z
		 M-1.8-88.1L-1.8-88.1L-1.8-88.1L-1.8-88.1z"/>
</g>
<g>
	
		<linearGradient id="SVGID_13_" gradientUnits="userSpaceOnUse" x1="255.7841" y1="-63.1313" x2="264.6815" y2="-72.0286" gradientTransform="matrix(0.9644 -0.2645 -0.2645 -0.9644 -249.5325 -70.8189)">
		<stop  offset="0" style="stop-color:#FED634"/>
		<stop  offset="0.1999" style="stop-color:#FCD234"/>
		<stop  offset="0.4125" style="stop-color:#F5C534"/>
		<stop  offset="0.631" style="stop-color:#EAB034"/>
		<stop  offset="0.8522" style="stop-color:#DA9233"/>
		<stop  offset="1" style="stop-color:#CD7A33"/>
	</linearGradient>
	<path class="st9" d="M24.4-78.5c-0.3-0.1-0.6-0.1-0.9,0c-0.2,0-0.3,0-0.5,0c-0.4,0-0.8,0.1-1.2,0.1c-0.3,0-0.5,0.1-0.8,0.1
		c-0.1,0-0.2,0-0.4,0s-0.4-0.1-0.5-0.2c-0.1-0.1-0.3-0.3-0.4-0.4l0,0c-0.2-0.2-0.4-0.5-0.6-0.7c-0.4-0.4-0.7-0.9-1.2-1.3
		c-0.2-0.2-0.4-0.4-0.6-0.4h-0.1C17.1-81.2,17-81.1,17-81c-0.1,0.2-0.2,0.5-0.2,0.7c-0.1,0.5-0.2,1.1-0.3,1.6
		c-0.1,0.4-0.1,0.7-0.2,1.1c-0.1,0.2-0.2,0.4-0.4,0.5c-0.2,0.1-0.3,0.2-0.5,0.2c-0.5,0.2-1.1,0.5-1.6,0.7c-0.3,0.2-0.7,0.3-1,0.5
		c-0.1,0.1-0.3,0.2-0.3,0.3c0,0,0,0,0,0.1s0,0.1,0,0.2c0.1,0.1,0.2,0.2,0.3,0.3s0.3,0.2,0.5,0.3c0.3,0.2,0.6,0.3,0.9,0.5
		c0.1,0,0.2,0.1,0.2,0.1l0,0l0,0c0.5,0.3,0.9,0.5,1.3,0.8c0,0,0,0,0.1,0.1s0.2,0.1,0.2,0.2s0.1,0.1,0.1,0.2c0,0.2,0.1,0.4,0.1,0.6
		s0,0.4,0.1,0.6l0,0c0,0.1,0,0.2,0,0.3c0,0,0,0,0,0.1c0,0.3,0.1,0.7,0.1,1v0.1l0,0l0,0c0,0,0,0,0,0.1s0,0.1,0,0.2s0,0.2,0.1,0.4
		c0,0.1,0,0.1,0.1,0.2v0.1l0,0v0.1c0.1,0.3,0.2,0.3,0.5,0.2c0.1-0.1,0.2-0.1,0.3-0.2c0.1,0,0.2-0.1,0.3-0.2l0,0l0,0
		c0.1,0,0.1-0.1,0.2-0.1c0.1-0.1,0.2-0.2,0.3-0.3c0.2-0.1,0.3-0.3,0.5-0.4s0.3-0.3,0.5-0.4l0.1-0.1c0.3-0.2,0.5-0.5,0.8-0.7
		c0.1-0.1,0.2-0.1,0.4-0.1c0.1,0,0.2,0,0.3,0l0,0c0,0,0,0,0.1,0s0.2,0,0.2,0c0.2,0,0.4,0.1,0.7,0.1c0.2,0,0.4,0.1,0.6,0.1
		c0.2,0,0.4,0.1,0.7,0.1c0.2,0,0.3,0.1,0.5,0.1h0.1c0.1,0,0.2,0,0.3,0s0.2,0,0.2,0c0.1,0,0.2,0,0.3-0.1s0.1-0.2,0.1-0.3
		c0-0.3-0.1-0.5-0.2-0.8c-0.2-0.5-0.4-0.9-0.6-1.4c-0.1-0.2-0.2-0.4-0.3-0.6s-0.2-0.4-0.3-0.6v-0.1l0,0c0,0,0,0,0-0.1
		c-0.1-0.2,0-0.3,0-0.5l0,0c0.1-0.3,0.3-0.6,0.5-0.9c0.3-0.5,0.6-1,0.9-1.5c0,0,0,0,0-0.1c0.2-0.3,0.3-0.6,0.3-0.9v-0.1
		C24.6-78.5,24.5-78.5,24.4-78.5z M19.4-75L19.4-75L19.4-75L19.4-75z M19.1-74.7L19.1-74.7L19.1-74.7z M20.8-76.2L20.8-76.2
		L20.8-76.2z M17.5-70L17.5-70L17.5-70z M20.8-78L20.8-78L20.8-78L20.8-78z M14.9-73.7L14.9-73.7L14.9-73.7L14.9-73.7z"/>
</g>
<path class="st10" d="M-128.5-136.7c-1.7,0-3.3,0-5,0c-0.2,0-0.5-0.1-0.7-0.1c-2-0.4-4.1-0.6-6.1-1.1c-14.4-3.9-25-16.3-27.4-31.3
	c-0.2-1.6-0.4-3.1-0.6-4.7c0-1.2,0-2.4,0-3.6c0-0.2,0.1-0.4,0.1-0.7c0.4-5.8,1.8-11.4,4.6-16.5c5.5-10.1,13.8-16.8,25.1-19.4
	c1.5-0.3,3.1-0.5,4.6-0.8c1.5,0,3,0,4.4,0c0.2,0,0.5,0.1,0.7,0.1c2,0.3,4.1,0.5,6.1,0.9c15.2,3.7,25.8,16.9,28,31.4
	c0.2,1.5,0.4,3,0.6,4.6c0,1.3,0,2.7,0,4c-0.1,0.5-0.1,1-0.2,1.5c-0.8,8.8-4,16.6-9.8,23.2c-5.6,6.3-12.4,10.3-20.7,11.8
	C-125.9-137-127.2-136.9-128.5-136.7z M-97.3-177.5c-0.5-7.5-2.8-14.3-7.4-20.5c-2.5,2.7-5.4,4.3-8.8,5.6c1.2,4.9,2,9.8,2,14.8
	C-106.7-177.5-102.1-177.5-97.3-177.5z M-111.4-173.9c-0.3,2.3-0.5,4.5-0.8,6.7c-0.3,2.2-0.8,4.4-1.2,6.6c-0.2,0.7,0,1,0.6,1.3
	c2.8,1.3,5.5,2.8,7.9,4.8c0.2,0.2,0.4,0.3,0.6,0.4c4.3-6,6.5-12.6,7-19.9C-102.1-173.9-106.8-173.9-111.4-173.9z M-151.5-177.5
	c0-0.2,0.1-0.2,0.1-0.3c0.2-4.8,0.8-9.5,2-14.1c0.1-0.5-0.1-0.7-0.5-0.9c-1.3-0.5-2.6-1-3.9-1.7c-1.4-0.7-2.8-1.6-4.3-2.5
	c-4.1,5.8-6.1,12.4-6.7,19.5C-160.3-177.5-155.9-177.5-151.5-177.5z M-158.2-154.7c2.7-2,5.7-3.4,8.7-4.7c0.5-0.2,0.3-0.5,0.2-0.8
	c-0.9-3.8-1.5-7.6-1.9-11.5c-0.1-0.8-0.2-1.5-0.3-2.3c-4.5,0-8.8,0-13.3,0C-164.2-167-162.3-160.5-158.2-154.7z M-147.8-177.5
	c4.9,0,9.9,0,14.9,0c0-4.2,0-8.3,0-12.5c-0.3,0-0.5,0-0.8,0c-3.9-0.1-7.7-0.6-11.5-1.4c-0.6-0.1-0.8,0-1,0.6
	c-0.8,3.2-1.4,6.4-1.6,9.7C-147.9-180-147.8-178.8-147.8-177.5z M-129.2-177.5c4.8,0,9.6,0,14.4,0c0-0.2,0-0.3,0-0.5
	c-0.2-4.1-0.7-8.1-1.7-12.1c-0.3-1.2-0.5-1.2-1.6-1c-1.7,0.3-3.4,0.6-5.1,0.8c-1.7,0.2-3.4,0.2-5,0.3c-0.7,0-0.9,0.3-0.9,1
	c0.1,2.6,0,5.1,0,7.7C-129.2-180.1-129.2-178.8-129.2-177.5z M-147.9-173.9c0,0.2,0,0.2,0,0.3c0.3,4.2,1,8.3,1.9,12.3
	c0.1,0.5,0.4,0.5,0.9,0.5c2.3-0.5,4.7-1,7-1.3c1.7-0.3,3.4-0.4,5.2-0.5c0-3.7,0-7.4,0-11.2C-137.9-173.9-142.9-173.9-147.9-173.9z
	 M-114.9-173.9c-4.8,0-9.6,0-14.3,0c0,3.8,0,7.5,0,11.3c0.6,0,1.2,0,1.7,0.1c3.2,0.2,6.4,0.6,9.5,1.5c0.9,0.3,1,0.3,1.2-0.7
	c0.5-2.6,0.9-5.2,1.4-7.8C-115.1-171-115-172.4-114.9-173.9z M-132.9-141c0-6.1,0-12.2,0-18.4c-2.3,0.3-4.5,0.5-6.7,0.9
	c-1.5,0.3-3,0.7-4.6,1c-0.5,0.1-0.7,0.4-0.5,0.9c0.3,0.8,0.6,1.7,1,2.5c1.6,3.9,3.7,7.5,6.9,10.5
	C-135.6-142.5-134.4-141.6-132.9-141z M-129.1-141.3c0.7-0.5,1.3-0.8,1.8-1.3c4.8-3.7,7.3-8.8,9.1-14.3c0.2-0.5-0.1-0.7-0.5-0.8
	c-2.6-0.5-5.2-0.9-7.7-1.4c-0.9-0.1-1.8-0.1-2.7-0.2C-129.1-153.3-129.1-147.4-129.1-141.3z M-132.9-193.4c0-6.1,0-12,0-18
	c-0.5-0.1-0.7,0-0.5,0.5c0.3,0.7,0,1.1-0.6,1.4c-0.6,0.4-1.2,0.8-1.7,1.2c-4.1,3.4-6.9,7.8-8.9,12.7c0,0.1-0.1,0.3-0.2,0.5
	C-140.9-193.9-137-193.7-132.9-193.4z M-129.1-209.7c0,5.6,0,11,0,16.3c0.4,0,0.8,0,1.2,0c3-0.3,6-0.7,9-1c0.5-0.1,1-0.1,0.7-0.9
	c-1.9-4.8-4.6-9.1-8.5-12.5C-127.5-208.5-128.3-209.1-129.1-209.7z M-107-200.8c-4.4-4.8-14.3-10.4-17.5-9.8c0,0.1,0.1,0.1,0.1,0.2
	c2.9,2.6,5.2,5.6,7.1,9c0.9,1.7,1.7,3.4,2.4,5.2c0.2,0.5,0.5,0.7,1,0.4c1.4-0.8,2.9-1.5,4.3-2.4C-108.5-198.9-107.6-199.7-107-200.8
	z M-123.5-141.1c6.7-1.6,12.3-5.1,16.9-10.2c-2.4-2.2-5.1-3.7-8-5.1C-116.6-150.6-119.2-145.4-123.5-141.1z M-155.9-199.8
	c2.3,1.9,4.9,3,7.7,4c2.1-5.6,5.2-10.5,9.5-14.6C-145.5-208.6-151.2-205.2-155.9-199.8z M-139.8-141.2c0-0.1,0.1-0.1,0.1-0.2
	c-0.2-0.2-0.4-0.5-0.6-0.7c-2.1-2.2-3.9-4.8-5.2-7.5c-0.9-1.9-1.7-3.9-2.5-5.8c-0.2-0.5-0.5-0.7-1-0.4c-2.1,1.1-4.3,2.2-6.4,3.4
	c-0.7,0.4-0.7,0.7-0.2,1.3c3.7,4,8,7.1,13.2,9.1C-141.5-141.8-140.6-141.5-139.8-141.2z"/>
<path class="st11" d="M-130.7-136.4c-1.7,0-3.3,0-5,0c-0.2,0-0.4-0.1-0.7-0.1c-2-0.4-4.1-0.5-6.1-1.1c-14.4-3.9-24.9-16.2-27.2-31.1
	c-0.2-1.6-0.4-3.1-0.6-4.7c0-1.2,0-2.4,0-3.6c0-0.2,0.1-0.4,0.1-0.7c0.4-5.8,1.8-11.3,4.6-16.4c5.5-10.1,13.7-16.7,25-19.3
	c1.5-0.3,3.1-0.5,4.6-0.8c1.5,0,2.9,0,4.4,0c0.2,0,0.5,0.1,0.7,0.1c2,0.3,4.1,0.5,6,0.9c15.1,3.7,25.6,16.8,27.9,31.3
	c0.2,1.5,0.4,3,0.6,4.6c0,1.3,0,2.7,0,4c-0.1,0.5-0.1,1-0.2,1.5c-0.8,8.7-4,16.5-9.8,23.1c-5.5,6.2-12.4,10.2-20.6,11.8
	C-128.1-136.7-129.4-136.5-130.7-136.4z M-99.7-177c-0.5-7.5-2.8-14.3-7.3-20.4c-2.4,2.7-5.4,4.3-8.8,5.6c1.2,4.8,2,9.7,2,14.8
	C-109-177-104.4-177-99.7-177z M-113.7-173.4c-0.3,2.3-0.5,4.5-0.8,6.7c-0.3,2.2-0.7,4.4-1.2,6.5c-0.2,0.7,0,1,0.6,1.3
	c2.8,1.3,5.5,2.8,7.8,4.8c0.2,0.2,0.4,0.3,0.6,0.4c4.2-6,6.5-12.5,6.9-19.8C-104.4-173.4-109.1-173.4-113.7-173.4z M-153.6-177
	c0-0.2,0.1-0.2,0.1-0.3c0.2-4.7,0.8-9.4,2-14c0.1-0.5-0.1-0.7-0.5-0.9c-1.3-0.5-2.6-1-3.8-1.6c-1.4-0.7-2.8-1.6-4.2-2.5
	c-4.1,5.8-6.1,12.3-6.7,19.4C-162.3-177-158-177-153.6-177z M-160.3-154.3c2.7-2,5.6-3.4,8.6-4.6c0.5-0.2,0.3-0.5,0.2-0.8
	c-0.9-3.8-1.5-7.6-1.9-11.4c-0.1-0.8-0.2-1.5-0.3-2.3c-4.5,0-8.8,0-13.2,0C-166.3-166.5-164.3-160.1-160.3-154.3z M-149.9-177
	c4.9,0,9.8,0,14.8,0c0-4.2,0-8.3,0-12.4c-0.3,0-0.5,0-0.8,0c-3.9-0.1-7.7-0.6-11.4-1.4c-0.6-0.1-0.8,0-1,0.6
	c-0.8,3.2-1.4,6.4-1.6,9.6C-150-179.4-149.9-178.2-149.9-177z M-131.4-177c4.8,0,9.5,0,14.3,0c0-0.2,0-0.3,0-0.5
	c-0.2-4.1-0.7-8.1-1.7-12c-0.3-1.2-0.5-1.2-1.6-1c-1.7,0.3-3.4,0.6-5.1,0.8s-3.3,0.2-5,0.3c-0.7,0-0.9,0.3-0.9,1
	c0.1,2.5,0,5.1,0,7.6C-131.4-179.6-131.4-178.3-131.4-177z M-150-173.4c0,0.2,0,0.2,0,0.3c0.3,4.1,1,8.2,1.9,12.3
	c0.1,0.5,0.4,0.5,0.9,0.5c2.3-0.5,4.7-1,7-1.3c1.7-0.3,3.4-0.4,5.2-0.5c0-3.7,0-7.4,0-11.2C-140.1-173.4-145-173.4-150-173.4z
	 M-117.1-173.4c-4.8,0-9.5,0-14.2,0c0,3.8,0,7.4,0,11.2c0.6,0,1.2,0,1.7,0.1c3.2,0.2,6.4,0.6,9.5,1.5c0.9,0.3,1,0.3,1.2-0.7
	c0.5-2.6,0.9-5.2,1.3-7.8C-117.4-170.5-117.3-171.9-117.1-173.4z M-135.1-140.6c0-6.1,0-12.1,0-18.3c-2.3,0.3-4.5,0.5-6.7,0.9
	c-1.5,0.3-3,0.7-4.5,1c-0.5,0.1-0.7,0.4-0.5,0.9c0.3,0.8,0.6,1.7,1,2.5c1.6,3.9,3.7,7.5,6.9,10.4
	C-137.8-142.1-136.6-141.3-135.1-140.6z M-131.3-141c0.7-0.5,1.3-0.8,1.8-1.2c4.7-3.7,7.2-8.8,9.1-14.3c0.2-0.5-0.1-0.7-0.5-0.8
	c-2.6-0.5-5.1-0.9-7.7-1.4c-0.9-0.1-1.8-0.1-2.7-0.2C-131.3-152.9-131.3-147-131.3-141z M-135.1-192.8c0-6,0-12,0-17.9
	c-0.5-0.1-0.7,0-0.5,0.5c0.3,0.7,0,1.1-0.6,1.4c-0.6,0.4-1.2,0.8-1.7,1.2c-4.1,3.4-6.9,7.8-8.8,12.7c0,0.1-0.1,0.3-0.1,0.5
	C-143-193.3-139.1-193-135.1-192.8z M-131.3-209c0,5.5,0,10.9,0,16.2c0.4,0,0.8,0,1.2,0c3-0.3,6-0.7,9-1c0.5-0.1,1-0.1,0.7-0.9
	c-1.9-4.8-4.6-9-8.5-12.5C-129.7-207.8-130.5-208.4-131.3-209z M-109.3-200.1c-4.3-4.8-14.2-10.3-17.5-9.8c0,0.1,0.1,0.1,0.1,0.2
	c2.9,2.5,5.2,5.6,7.1,9c0.9,1.7,1.6,3.4,2.4,5.1c0.2,0.5,0.5,0.7,1,0.4c1.4-0.8,2.9-1.5,4.3-2.3C-110.8-198.2-109.9-199-109.3-200.1
	z M-125.7-140.7c6.7-1.6,12.2-5.1,16.9-10.1c-2.4-2.2-5-3.7-8-5C-118.8-150.2-121.4-145-125.7-140.7z M-157.9-199.2
	c2.3,1.9,4.9,3,7.6,4c2.1-5.6,5.2-10.4,9.5-14.5C-147.6-207.9-153.3-204.6-157.9-199.2z M-141.9-140.9c0-0.1,0.1-0.1,0.1-0.2
	c-0.2-0.2-0.4-0.5-0.6-0.7c-2.1-2.2-3.8-4.7-5.2-7.5c-0.9-1.9-1.7-3.9-2.5-5.8c-0.2-0.5-0.5-0.7-1-0.4c-2.1,1.1-4.3,2.2-6.4,3.3
	c-0.7,0.4-0.7,0.7-0.2,1.3c3.7,4,8,7.1,13.1,9C-143.7-141.5-142.8-141.2-141.9-140.9z"/>
<g>
	<path class="st12" d="M-60.3-98c0.1,0,0.2,0,0.3,0c1.2,0.6,2.3,1.4,3.4,2.2c3,2.1,5.8,4.4,8.5,6.9c2,1.8,3.8,3.8,5.4,6
		c0.6,0.8,1.1,1.6,1.5,2.6c0,0.6-0.3,1.2-0.6,1.7c-2.7,5.8-5.3,11.6-7.9,17.4c-2.5,5.5-5,11-7.5,16.5c-0.6,1.3-1.2,2.6-1.7,3.9
		c-0.1,0.2-0.2,0.4-0.4,0.6c0.2-0.1,0.4-0.1,0.6,0.1c-0.1,0.5-0.5,0.3-0.8,0.4c-0.2,0-0.3,0-0.5-0.1c-0.1-0.1-0.3-0.2-0.3-0.3
		c-0.2-0.4-0.7-0.5-0.7-1c-0.1-1.1-0.7-2.1-1.1-3c-1.7-3.5-4.2-6.2-7.6-8.1c-2.8-1.6-5.9-2.5-9.2-2.8c-2-0.2-4-0.2-5.9,0
		c-0.3,0-0.5,0.1-0.7-0.2c-0.2-0.2,0-0.5,0.1-0.7c1.1-2,2.3-4,3.5-5.9c3-5.2,6.1-10.3,9.1-15.5c2.1-3.5,4.2-7.1,6.2-10.6
		c1.1-1.8,2.2-3.7,3.2-5.5c0.2-0.3,0.3-0.5,0.2-0.9c0.9-0.9,1.6-2,2.4-3C-60.8-97.7-60.5-97.9-60.3-98z"/>
	<path class="st13" d="M-98.1-49.7c0.7-0.3,0.9-1,1.2-1.6c2.5-4.2,5-8.4,7.4-12.6c2.6-4.5,5.1-9,7.7-13.6c1.8-3.2,3.5-6.4,5.3-9.6
		c0.7-1.3,1.5-2.6,2.2-4c0.2-0.3,0.4-0.4,0.8-0.4c0.5,0,1,0,1.4-0.3c0.1,0,0.2,0,0.2,0.1c0,0.4-0.2,0.7-0.4,1
		c-2.1,3.7-4.2,7.3-6.3,10.9c-3.3,5.7-6.6,11.4-9.9,17c-2.4,4.1-4.7,8.1-7.1,12.2c-0.2,0.3-0.4,0.5-0.7,0.7
		C-96.9-49.8-97.5-49.8-98.1-49.7C-98.1-49.5-98.1-49.6-98.1-49.7z"/>
	<path class="st14" d="M-3.7-74c0.2,0.1,0,0.5,0.3,0.6c0,0.3,0,0.7,0,1c-0.1,0.2-0.1,0.5,0,0.7v0.1c-0.1,0.1-0.1,0.1-0.2,0
		C-4-72.4-3.9-73.2-3.7-74z"/>
	<path class="st15" d="M-3.4-70.2c-0.2,0.1-0.1,0.4-0.3,0.6c-0.2-0.3-0.2-0.6-0.1-0.9c0-0.1,0.1-0.3,0.2-0.4c0.1-0.1,0.1-0.1,0.2,0
		C-3.4-70.6-3.4-70.4-3.4-70.2z"/>
	<path class="st16" d="M-20-24L-20-24c-0.3,0.1-0.6,0.1-0.9,0.1V-24C-20.6-24.2-20.3-24.2-20-24z"/>
	<path class="st17" d="M-3.4-71.7c-0.2-0.2-0.2-0.5,0-0.7C-3.4-72.2-3.4-72-3.4-71.7z"/>
	<path class="st18" d="M-3.4-70.9h-0.1c-0.2-0.2-0.2-0.5,0-0.7c0.1,0,0.1,0,0.2,0C-3.4-71.4-3.4-71.1-3.4-70.9z"/>
	<path class="st19" d="M-7.8-83.4c0.2,0,0.4,0,0.4,0.3c0,0.2,0,0.4,0,0.6c-0.2,1,0.2,1.6,1,2.1c0.1,0.5-0.2,0.9-0.3,1.3
		c-1.7,4.6-3.3,9.3-5,14c-1.8,5.1-3.7,10.2-5.5,15.2c-1.6,4.4-3.2,8.7-4.7,13.1c-0.4,1.1-0.8,2.3-1.2,3.4c-0.1,0.3-0.2,0.6-0.6,0.6
		c-1.3-0.5-2.5-1.3-3.7-1.9c-3.7-1.8-7.5-3.2-11.4-4.3c-3.1-0.8-6.3-1.3-9.5-1.5s-6.4-0.1-9.6,0.4c-0.3,0-0.6,0.2-0.9-0.1
		c-0.2,0-0.4,0-0.7-0.1c1.7-3.8,3.5-7.5,5.2-11.3c2-4.3,3.9-8.6,5.9-13c1.4-3.1,2.7-6.1,4.1-9.2c0.9-1.9,1.8-3.9,2.7-5.9
		c0.1-0.3,0.3-0.6,0.3-0.9c0.7,0.1,1-0.5,1.5-0.8c5.2-3.1,10.6-5.5,16.5-6.9c1.9-0.4,3.8-0.7,5.7-0.9c2.1-0.2,4.1,0.1,6.1,0.5
		c0.6,0.1,0.7,0.4,0.5,0.9c-0.1,0.1-0.1,0.3-0.1,0.5c-0.2,0.7-0.2,1.2,0.7,1.4c-0.6,0.2-0.8,0.8-1,1.3c-1.7,5.2-3.5,10.4-5.2,15.6
		c-2.3,7-4.7,14-7,20.9c-0.8,2.2-1.5,4.5-2.3,6.7c-0.3,0.9-0.4,0.9-1.3,0.7c-2.6-0.5-5.2-0.9-7.8-1.1c-2.3-0.2-4.6-0.1-6.9,0
		c-0.1,0,0,0.1,0,0c0,0,0,0,0.1,0c1.9,0.3,3.8,0.7,5.7,1.1c3.1,0.7,6.3,1.4,9.3,2.5c0.6,0.2,1.1,0.5,1.7,0.7c0.7,0.3,0.8,0.3,1-0.4
		c1-2.3,1.8-4.6,2.6-7c2.4-6.6,4.7-13.2,7-19.9c1.4-3.9,2.7-7.9,4.1-11.8c0.7-2.1,1.5-4.2,2.2-6.3C-8.2-82.9-8.1-83.2-7.8-83.4z"/>
	<path class="st20" d="M-58.8-40.2c2.8-0.4,5.7-0.7,8.5-0.6c9.2,0.2,17.7,2.8,25.7,7.4c0.3,0.2,0.6,0.3,0.9,0.5
		c0.5,0.1,0.9,0.4,1.4,0.7c0.7,0.4,0.7,0.5,1-0.3c0.7-1.8,1.3-3.6,1.9-5.4c2.7-7.5,5.3-15,8-22.6C-9.7-65.3-8-70-6.3-74.8
		c0.1-0.3,0.2-0.6,0.4-0.9c0.2-0.2,0.1-0.6,0.6-0.5c0.9,0.5,1.4,1.3,1.7,2.3c0.1,0.8-0.1,1.6,0.1,2.4c0,0.2,0,0.5,0,0.7
		c0,0.1-0.1,0.2-0.1,0.3c-0.3,0.3-0.2,0.7-0.3,1.1c-2,6-3.8,11.9-5.7,17.9c-2.5,8-4.9,16-7.3,24c-0.5,1.8-2.5,2.3-3.8,2.2
		c-2.4-0.2-4.6-1.1-6.7-2c-5-2.3-10.1-4.2-15.3-6.2c-3.7-1.4-7.5-2.7-11.3-4.1c-1.5-0.6-3.1-1-4.6-1.6c-0.4-0.1-0.8-0.2-1.1-0.5
		C-59.4-40-59.1-40.1-58.8-40.2z"/>
	<path class="st19" d="M-96.2-49.7c1.1-1.6,2-3.4,3-5c1.3-2.2,2.6-4.5,3.9-6.7c1.7-3,3.4-5.9,5.1-8.9c2.5-4.3,5.1-8.7,7.6-13
		c1.6-2.8,3.2-5.5,4.7-8.3c0-0.3,0.4-0.4,0.3-0.7c0.2-0.4,0.6-0.6,1.1-0.6c0.7,0.1,1.5,0.1,2.2,0.2c0.5,0.1,0.9,0,1.2-0.5
		c0.5-0.7,1.2-1.3,1.8-1.9c0.2-0.2,0.5-0.4,0.8-0.1c-0.4,1.1-1.1,2-1.7,3c-2.9,4.8-5.9,9.6-8.8,14.4c-2,3.3-4,6.5-6,9.8
		c-2.9,4.7-5.8,9.5-8.8,14.2c-0.1,0.1-0.2,0.3-0.2,0.5c0.7-0.1,1.3-0.3,2-0.3c3.4-0.4,6.7-0.1,9.9,1c4,1.3,7.6,3.3,11,5.9
		c1.8,1.4,3.5,2.9,5.2,4.5c0.3,0.3,0.8,0.6,0.8,1.1c0.1,0.4,0.7,0.4,0.7,0.9c-0.5,0.1-0.8-0.1-1.2-0.3c-3.7-1.9-7.5-3.8-11.4-5.3
		c-2.8-1.1-5.5-2.1-8.5-2.6c-1.7-0.3-3.4-0.7-5.1-0.9c-2.5-0.3-5.1-0.4-7.6-0.1c-0.2,0-0.4,0.1-0.6,0
		C-95.3-50.1-95.8-49.5-96.2-49.7z"/>
	<path class="st20" d="M-94.8-49.7c0.6-0.4,1.2-0.2,1.9-0.3c3.7-0.2,7.3,0.2,10.9,0.9c6.2,1.3,11.9,3.9,17.5,6.7
		c1.4,0.7,2.8,1.4,4.1,2c0.1,0.1,0.2,0.2,0.3,0.3c-0.4,0.3-0.9,0.2-1.3,0.2c-1.3-0.1-2.6-0.2-4-0.3c-2.3-0.2-4.5-0.3-6.8-0.5
		c-3.6-0.3-7.2-0.5-10.8-0.8c-2.8-0.2-5.5-0.4-8.3-0.6c-1-0.1-1.9-0.1-2.9-0.2c-1.1,0-2.1-0.4-2.7-1.5c-0.3-2,0.6-3.7,1.6-5.3
		C-95.1-49.2-94.9-49.4-94.8-49.7z"/>
	<path class="st13" d="M-61.1-41.2c-1.2-1.3-2.5-2.4-3.8-3.6c-2.1-1.8-4.4-3.5-6.8-4.8c-2.7-1.5-5.5-2.7-8.6-3.4
		c-2.1-0.5-4.1-0.6-6.2-0.5c-1,0-2,0.2-3,0.4c-0.3,0.1-0.6,0.2-0.7,0c-0.2-0.2,0.1-0.5,0.2-0.7c1.5-2.4,3-4.9,4.6-7.3
		c2.9-4.7,5.8-9.4,8.7-14.2c2.7-4.4,5.4-8.8,8.1-13.2c1.3-2.1,2.5-4.2,3.8-6.2c0.1-0.2,0.3-0.3,0.4-0.5c0.4,0.2,0.9,0.5,1.3,0.7
		c0.3,0.2,0.3,0.4,0.1,0.7c-1.6,2.7-3.2,5.4-4.8,8c-1.5,2.5-2.9,5.1-4.4,7.6c-1.5,2.6-3.2,5.2-4.6,7.8c-1.2,2.1-2.4,4-3.6,6.1
		c-1.4,2.5-2.9,4.9-4.4,7.3c-0.2,0.4-0.4,0.7-0.6,1.1c-0.1,0.1-0.3,0.2-0.2,0.4c0.1,0.1,0.3,0.1,0.5,0.1c1.5-0.3,3-0.2,4.5-0.1
		c2.6,0.1,5.2,0.6,7.7,1.5c1.9,0.7,3.6,1.6,5.2,2.8c2,1.5,3.7,3.4,4.9,5.6c0.7,1.2,1.3,2.6,1.8,3.9C-61-41.6-60.7-41.3-61.1-41.2z"
		/>
	<path class="st21" d="M-96.8-43.7c0.1,0,0.3,0.1,0.4,0.2c0.5,0.7,1.3,1.1,2.1,1.1c1.8,0,3.5,0.2,5.2,0.3c2.8,0.2,5.6,0.3,8.4,0.7
		c1.4,0.2,2.9,0.2,4.3,0.3c2.3,0.1,4.6,0.3,6.9,0.5c1.4,0.1,2.7,0.2,4.1,0.3c1.7,0.1,3.5,0.4,5.2,0.3c0.1,0,0.3,0.1,0.4,0.1
		c1.5,0.5,2.9,1,4.3,1.5c3.3,1.2,6.6,2.4,10,3.7c4.6,1.7,9.1,3.4,13.6,5.3c2.5,1,4.9,2.3,7.4,3.1c1.6,0.5,3.1,1,4.8,0.7
		c1.2-0.2,2-0.9,2.4-2.2c0.8-2.9,1.8-5.8,2.6-8.7c1.4-4.7,2.9-9.4,4.3-14.2c0.8-2.6,1.6-5.2,2.5-7.8c1.3-4.1,2.6-8.3,4-12.5
		c0,0.2,0.1,0.3,0.1,0.4c0,0.3,0,0.6,0,1c-1.9,6-3.8,12-5.7,18c-2.6,8.5-5.2,17-7.8,25.5c-0.4,1.5-1.5,1.9-2.8,2.1
		c-0.3,0-0.6,0-0.9,0c-1.9-0.2-3.7-0.8-5.4-1.6c-8.8-4-17.8-7.2-26.9-10.5c-1.1-0.4-2.3-0.7-3.4-1.2c-2.5-1.1-5.2-1.2-7.9-1.4
		c-6.8-0.5-13.7-1.1-20.5-1.5c-2.9-0.2-5.7-0.5-8.6-0.5c-0.5,0-0.9-0.1-1.4-0.2C-96.4-41.4-96.9-42.2-96.8-43.7z"/>
	<path class="st22" d="M-71.6-92.3c0.2,0.4-0.1,0.5-0.3,0.7c-0.1-0.1-0.1-0.1-0.2-0.2C-71.9-92-71.8-92.2-71.6-92.3z"/>
	<path class="st13" d="M-7.8-83.4c-1.1,3.1-2.1,6.3-3.2,9.4c-0.8,2.4-1.6,4.9-2.5,7.3c-2.2,6.4-4.5,12.8-6.7,19.2
		c-1.1,3.1-2.3,6.1-3.4,9.2c-0.1,0.3-0.3,0.6-0.4,0.8c-0.4,1-0.4,1-1.3,0.5c-3.1-1.4-6.4-2.1-9.7-2.9c-2.2-0.5-4.4-0.9-6.6-1.3
		c-0.3-0.1-0.8,0.1-1.1-0.3c0.5-0.1,1-0.2,1.5-0.2c1.9-0.1,3.7-0.1,5.6,0c1.5,0.1,3.1,0.3,4.6,0.5c1.4,0.2,2.7,0.4,4.1,0.7
		c0.4,0.1,0.5-0.1,0.6-0.4c0.4-1.2,0.8-2.4,1.2-3.6c1.1-3.4,2.2-6.7,3.4-10.1c1.3-3.9,2.7-7.9,4-11.8c1.4-4.1,2.8-8.2,4.2-12.3
		c0.7-2.1,1.5-4.3,2.1-6.4c0.2-0.5,0.4-0.6,0.9-0.6c0.5,0.1,1,0.3,1.6,0.4c0.4,0.1,0.5,0.3,0.3,0.7s-0.7,0.8-0.5,1.2
		C-8.9-83.2-8.2-83.4-7.8-83.4z"/>
	<path class="st13" d="M-5.8-75.7c-3.3,9.2-6.5,18.5-9.8,27.7c-1.9,5.3-3.7,10.6-5.6,15.9c-0.2,0.5-0.3,0.7-0.8,0.3
		c-0.5-0.4-1.1-0.7-1.6-1.1c0.5-0.3,0.5-0.9,0.7-1.3c1.5-4.1,3-8.3,4.5-12.5s3-8.5,4.5-12.7c2.5-6.9,5-13.9,7.5-20.8
		c0-0.1,0.1-0.1,0.1-0.2c0.7,0.4,1,0.9,0.7,1.8c-0.2,0.6,0.1,1.4-0.2,2c0,0.2-0.1,0.4,0,0.6C-5.7-75.9-5.7-75.8-5.8-75.7z"/>
	<path class="st23" d="M-5.8-75.7c0-0.1,0-0.2,0-0.3c-0.1-0.3-0.1-0.5,0.3-0.4c0.1,0.1,0.1,0.1,0.2,0.2C-5.8-76.3-5.6-75.8-5.8-75.7
		z"/>
	<path class="st24" d="M-5.5-76.5c-0.3,0-0.3,0.3-0.3,0.4c-0.2-0.2-0.2-0.4,0-0.6C-5.7-76.5-5.6-76.5-5.5-76.5z"/>
	<path class="st25" d="M-41.5-40.1c-0.2,0.1-0.3,0.1-0.5,0C-41.8-40.2-41.6-40.2-41.5-40.1z"/>
	<path class="st26" d="M-44.8-40.1c0.2-0.1,0.4-0.1,0.6,0C-44.4-40-44.6-40-44.8-40.1z"/>
</g>
<g>
	<path class="st20" d="M122.3,46.8c1.7,0.4,3.1,1.1,4.2,2.5c0.1,0.2,0.4,0.2,0.7,0.2c1.1,0,2.2,0,3.3,0c1.7,0,3,0.7,3.8,2.3
		c0.1,0.2,0.5,0.4,0.8,0.4c2.8,0,5.7,0,8.5,0c1.9,0,3.5,0.5,4.7,2.1c0.7,0.8,1,1.8,1.1,2.9c0,0.3,0,0.6,0,0.9c0,20.2,0,40.4,0,60.7
		c0,2.4-0.8,4.2-3,5.2c-0.7,0.4-1.6,0.5-2.5,0.5c-15.1,0-30.1,0-45.2,0c-3.3,0-5.5-2.3-5.5-5.7c0-11.7,0-23.5,0-35.2
		c0-8.6,0-17.2,0-25.8c0-2.8,1.4-4.8,4-5.5c0.6-0.2,1.2-0.2,1.9-0.2c2.8,0,5.6,0,8.3,0c0.5,0,0.8-0.1,1.1-0.6c0.7-1.3,1.8-2,3.3-2.1
		c1.2,0,2.4,0,3.6,0c0.3,0,0.6-0.1,0.7-0.2c1.1-1.3,2.6-2.1,4.2-2.5C121.1,46.8,121.7,46.8,122.3,46.8z"/>
	<path class="st20" d="M101.2,116.5c13.5,0,26.9,0,40.3,0c0-18.8,0-37.6,0-56.5c-2.3,0-4.5,0-6.7,0c-0.2,0-0.4,0.3-0.5,0.4
		c-0.8,1.4-2,2.2-3.6,2.2c-6.2,0-12.4,0-18.6,0c-1.6,0-2.8-0.7-3.6-2.2c-0.2-0.4-0.4-0.5-0.9-0.5c-1.9,0-3.9,0-5.8,0
		c-0.2,0-0.4,0-0.6,0.1C101.2,78.9,101.2,97.7,101.2,116.5z"/>
	<path class="st20" d="M108,57.5c0-1,0-1.9,0-2.9c-3,0-5.9,0-8.8,0c-2.4,0-3.4,1-3.4,3.4c0,20.1,0,40.3,0,60.4c0,2.4,1,3.4,3.4,3.4
		c8.4,0,16.9,0,25.3,0c6.4,0,12.7,0,19.1,0c0.7,0,1.4-0.1,2-0.4c1.1-0.5,1.4-1.6,1.4-2.8c0-5.2,0-10.4,0-15.5c0-15,0-30,0-45
		c0-2.4-1.3-3.7-3.5-3.6c-2.6,0.1-5.3,0-7.9,0c-0.3,0-0.5,0-0.8,0c0,1,0,1.9,0,2.9c0.3,0,0.6,0,0.9,0c2.2,0,4.5,0,6.7,0
		c1.3,0,1.7,0.4,1.7,1.8c0,19.3,0,38.7,0,58c0,1.3-0.4,1.8-1.8,1.8c-14,0-28,0-41.9,0c-1.3,0-1.8-0.4-1.8-1.8c0-19.3,0-38.7,0-58
		c0-1.4,0.4-1.8,1.8-1.8C102.9,57.5,105.4,57.5,108,57.5z"/>
	<path class="st20" d="M121.4,60.2c3,0,6,0,9,0c1.3,0,1.8-0.5,1.8-1.8c0-1.5,0-3,0-4.5c0-1.4-0.5-1.9-1.9-1.9c-1.2,0-2.4-0.1-3.6,0
		c-0.9,0.1-1.6-0.3-2.1-1c-0.4-0.5-0.9-0.9-1.4-1.2c-1.8-0.9-3.8-0.4-5,1.2c-0.5,0.7-1.1,1-2,1c-1.3-0.1-2.6,0-3.9,0
		c-1.2,0-1.7,0.5-1.7,1.7c0,1.5,0,3,0,4.5c0,1.5,0.4,1.9,1.9,1.9C115.5,60.2,118.4,60.2,121.4,60.2z"/>
	<path class="st27" d="M108,57.5c-2.6,0-5.1,0-7.6,0c-1.4,0-1.8,0.4-1.8,1.8c0,19.3,0,38.7,0,58c0,1.3,0.4,1.8,1.8,1.8
		c14,0,28,0,41.9,0c1.3,0,1.8-0.4,1.8-1.8c0-19.3,0-38.7,0-58c0-1.4-0.4-1.8-1.7-1.8c-2.2,0-4.5,0-6.7,0c-0.3,0-0.5,0-0.9,0
		c0-1,0-1.9,0-2.9c0.3,0,0.5,0,0.8,0c2.6,0,5.3,0.1,7.9,0c2.3-0.1,3.5,1.2,3.5,3.6c0,15,0,30,0,45c0,5.2,0,10.4,0,15.5
		c0,1.2-0.3,2.2-1.4,2.8c-0.6,0.3-1.3,0.4-2,0.4c-6.4,0-12.7,0-19.1,0c-8.4,0-16.9,0-25.3,0c-2.4,0-3.4-1-3.4-3.4
		c0-20.1,0-40.3,0-60.4c0-2.4,1-3.4,3.4-3.4c2.9,0,5.8,0,8.8,0C108,55.6,108,56.5,108,57.5z"/>
	<g>
		<linearGradient id="SVGID_14_" gradientUnits="userSpaceOnUse" x1="97.2371" y1="64.1153" x2="145.592" y2="112.4702">
			<stop  offset="0" style="stop-color:#FFFFFF"/>
			<stop  offset="1" style="stop-color:#F4DDBE"/>
		</linearGradient>
		<path class="st28" d="M134.8,60.1c-0.2,0-0.4,0.3-0.5,0.4c-0.8,1.4-2,2.2-3.6,2.2c-6.2,0-12.4,0-18.6,0c-1.6,0-2.8-0.7-3.6-2.2
			c-0.2-0.4-0.4-0.5-0.9-0.5c-1.9,0-3.9,0-5.8,0c-0.2,0-0.4,0-0.6,0.1c0,18.8,0,37.6,0,56.4c13.5,0,26.9,0,40.3,0
			c0-18.8,0-37.6,0-56.5C139.3,60,137.1,60,134.8,60.1z M135.5,77.6c0.2,0,0.4,0,0.6,0c0.8,0.1,1.3,0.6,1.3,1.3
			c0,0.7-0.5,1.2-1.4,1.2c-2.2,0-4.4,0-6.6,0c-2.1,0-4.3,0-6.4,0c-0.9,0-1.4-0.4-1.5-1.2c0-0.7,0.3-1.1,1-1.3
			c0.3-0.1,0.6-0.1,0.9-0.1C127.4,77.6,131.5,77.6,135.5,77.6z M132,87c0,0.7-0.5,1.2-1.5,1.2c-1.3,0-2.6,0-3.9,0
			c-1.2,0-2.5,0-3.7,0c-0.9,0-1.5-0.5-1.5-1.2c0-0.8,0.5-1.2,1.4-1.2c2.6,0,5.1,0,7.7,0C131.5,85.7,132.1,86.2,132,87z M105.8,74
			c0.6-0.6,1.3-0.5,2.1,0.3c0.7,0.7,1.5,1.5,2.2,2.2c0.2,0.2,0.3,0.4,0.5,0.7c1.9-1.9,3.7-3.7,5.5-5.5c0.2-0.2,0.4-0.4,0.7-0.6
			c0.5-0.3,1-0.2,1.5,0.2c0.4,0.4,0.5,1,0.2,1.5c-0.1,0.2-0.3,0.4-0.5,0.6c-2,2-4,4-6.1,6.1c-0.9,0.9-1.5,0.9-2.4,0
			c-1.1-1.1-2.3-2.2-3.4-3.4C105.3,75.3,105.2,74.6,105.8,74z M118.4,99.7c-0.1,0.2-0.3,0.4-0.4,0.5c-2,2-4.1,4.1-6.1,6.1
			c-0.9,0.9-1.5,0.9-2.4,0c-1.2-1.2-2.4-2.3-3.5-3.5c-0.7-0.7-0.6-1.6,0.1-2.1c0.6-0.4,1.1-0.3,1.8,0.3c1,1,1.9,1.9,2.9,3
			c1.9-1.9,3.6-3.7,5.4-5.4c0.2-0.2,0.4-0.4,0.6-0.5c0.5-0.3,1.1-0.3,1.5,0.2C118.7,98.6,118.8,99.1,118.4,99.7z M118.1,86.6
			c-2.1,2.2-4.3,4.3-6.5,6.5c-0.6,0.6-1.3,0.6-2,0c-1.3-1.3-2.5-2.5-3.8-3.8c-0.6-0.6-0.6-1.4-0.1-1.9c0.5-0.5,1.2-0.5,1.8,0.1
			c1,1,2,2,3,3.1c0.5-0.5,0.9-0.9,1.3-1.3c1.5-1.5,3-3,4.4-4.4c0.6-0.6,1.4-0.6,1.9-0.1C118.8,85.3,118.8,86,118.1,86.6z
			 M122.7,72.3c2.7,0,5.4,0,8.1,0c0.7,0,1.2,0.6,1.2,1.2c0,0.7-0.5,1.2-1.3,1.3c-1.3,0-2.6,0-3.9,0c0,0,0,0,0,0c-1.3,0-2.5,0-3.8,0
			c-0.7,0-1.3-0.2-1.4-1C121.4,73,121.9,72.3,122.7,72.3z M123.4,91.1c2,0,4.1,0,6.1,0c2.1,0,4.3,0,6.4,0c0.9,0,1.4,0.4,1.4,1.1
			c0,0.7-0.2,1.1-0.9,1.3c-0.3,0.1-0.6,0.1-1,0.1c-4,0-8.1,0-12.1,0c-1.3,0-1.9-0.4-1.9-1.3C121.5,91.5,122.1,91.1,123.4,91.1z
			 M122.7,99.1c2.7,0,5.4,0,8.1,0c0.7,0,1.2,0.6,1.2,1.2c0,0.7-0.5,1.2-1.2,1.3c-1.3,0-2.7,0-4,0c0,0,0,0,0,0c-1.1,0-2.3,0-3.4,0
			c-0.2,0-0.5,0-0.7,0c-0.7-0.1-1.2-0.6-1.2-1.3C121.5,99.7,122,99.1,122.7,99.1z M136,107c-0.6,0-1.2,0-1.8,0c-1.6,0-3.1,0-4.7,0
			c-2.1,0-4.2,0-6.4,0c-0.3,0-0.6,0-0.9-0.1c-0.5-0.2-0.8-0.6-0.7-1.2c0-0.6,0.3-1,0.9-1.1c0.3-0.1,0.6-0.1,1-0.1
			c4.1,0,8.1,0,12.2,0c0.2,0,0.4,0,0.5,0c0.8,0.1,1.3,0.6,1.3,1.3C137.4,106.5,136.9,107,136,107z"/>
		<linearGradient id="SVGID_15_" gradientUnits="userSpaceOnUse" x1="114.3671" y1="49.0711" x2="128.4449" y2="63.1488">
			<stop  offset="0" style="stop-color:#FFFFFF"/>
			<stop  offset="1" style="stop-color:#F4DDBE"/>
		</linearGradient>
		<path class="st29" d="M112.5,60.2c3,0,5.9,0,8.9,0c3,0,6,0,9,0c1.3,0,1.8-0.5,1.8-1.8c0-1.5,0-3,0-4.5c0-1.4-0.5-1.9-1.9-1.9
			c-1.2,0-2.4-0.1-3.6,0c-0.9,0.1-1.6-0.3-2.1-1c-0.4-0.5-0.9-0.9-1.4-1.2c-1.8-0.9-3.8-0.4-5,1.2c-0.5,0.7-1.1,1-2,1
			c-1.3-0.1-2.6,0-3.9,0c-1.2,0-1.7,0.5-1.7,1.7c0,1.5,0,3,0,4.5C110.6,59.8,111,60.2,112.5,60.2z M120.2,53.3
			c0-0.7,0.6-1.1,1.2-1.1c0.6,0,1.2,0.4,1.2,1.1c0,0.5,0,1,0,1.5c0,0.5,0,1,0,1.4c-0.1,0.7-0.6,1.1-1.2,1.1c-0.6,0-1.2-0.4-1.2-1.1
			C120.2,55.3,120.2,54.3,120.2,53.3z"/>
	</g>
	<path class="st20" d="M110.7,90.6c0.5-0.5,0.9-0.9,1.3-1.3c1.5-1.5,3-3,4.4-4.4c0.6-0.6,1.4-0.6,1.9-0.1c0.5,0.5,0.5,1.2-0.1,1.9
		c-2.1,2.2-4.3,4.3-6.5,6.5c-0.6,0.6-1.3,0.6-2,0c-1.3-1.3-2.5-2.5-3.8-3.8c-0.6-0.6-0.6-1.4-0.1-1.9c0.5-0.5,1.2-0.5,1.8,0.1
		C108.6,88.5,109.6,89.5,110.7,90.6z"/>
	<path class="st20" d="M110.6,77.2c1.9-1.9,3.7-3.7,5.5-5.5c0.2-0.2,0.4-0.4,0.7-0.6c0.5-0.3,1-0.2,1.5,0.2c0.4,0.4,0.5,1,0.2,1.5
		c-0.1,0.2-0.3,0.4-0.5,0.6c-2,2-4,4-6.1,6.1c-0.9,0.9-1.5,0.9-2.4,0c-1.1-1.1-2.3-2.2-3.4-3.4c-0.8-0.8-0.9-1.5-0.3-2.1
		c0.6-0.6,1.3-0.5,2.1,0.3c0.7,0.7,1.5,1.5,2.2,2.2C110.3,76.7,110.4,76.9,110.6,77.2z"/>
	<path class="st20" d="M110.7,104c1.9-1.9,3.6-3.7,5.4-5.4c0.2-0.2,0.4-0.4,0.6-0.5c0.5-0.3,1.1-0.3,1.5,0.2c0.4,0.4,0.5,1,0.2,1.5
		c-0.1,0.2-0.3,0.4-0.4,0.5c-2,2-4.1,4.1-6.1,6.1c-0.9,0.9-1.5,0.9-2.4,0c-1.2-1.2-2.4-2.3-3.5-3.5c-0.7-0.7-0.7-1.6,0.1-2.1
		c0.6-0.4,1.1-0.3,1.8,0.3C108.7,102,109.7,103,110.7,104z"/>
	<path class="st20" d="M129.5,107c-2.1,0-4.2,0-6.4,0c-0.3,0-0.6,0-0.9-0.1c-0.5-0.2-0.8-0.6-0.7-1.2c0-0.6,0.3-1,0.9-1.1
		c0.3-0.1,0.6-0.1,1-0.1c4.1,0,8.1,0,12.2,0c0.2,0,0.4,0,0.5,0c0.8,0.1,1.3,0.6,1.3,1.3c0,0.7-0.5,1.2-1.4,1.2c-0.6,0-1.2,0-1.8,0
		C132.7,107,131.1,107,129.5,107z"/>
	<path class="st20" d="M129.4,80.2c-2.1,0-4.3,0-6.4,0c-0.9,0-1.4-0.4-1.5-1.2c0-0.7,0.3-1.1,1-1.3c0.3-0.1,0.6-0.1,0.9-0.1
		c4,0,8.1,0,12.1,0c0.2,0,0.4,0,0.6,0c0.8,0.1,1.3,0.6,1.3,1.3c0,0.7-0.5,1.2-1.4,1.2C133.8,80.2,131.6,80.2,129.4,80.2z"/>
	<path class="st20" d="M129.5,91.1c2.1,0,4.3,0,6.4,0c0.9,0,1.4,0.4,1.4,1.1c0,0.7-0.2,1.1-0.9,1.3c-0.3,0.1-0.6,0.1-1,0.1
		c-4,0-8.1,0-12.1,0c-1.3,0-1.9-0.4-1.9-1.3c0-0.9,0.6-1.3,1.8-1.3C125.4,91.1,127.5,91.1,129.5,91.1z"/>
	<path class="st20" d="M126.8,74.8c-1.3,0-2.5,0-3.8,0c-0.7,0-1.3-0.2-1.4-1c-0.2-0.8,0.3-1.5,1.2-1.5c2.7,0,5.4,0,8.1,0
		c0.7,0,1.2,0.6,1.2,1.2c0,0.7-0.5,1.2-1.3,1.3C129.4,74.8,128.1,74.8,126.8,74.8C126.8,74.8,126.8,74.8,126.8,74.8z"/>
	<path class="st20" d="M126.8,101.6c-1.1,0-2.3,0-3.4,0c-0.2,0-0.5,0-0.7,0c-0.7-0.1-1.2-0.6-1.2-1.3c0-0.7,0.5-1.2,1.2-1.2
		c2.7,0,5.4,0,8.1,0c0.7,0,1.2,0.6,1.2,1.2c0,0.7-0.5,1.2-1.2,1.3C129.5,101.7,128.1,101.6,126.8,101.6
		C126.8,101.6,126.8,101.6,126.8,101.6z"/>
	<path class="st20" d="M126.7,88.2c-1.2,0-2.5,0-3.7,0c-0.9,0-1.5-0.5-1.5-1.2c0-0.8,0.5-1.2,1.4-1.2c2.6,0,5.1,0,7.7,0
		c0.9,0,1.5,0.5,1.4,1.3c0,0.7-0.5,1.2-1.5,1.2C129.3,88.2,128,88.2,126.7,88.2z"/>
	<path class="st20" d="M122.6,54.8c0,0.5,0,1,0,1.4c-0.1,0.7-0.6,1.1-1.2,1.1c-0.6,0-1.2-0.4-1.2-1.1c0-1,0-2,0-2.9
		c0-0.7,0.6-1.1,1.2-1.1c0.6,0,1.2,0.4,1.2,1.1C122.7,53.8,122.6,54.3,122.6,54.8z"/>
</g>
<g>
	<g>
		<g>
			
				<linearGradient id="XMLID_11_" gradientUnits="userSpaceOnUse" x1="112.6726" y1="348.1364" x2="135.1609" y2="220.5991" gradientTransform="matrix(1 0 0 -1 0 140)">
				<stop  offset="0" style="stop-color:#165FD3"/>
				<stop  offset="0.6343" style="stop-color:#4496EF"/>
				<stop  offset="1" style="stop-color:#5BB1FC"/>
			</linearGradient>
			<path id="XMLID_4_" class="st30" d="M76.9-200.1c0,0-26.4,15.4-22.1,54.2c2.7,20,19.8,55.1,56,63.4c18.8,2.9,53.7,3.9,77.5-28.3
				c8-13.5,16.6-50.7-36.5-57.8c-20.9-2.9-42.5-1.7-56.5-13.7C87.8-191.2,89.5-203.6,76.9-200.1z"/>
		</g>
		<g>
			<defs>
				<path id="SVGID_8_" d="M76.9-200.1c0,0-26.4,15.4-22.1,54.2c2.7,20,19.8,55.1,56,63.4c18.8,2.9,53.7,3.9,77.5-28.3
					c8-13.5,16.6-50.7-36.5-57.8c-20.9-2.9-42.5-1.7-56.5-13.7C87.8-191.2,89.5-203.6,76.9-200.1z"/>
			</defs>
			<clipPath id="SVGID_16_">
				<use xlink:href="#SVGID_8_"  style="overflow:visible;"/>
			</clipPath>
			
				<linearGradient id="SVGID_17_" gradientUnits="userSpaceOnUse" x1="80.9118" y1="344.3838" x2="176.6924" y2="230.237" gradientTransform="matrix(1 0 0 -1 0 140)">
				<stop  offset="0" style="stop-color:#054AC9"/>
				<stop  offset="0.2918" style="stop-color:#2C76D9"/>
				<stop  offset="0.7741" style="stop-color:#67BBF2"/>
				<stop  offset="1" style="stop-color:#7FD6FC"/>
			</linearGradient>
			<path class="st31" d="M82.5-203.4c0,0-1,37.8,28.3,43.6c29.3,5.8,65.9,43.1,26.7,80.4s46.1-17.5,46.1-17.5l13.9-22.4l0.3-12
				l-3.5-18.8l-8.2-11.2c0,0-19.1-6.3-21.1-7.9c-1.9-1.6-20.4-7.2-20.4-7.2s-21.9-4.2-22.8-4.2s-21-13-21-13L82.5-203.4z"/>
		</g>
	</g>
	<g>
		
			<linearGradient id="SVGID_18_" gradientUnits="userSpaceOnUse" x1="155.0551" y1="320.1795" x2="170.1555" y2="305.0789" gradientTransform="matrix(0.9644 -0.2645 -0.2645 -0.9644 27.9675 165.1811)">
			<stop  offset="0" style="stop-color:#FED634"/>
			<stop  offset="0.1999" style="stop-color:#FCD234"/>
			<stop  offset="0.4125" style="stop-color:#F5C534"/>
			<stop  offset="0.631" style="stop-color:#EAB034"/>
			<stop  offset="0.8522" style="stop-color:#DA9233"/>
			<stop  offset="1" style="stop-color:#CD7A33"/>
		</linearGradient>
		<path class="st32" d="M111-186.6c-0.5-0.1-1-0.1-1.4,0c-0.3,0-0.6,0-0.9,0.1c-0.7,0.1-1.4,0.2-2,0.3c-0.5,0.1-0.9,0.1-1.4,0.2
			c-0.2,0-0.4,0-0.6,0c-0.3,0-0.6-0.1-0.9-0.3s-0.5-0.5-0.7-0.7l0,0c-0.3-0.4-0.7-0.8-1-1.2c-0.6-0.7-1.3-1.5-2-2.1
			c-0.3-0.3-0.6-0.6-1.1-0.7c-0.1,0-0.1,0-0.2,0c-0.2,0.1-0.3,0.3-0.4,0.5c-0.2,0.4-0.3,0.8-0.4,1.3c-0.2,0.9-0.4,1.8-0.6,2.7
			c-0.1,0.6-0.2,1.2-0.4,1.8c-0.1,0.4-0.3,0.6-0.6,0.8c-0.3,0.1-0.5,0.3-0.8,0.4c-0.9,0.4-1.8,0.8-2.8,1.2c-0.6,0.3-1.2,0.5-1.7,0.9
			c-0.2,0.2-0.5,0.3-0.6,0.6c-0.1,0,0,0.1,0,0.1c0,0.1,0,0.2,0.1,0.3c0.1,0.2,0.3,0.3,0.4,0.5c0.2,0.2,0.5,0.4,0.8,0.6
			c0.5,0.3,1,0.6,1.5,0.9c0.1,0.1,0.3,0.2,0.4,0.2l0,0l0,0c0.8,0.4,1.6,0.8,2.3,1.3l0.1,0.1c0.1,0.1,0.3,0.2,0.3,0.4
			c0.1,0.1,0.1,0.2,0.1,0.4c0.1,0.4,0.1,0.7,0.2,1.1c0,0.3,0,0.6,0.1,1l0,0c0,0.2,0,0.4,0,0.5v0.1c0,0.6,0.1,1.1,0.2,1.7
			c0,0.1,0,0.1,0.1,0.2l0,0l0,0v0.1c0,0.1,0,0.2,0,0.3c0,0.2,0.1,0.4,0.1,0.6c0,0.1,0,0.2,0.1,0.3c0,0.1,0,0.1,0.1,0.2l0,0v0.1
			c0.2,0.4,0.4,0.5,0.9,0.3c0.2-0.1,0.4-0.2,0.6-0.3c0.2-0.1,0.3-0.2,0.5-0.3l0,0l0,0c0.1-0.1,0.2-0.1,0.3-0.2
			c0.2-0.1,0.3-0.3,0.5-0.4c0.3-0.2,0.5-0.5,0.8-0.7c0.3-0.2,0.5-0.5,0.8-0.7l0.1-0.1c0.4-0.4,0.9-0.8,1.4-1.1
			c0.2-0.1,0.4-0.2,0.6-0.2s0.3,0,0.4,0l0,0h0.1c0.1,0,0.3,0,0.4,0.1c0.4,0.1,0.7,0.2,1.1,0.2c0.3,0.1,0.7,0.2,1,0.2
			c0.4,0.1,0.7,0.2,1.1,0.2c0.3,0.1,0.5,0.1,0.8,0.1c0.1,0,0.2,0,0.2,0c0.2,0.1,0.4,0.1,0.6,0.1c0.1,0,0.3,0,0.4,0
			c0.2,0,0.4,0,0.5-0.1c0.1-0.1,0.2-0.3,0.2-0.5c0-0.5-0.2-0.9-0.3-1.3c-0.3-0.8-0.7-1.6-1.1-2.3c-0.2-0.3-0.3-0.6-0.5-1
			c-0.2-0.4-0.3-0.7-0.5-1.1c0-0.1,0-0.1-0.1-0.2c0,0,0,0,0-0.1v-0.1c-0.1-0.3,0-0.5,0.1-0.8l0,0c0.2-0.6,0.5-1.1,0.9-1.6
			c0.5-0.9,1-1.7,1.5-2.6c0,0,0.1-0.1,0-0.1c0.3-0.5,0.5-1,0.6-1.6c0-0.1,0-0.1-0.1-0.2C111.3-186.5,111.2-186.5,111-186.6z
			 M102.5-180.5L102.5-180.5L102.5-180.5L102.5-180.5z M102.1-180.1L102.1-180.1L102.1-180.1z M104.9-182.6
			C105-182.6,105-182.6,104.9-182.6C105-182.6,105-182.6,104.9-182.6z M99.3-172.1C99.3-172,99.3-172,99.3-172.1
			C99.3-172,99.3-172,99.3-172.1z M104.9-185.6L104.9-185.6L104.9-185.6L104.9-185.6z M94.9-178.3L94.9-178.3L94.9-178.3L94.9-178.3
			z"/>
	</g>
	<g>
		
			<linearGradient id="SVGID_19_" gradientUnits="userSpaceOnUse" x1="223.4108" y1="280.0181" x2="233.7416" y2="269.6873" gradientTransform="matrix(0.9644 -0.2645 -0.2645 -0.9644 27.9675 165.1811)">
			<stop  offset="0" style="stop-color:#FED634"/>
			<stop  offset="0.1999" style="stop-color:#FCD234"/>
			<stop  offset="0.4125" style="stop-color:#F5C534"/>
			<stop  offset="0.631" style="stop-color:#EAB034"/>
			<stop  offset="0.8522" style="stop-color:#DA9233"/>
			<stop  offset="1" style="stop-color:#CD7A33"/>
		</linearGradient>
		<path class="st33" d="M181.8-165.3c-0.3-0.1-0.7-0.1-1,0c-0.2,0-0.4,0-0.6,0c-0.5,0.1-0.9,0.1-1.4,0.2c-0.3,0-0.6,0.1-0.9,0.1
			c-0.1,0-0.3,0-0.4,0c-0.2,0-0.4-0.1-0.6-0.2c-0.2-0.2-0.3-0.3-0.5-0.5l0,0c-0.2-0.3-0.5-0.5-0.7-0.8c-0.4-0.5-0.9-1-1.3-1.5
			c-0.2-0.2-0.4-0.4-0.7-0.5h-0.1c-0.1,0.1-0.2,0.2-0.3,0.4c-0.1,0.3-0.2,0.6-0.3,0.9c-0.2,0.6-0.3,1.2-0.4,1.9
			c-0.1,0.4-0.2,0.8-0.3,1.3c-0.1,0.2-0.2,0.4-0.4,0.6c-0.2,0.1-0.4,0.2-0.6,0.3c-0.6,0.3-1.3,0.5-1.9,0.8c-0.4,0.2-0.8,0.4-1.2,0.6
			c-0.2,0.1-0.3,0.2-0.4,0.4c0,0,0,0,0,0.1c0,0.1,0,0.1,0.1,0.2c0.1,0.1,0.2,0.2,0.3,0.3c0.2,0.1,0.4,0.3,0.5,0.4
			c0.3,0.2,0.7,0.4,1,0.6c0.1,0.1,0.2,0.1,0.3,0.1l0,0l0,0c0.5,0.3,1.1,0.6,1.6,0.9c0,0,0.1,0,0.1,0.1c0.1,0.1,0.2,0.2,0.2,0.3
			c0,0.1,0.1,0.2,0.1,0.2c0.1,0.2,0.1,0.5,0.1,0.7s0,0.4,0.1,0.7l0,0c0,0.1,0,0.2,0,0.4v0.1c0,0.4,0.1,0.8,0.1,1.2v0.1l0,0l0,0v0.1
			c0,0.1,0,0.1,0,0.2c0,0.1,0.1,0.3,0.1,0.4c0,0.1,0,0.2,0.1,0.2v0.1l0,0v0.1c0.1,0.3,0.3,0.4,0.6,0.2c0.1-0.1,0.3-0.2,0.4-0.2
			c0.1-0.1,0.2-0.1,0.3-0.2l0,0l0,0c0.1,0,0.1-0.1,0.2-0.1c0.1-0.1,0.2-0.2,0.3-0.3c0.2-0.2,0.4-0.3,0.6-0.5
			c0.2-0.2,0.3-0.3,0.5-0.5l0.1-0.1c0.3-0.3,0.6-0.6,0.9-0.8c0.1-0.1,0.3-0.1,0.4-0.1c0.1,0,0.2,0,0.3,0l0,0c0,0,0,0,0.1,0
			s0.2,0,0.3,0.1c0.3,0,0.5,0.1,0.8,0.2c0.2,0,0.4,0.1,0.7,0.2c0.3,0.1,0.5,0.1,0.8,0.2c0.2,0,0.4,0.1,0.5,0.1s0.1,0,0.2,0
			c0.1,0,0.3,0.1,0.4,0c0.1,0,0.2,0,0.3,0s0.2,0,0.3-0.1c0.1-0.1,0.1-0.2,0.1-0.3c0-0.3-0.1-0.6-0.2-0.9c-0.2-0.5-0.5-1.1-0.7-1.6
			c-0.1-0.2-0.2-0.4-0.3-0.7c-0.1-0.2-0.2-0.5-0.3-0.7v-0.1l0,0c0,0,0,0,0-0.1c-0.1-0.2,0-0.4,0-0.5l0,0c0.2-0.4,0.4-0.7,0.6-1.1
			c0.3-0.6,0.7-1.2,1-1.8v-0.1c0.2-0.3,0.4-0.7,0.4-1.1v-0.1C182.1-165.3,182-165.3,181.8-165.3z M176-161.2L176-161.2L176-161.2
			L176-161.2z M175.7-160.9L175.7-160.9L175.7-160.9z M177.7-162.6C177.7-162.7,177.7-162.7,177.7-162.6
			C177.7-162.7,177.7-162.7,177.7-162.6z M173.8-155.4L173.8-155.4L173.8-155.4z M177.7-164.7L177.7-164.7L177.7-164.7L177.7-164.7z
			 M170.8-159.7L170.8-159.7L170.8-159.7L170.8-159.7z"/>
	</g>
	<g>
		
			<linearGradient id="SVGID_20_" gradientUnits="userSpaceOnUse" x1="233.1929" y1="264.7575" x2="242.0903" y2="255.8602" gradientTransform="matrix(0.9644 -0.2645 -0.2645 -0.9644 27.9675 165.1811)">
			<stop  offset="0" style="stop-color:#FED634"/>
			<stop  offset="0.1999" style="stop-color:#FCD234"/>
			<stop  offset="0.4125" style="stop-color:#F5C534"/>
			<stop  offset="0.631" style="stop-color:#EAB034"/>
			<stop  offset="0.8522" style="stop-color:#DA9233"/>
			<stop  offset="1" style="stop-color:#CD7A33"/>
		</linearGradient>
		<path class="st34" d="M193.4-152.7c-0.3-0.1-0.6-0.1-0.9,0c-0.2,0-0.3,0-0.5,0c-0.4,0-0.8,0.1-1.2,0.1c-0.3,0-0.5,0.1-0.8,0.1
			c-0.1,0-0.2,0-0.4,0s-0.4-0.1-0.5-0.2c-0.1-0.1-0.3-0.3-0.4-0.4l0,0c-0.2-0.2-0.4-0.5-0.6-0.7c-0.4-0.4-0.7-0.9-1.2-1.3
			c-0.2-0.2-0.4-0.4-0.6-0.4h-0.1c-0.1,0.1-0.2,0.2-0.2,0.3c-0.1,0.2-0.2,0.5-0.2,0.7c-0.1,0.5-0.2,1.1-0.3,1.6
			c-0.1,0.4-0.1,0.7-0.2,1.1c-0.1,0.2-0.2,0.4-0.4,0.5c-0.2,0.1-0.3,0.2-0.5,0.2c-0.5,0.2-1.1,0.5-1.6,0.7c-0.3,0.2-0.7,0.3-1,0.5
			c-0.1,0.1-0.3,0.2-0.3,0.3c0,0,0,0,0,0.1c0,0.1,0,0.1,0,0.2c0.1,0.1,0.2,0.2,0.3,0.3c0.1,0.1,0.3,0.2,0.5,0.3
			c0.3,0.2,0.6,0.3,0.9,0.5c0.1,0,0.2,0.1,0.2,0.1l0,0l0,0c0.5,0.3,0.9,0.5,1.3,0.8c0,0,0,0,0.1,0.1c0.1,0.1,0.2,0.1,0.2,0.2
			c0,0.1,0.1,0.1,0.1,0.2c0,0.2,0.1,0.4,0.1,0.6s0,0.4,0.1,0.6l0,0c0,0.1,0,0.2,0,0.3c0,0,0,0,0,0.1c0,0.3,0.1,0.7,0.1,1v0.1l0,0
			l0,0c0,0,0,0,0,0.1c0,0.1,0,0.1,0,0.2c0,0.1,0,0.2,0.1,0.4c0,0.1,0,0.1,0.1,0.2v0.1l0,0v0.1c0.1,0.3,0.2,0.3,0.5,0.2
			c0.1-0.1,0.2-0.1,0.3-0.2c0.1,0,0.2-0.1,0.3-0.2l0,0l0,0c0.1,0,0.1-0.1,0.2-0.1c0.1-0.1,0.2-0.2,0.3-0.3c0.2-0.1,0.3-0.3,0.5-0.4
			c0.2-0.1,0.3-0.3,0.5-0.4l0.1-0.1c0.3-0.2,0.5-0.5,0.8-0.7c0.1-0.1,0.2-0.1,0.4-0.1c0.1,0,0.2,0,0.3,0l0,0c0,0,0,0,0.1,0
			s0.2,0,0.2,0c0.2,0,0.4,0.1,0.7,0.1c0.2,0,0.4,0.1,0.6,0.1c0.2,0,0.4,0.1,0.7,0.1c0.2,0,0.3,0.1,0.5,0.1h0.1c0.1,0,0.2,0,0.3,0
			s0.2,0,0.2,0c0.1,0,0.2,0,0.3-0.1c0.1-0.1,0.1-0.2,0.1-0.3c0-0.3-0.1-0.5-0.2-0.8c-0.2-0.5-0.4-0.9-0.6-1.4
			c-0.1-0.2-0.2-0.4-0.3-0.6c-0.1-0.2-0.2-0.4-0.3-0.6v-0.1l0,0c0,0,0,0,0-0.1c-0.1-0.2,0-0.3,0-0.5l0,0c0.1-0.3,0.3-0.6,0.5-0.9
			c0.3-0.5,0.6-1,0.9-1.5c0,0,0,0,0-0.1c0.2-0.3,0.3-0.6,0.3-0.9v-0.1C193.6-152.7,193.5-152.7,193.4-152.7z M188.4-149.2
			L188.4-149.2L188.4-149.2L188.4-149.2z M188.1-148.9L188.1-148.9L188.1-148.9z M189.8-150.4L189.8-150.4L189.8-150.4z
			 M186.5-144.2L186.5-144.2L186.5-144.2z M189.8-152.2L189.8-152.2L189.8-152.2L189.8-152.2z M183.9-147.9L183.9-147.9L183.9-147.9
			L183.9-147.9z"/>
	</g>
	<g>
		<linearGradient id="SVGID_21_" gradientUnits="userSpaceOnUse" x1="99.0375" y1="-145.7092" x2="151.1165" y2="-93.6302">
			<stop  offset="0" style="stop-color:#FEEED7"/>
			<stop  offset="1" style="stop-color:#EEDCC3"/>
		</linearGradient>
		<path class="st35" d="M157.5-139.4c0,0.3,0,0.6,0,0.9c0,11.6,0,23.1,0,34.7c0,0.5,0,1,0,1.5c-0.5,3.8-3.4,6.4-7.2,6.4
			c-16.8,0-33.5,0-50.3,0c-3.1,0-5.3-1.5-6.8-4.2c-0.4-0.7-0.3-1.4-0.5-2.1c0-0.8,0-1.5,0-2.3c0-11.3,0-22.6,0-33.9
			c0-0.3,0-0.6,0-0.9c0.2-0.3,0.5-0.3,0.8-0.3c0.3,0,0.6,0,0.9,0c20.4,0,40.8,0,61.2,0C156.3-139.7,156.9-139.8,157.5-139.4z"/>
		<path class="st20" d="M107.1-161c12,0,24,0,36,0c0.3,0.1,0.3,0.4,0.3,0.6c0,2.2,0.1,4.5-0.1,6.7c-0.2,0.4-0.4,0.4-0.5,0
			c-0.2-0.4,0-0.9-0.1-1.3c-1.7,1.7-1.4,4.8,0.2,6.5c2,2.1,5.2,2.2,7.3,0.3c2.1-2,1.9-5.3,0.5-6.8c-0.1,0.4,0,0.9-0.1,1.3
			c-0.1,0.3-0.3,0.6-0.5,0.1c-0.2-1.4-0.1-2.8-0.1-4.2c0-0.8,0-1.5,0-2.3c0-0.4,0-0.7,0.4-1c3.8-0.2,7.3,3.4,7.2,7.2
			c-0.1,3.6,0,7.1,0,10.7c-0.4,0.4-1,0.2-1.5,0.2c-17.7,0-35.4,0-53.1,0c-3,0-6.1,0-9.1,0c-0.4,0-0.8,0.1-1.1-0.2
			c0-3.8-0.1-7.6,0-11.5c0.1-3.5,3.4-6.4,7.2-6.4c0.3,0.1,0.3,0.4,0.3,0.6c0,2.2,0.1,4.5-0.1,6.7c-0.2,0.4-0.4,0.4-0.5,0
			c-0.2-0.4,0-0.9-0.1-1.4c-1.7,1.7-1.4,4.8,0.2,6.5c2,2.1,5.2,2.2,7.3,0.3c2.1-2,1.9-5.3,0.5-6.8c-0.1,0.4,0,0.9-0.1,1.3
			c-0.1,0.3-0.3,0.6-0.5,0.1c-0.2-1.4-0.1-2.8-0.1-4.2c0-0.8,0-1.5,0-2.3C106.7-160.4,106.7-160.8,107.1-161z"/>
		<path class="st13" d="M92.7-102.2c0.4,1.7,1.1,3.1,2.5,4.3c1.3,1.1,2.7,1.8,4.4,1.8c17,0,34.1,0,51.1,0c2.9,0,5.8-2.4,6.5-5.1
			c0.1-0.3,0.2-0.6,0.3-1c0,1.5,0.2,3.1-0.3,4.6c-0.9,2.9-3.5,4.9-6.6,5c-1.1,0-2.1,0-3.2,0c-15.7,0-31.4,0-47.2,0
			c-3.6,0-6.4-2-7.3-5.3C92.5-99.3,92.7-100.8,92.7-102.2z"/>
		<path class="st21" d="M157.5-139.4c-21.6,0-43.2,0-64.8,0c0-1.2,0-2.4,0-3.6c0.3-0.1,0.6-0.1,0.9-0.1c21,0,42,0,62.9,0
			c0.3,0,0.6-0.1,0.9,0.1C157.5-141.7,157.5-140.6,157.5-139.4z"/>
		<path class="st36" d="M107.1-161c0,2.5,0,5,0,7.6c0.2,0.4,0.1,0.7,0,1c-0.6,1.5-2,2.5-3.6,2.4c-1.6,0-3.1-1.1-3.6-2.6
			c-0.1-0.3-0.2-0.6,0-0.9c0-2.5,0-5,0-7.6c0-1.1,0-2.3,0-3.4c0-2.2,1.5-3.7,3.6-3.8c2,0,3.6,1.6,3.6,3.8
			C107.1-163.3,107.1-162.1,107.1-161z"/>
		<path class="st36" d="M143.1-153.4c0-2.5,0-5,0-7.6c0-1.2,0-2.4,0-3.5c0-2.2,1.5-3.7,3.6-3.7c2.1,0,3.5,1.5,3.5,3.7
			c0,1.2,0,2.4,0,3.5c0,2.5,0,5.1,0,7.6c0.2,0.2,0.1,0.4,0.1,0.6c-0.3,1.5-2,2.8-3.7,2.8c-1.6,0-3.4-1.3-3.7-2.8
			C143-153,142.9-153.2,143.1-153.4z"/>
		<g>
			<path class="st37" d="M99.9-128.6c0,1,0,2,0,3c0,0.4,0.1,0.6,0.6,0.6c2,0,3.9,0,5.9,0c0.5,0,0.6-0.2,0.6-0.7c0-1.9,0-3.9,0-5.8
				c0-0.5-0.1-0.7-0.6-0.7c-1.9,0-3.9,0-5.8,0c-0.5,0-0.7,0.2-0.7,0.7C99.9-130.5,99.9-129.5,99.9-128.6z"/>
			<path class="st37" d="M111.4-125c1.9,0,3.9,0,5.8,0c0.5,0,0.7-0.1,0.6-0.6c0-1.9,0-3.9,0-5.8c0-0.5-0.2-0.7-0.7-0.7
				c-0.9,0-1.9,0-2.8,0c-1,0-2,0-3,0c-0.4,0-0.6,0.1-0.6,0.6c0,2,0,3.9,0,5.9C110.7-125.1,110.9-125,111.4-125z"/>
			<path class="st37" d="M122.1-125c2,0,3.9,0,5.9,0c0.4,0,0.6-0.2,0.6-0.6c0-1,0-2,0-3c0-1,0-2,0-3c0-0.4-0.1-0.6-0.6-0.6
				c-2,0-4,0-6,0c-0.4,0-0.5,0.2-0.5,0.6c0,2,0,4,0,6C121.5-125.1,121.7-125,122.1-125z"/>
			<path class="st37" d="M133-125c1.9,0,3.9,0,5.8,0c0.5,0,0.7-0.2,0.6-0.6c0-1.9,0-3.9,0-5.8c0-0.5-0.2-0.7-0.7-0.7
				c-0.9,0-1.9,0-2.8,0c-1,0-2,0-3,0c-0.5,0-0.7,0.2-0.7,0.7c0,1.9,0,3.8,0,5.7C132.3-125.2,132.4-125,133-125z"/>
			<path class="st37" d="M143.7-125c2,0,3.9,0,5.9,0c0.4,0,0.6-0.2,0.6-0.6c0-1,0-2,0-3c0-1,0-1.9,0-2.9c0-0.5-0.1-0.7-0.7-0.7
				c-1.9,0-3.9,0-5.8,0c-0.5,0-0.6,0.2-0.6,0.6c0,1.9,0,3.9,0,5.8C143.1-125.2,143.3-125,143.7-125z"/>
			<path class="st37" d="M100.6-114.2c1.9,0,3.9,0,5.8,0c0.5,0,0.6-0.2,0.6-0.6c0-1.9,0-3.9,0-5.8c0-0.5-0.2-0.7-0.7-0.7
				c-1,0-1.9,0-2.9,0c-1,0-1.9,0-2.9,0c-0.5,0-0.7,0.2-0.7,0.7c0,1.9,0,3.8,0,5.7C99.9-114.4,100-114.2,100.6-114.2z"/>
			<path class="st37" d="M117.2-121.3c-1.9,0-3.9,0-5.8,0c-0.5,0-0.7,0.1-0.7,0.6c0,2,0,3.9,0,5.9c0,0.4,0.2,0.6,0.6,0.6
				c1,0,2,0,3,0c1,0,1.9,0,2.9,0c0.5,0,0.7-0.1,0.7-0.7c0-1.9,0-3.9,0-5.8C117.8-121.2,117.7-121.3,117.2-121.3z"/>
			<path class="st37" d="M128-121.3c-1.9,0-3.8,0-5.7,0c-0.5,0-0.7,0.1-0.7,0.7c0,1.9,0,3.9,0,5.8c0,0.5,0.2,0.7,0.6,0.6
				c1,0,2,0,3,0c0.9,0,1.9,0,2.8,0c0.5,0,0.8-0.1,0.8-0.7c0-1.9,0-3.8,0-5.7C128.6-121.1,128.5-121.3,128-121.3z"/>
			<path class="st37" d="M132.3-114.8c0,0.4,0.1,0.6,0.6,0.6c2,0,3.9,0,5.9,0c0.5,0,0.6-0.2,0.6-0.7c0-1.9,0-3.9,0-5.8
				c0-0.5-0.1-0.7-0.6-0.7c-1.9,0-3.9,0-5.8,0c-0.5,0-0.7,0.2-0.7,0.7c0,1,0,1.9,0,2.9C132.3-116.8,132.3-115.8,132.3-114.8z"/>
			<path class="st37" d="M149.6-121.3c-1.9,0-3.9,0-5.8,0c-0.5,0-0.7,0.2-0.7,0.7c0,1,0,1.9,0,2.9c0,1,0,2,0,3
				c0,0.4,0.1,0.6,0.6,0.6c2,0,3.9,0,5.9,0c0.5,0,0.6-0.2,0.6-0.7c0-1.9,0-3.9,0-5.8C150.3-121.1,150.1-121.3,149.6-121.3z"/>
			<path class="st37" d="M106.4-110.5c-1.9,0-3.9,0-5.8,0c-0.5,0-0.7,0.2-0.7,0.7c0,0.9,0,1.9,0,2.8c0,1,0,2,0,3
				c0,0.5,0.2,0.7,0.7,0.7c1.9,0,3.8,0,5.7,0c0.5,0,0.7-0.1,0.7-0.7c0-1.9,0-3.9,0-5.8C107-110.3,106.9-110.5,106.4-110.5z"/>
			<path class="st37" d="M117.8-107c0-1,0-1.9,0-2.9c0-0.4-0.1-0.7-0.6-0.7c-2,0-3.9,0-5.9,0c-0.4,0-0.6,0.1-0.6,0.6
				c0,2,0,3.9,0,5.9c0,0.5,0.2,0.6,0.7,0.6c1.9,0,3.9,0,5.8,0c0.5,0,0.7-0.2,0.7-0.7C117.8-105.1,117.8-106,117.8-107z"/>
			<path class="st37" d="M128-110.5c-1.9,0-3.8,0-5.7,0c-0.5,0-0.7,0.1-0.7,0.7c0,1.9,0,3.9,0,5.8c0,0.5,0.2,0.7,0.6,0.6
				c1.9,0,3.9,0,5.8,0c0.5,0,0.7-0.2,0.7-0.7c0-1,0-1.9,0-2.9s0-1.9,0-2.9C128.7-110.3,128.5-110.5,128-110.5z"/>
			<path class="st37" d="M138.8-110.5c-1.9,0-3.9,0-5.8,0c-0.5,0-0.7,0.2-0.7,0.7c0,0.9,0,1.9,0,2.8c0,1,0,2,0,3
				c0,0.5,0.2,0.7,0.7,0.7c1.9,0,3.8,0,5.7,0c0.5,0,0.7-0.1,0.7-0.7c0-1.9,0-3.9,0-5.8C139.4-110.3,139.3-110.5,138.8-110.5z"/>
			<path class="st37" d="M149.6-110.5c-1.9,0-3.9,0-5.8,0c-0.5,0-0.7,0.2-0.7,0.7c0,1,0,1.9,0,2.9c0,1,0,2,0,3
				c0,0.4,0.1,0.6,0.6,0.6c2,0,3.9,0,5.9,0c0.5,0,0.6-0.2,0.6-0.7c0-1.9,0-3.9,0-5.8C150.3-110.3,150.1-110.5,149.6-110.5z"/>
		</g>
		<path class="st21" d="M143.1-153.4c0.4,2,1.8,3.2,3.5,3.2c1.8,0,3.2-1.2,3.6-3.2c0.3-0.7,0-1.4,0.2-2.2c1.1,0.5,1.9,2.7,1.6,4.3
			c-0.4,2.4-2.4,4.4-4.6,4.6c-2.6,0.2-5-1.1-5.8-3.4c-0.8-2.1-0.2-4.6,1.3-5.6C143.1-154.9,142.8-154.1,143.1-153.4z"/>
		<path class="st21" d="M99.9-153.4c0.4,2,1.8,3.2,3.6,3.2c1.8,0,3.2-1.2,3.6-3.2c0.3-0.7,0-1.4,0.2-2.2c1.1,0.5,1.9,2.7,1.6,4.3
			c-0.4,2.4-2.4,4.4-4.6,4.6c-2.6,0.2-5-1.1-5.8-3.4c-0.8-2.1-0.2-4.6,1.3-5.6C99.9-154.9,99.6-154.1,99.9-153.4z"/>
	</g>
</g>
<g>
	<g>
		
			<linearGradient id="XMLID_12_" gradientUnits="userSpaceOnUse" x1="570.2943" y1="21.0269" x2="592.7825" y2="-106.5104" gradientTransform="matrix(1 0 0 -1 -277.5 -96)">
			<stop  offset="0" style="stop-color:#165FD3"/>
			<stop  offset="0.6343" style="stop-color:#4496EF"/>
			<stop  offset="1" style="stop-color:#5BB1FC"/>
		</linearGradient>
		<path id="XMLID_5_" class="st38" d="M257-109c0,0-26.4,15.4-22.1,54.2c2.7,20,19.8,55.1,56,63.4c18.8,2.9,53.7,3.9,77.5-28.3
			c8-13.5,16.6-50.7-36.5-57.8c-20.9-2.9-42.5-1.7-56.5-13.7C267.9-100.1,269.6-112.5,257-109z"/>
	</g>
	<g>
		<defs>
			<path id="SVGID_22_" d="M257-109c0,0-26.4,15.4-22.1,54.2c2.7,20,19.8,55.1,56,63.4c18.8,2.9,53.7,3.9,77.5-28.3
				c8-13.5,16.6-50.7-36.5-57.8c-20.9-2.9-42.5-1.7-56.5-13.7C267.9-100.1,269.6-112.5,257-109z"/>
		</defs>
		<clipPath id="SVGID_23_">
			<use xlink:href="#SVGID_22_"  style="overflow:visible;"/>
		</clipPath>
		
			<linearGradient id="SVGID_24_" gradientUnits="userSpaceOnUse" x1="538.5334" y1="17.2743" x2="634.314" y2="-96.8724" gradientTransform="matrix(1 0 0 -1 -277.5 -96)">
			<stop  offset="0" style="stop-color:#054AC9"/>
			<stop  offset="0.2918" style="stop-color:#2C76D9"/>
			<stop  offset="0.7741" style="stop-color:#67BBF2"/>
			<stop  offset="1" style="stop-color:#7FD6FC"/>
		</linearGradient>
		<path class="st39" d="M262.6-112.3c0,0-1,37.8,28.3,43.6c29.3,5.8,65.9,43.1,26.7,80.4s46.1-17.5,46.1-17.5l13.9-22.4l0.3-12
			L374.4-59l-8.2-11.2c0,0-19.1-6.3-21.1-7.9c-1.9-1.6-20.4-7.2-20.4-7.2s-21.9-4.2-22.8-4.2c-0.9,0-21-13-21-13L262.6-112.3z"/>
	</g>
</g>
<g>
	
		<linearGradient id="SVGID_25_" gradientUnits="userSpaceOnUse" x1="509.8551" y1="-116.3138" x2="524.9555" y2="-131.4143" gradientTransform="matrix(0.9644 -0.2645 -0.2645 -0.9644 -249.5325 -70.8189)">
		<stop  offset="0" style="stop-color:#FED634"/>
		<stop  offset="0.1999" style="stop-color:#FCD234"/>
		<stop  offset="0.4125" style="stop-color:#F5C534"/>
		<stop  offset="0.631" style="stop-color:#EAB034"/>
		<stop  offset="0.8522" style="stop-color:#DA9233"/>
		<stop  offset="1" style="stop-color:#CD7A33"/>
	</linearGradient>
	<path class="st40" d="M291.1-95.5c-0.5-0.1-1-0.1-1.4,0c-0.3,0-0.6,0-0.9,0.1c-0.7,0.1-1.4,0.2-2,0.3c-0.5,0.1-0.9,0.1-1.4,0.2
		c-0.2,0-0.4,0-0.6,0c-0.3,0-0.6-0.1-0.9-0.3c-0.3-0.2-0.5-0.5-0.7-0.7l0,0c-0.3-0.4-0.7-0.8-1-1.2c-0.6-0.7-1.3-1.5-2-2.1
		c-0.3-0.3-0.6-0.6-1.1-0.7c-0.1,0-0.1,0-0.2,0c-0.2,0.1-0.3,0.3-0.4,0.5c-0.2,0.4-0.3,0.8-0.4,1.3c-0.2,0.9-0.4,1.8-0.6,2.7
		c-0.1,0.6-0.2,1.2-0.4,1.8c-0.1,0.4-0.3,0.6-0.6,0.8c-0.3,0.1-0.5,0.3-0.8,0.4c-0.9,0.4-1.8,0.8-2.8,1.2c-0.6,0.3-1.2,0.5-1.7,0.9
		c-0.2,0.2-0.5,0.3-0.6,0.6c-0.1,0,0,0.1,0,0.1c0,0.1,0,0.2,0.1,0.3c0.1,0.2,0.3,0.3,0.4,0.5c0.2,0.2,0.5,0.4,0.8,0.6
		c0.5,0.3,1,0.6,1.5,0.9c0.1,0.1,0.3,0.2,0.4,0.2l0,0l0,0c0.8,0.4,1.6,0.8,2.3,1.3l0.1,0.1c0.1,0.1,0.3,0.2,0.3,0.4
		c0.1,0.1,0.1,0.2,0.1,0.4c0.1,0.4,0.1,0.7,0.2,1.1c0,0.3,0,0.6,0.1,1l0,0c0,0.2,0,0.4,0,0.5v0.1c0,0.6,0.1,1.1,0.2,1.7
		c0,0.1,0,0.1,0.1,0.2l0,0l0,0v0.1c0,0.1,0,0.2,0,0.3c0,0.2,0.1,0.4,0.1,0.6c0,0.1,0,0.2,0.1,0.3c0,0.1,0,0.1,0.1,0.2l0,0v0.1
		c0.2,0.4,0.4,0.5,0.9,0.3c0.2-0.1,0.4-0.2,0.6-0.3c0.2-0.1,0.3-0.2,0.5-0.3l0,0l0,0c0.1-0.1,0.2-0.1,0.3-0.2
		c0.2-0.1,0.3-0.3,0.5-0.4c0.3-0.2,0.5-0.5,0.8-0.7c0.3-0.2,0.5-0.5,0.8-0.7l0.1-0.1c0.4-0.4,0.9-0.8,1.4-1.1
		c0.2-0.1,0.4-0.2,0.6-0.2c0.2,0,0.3,0,0.4,0l0,0h0.1c0.1,0,0.3,0,0.4,0.1c0.4,0.1,0.7,0.2,1.1,0.2c0.3,0.1,0.7,0.2,1,0.2
		c0.4,0.1,0.7,0.2,1.1,0.2c0.3,0.1,0.5,0.1,0.8,0.1c0.1,0,0.2,0,0.2,0c0.2,0.1,0.4,0.1,0.6,0.1c0.1,0,0.3,0,0.4,0
		c0.2,0,0.4,0,0.5-0.1s0.2-0.3,0.2-0.5c0-0.5-0.2-0.9-0.3-1.3c-0.3-0.8-0.7-1.6-1.1-2.3c-0.2-0.3-0.3-0.6-0.5-1
		c-0.2-0.4-0.3-0.7-0.5-1.1c0-0.1,0-0.1-0.1-0.2c0,0,0,0,0-0.1v-0.1c-0.1-0.3,0-0.5,0.1-0.8l0,0c0.2-0.6,0.5-1.1,0.9-1.6
		c0.5-0.9,1-1.7,1.5-2.6c0,0,0.1-0.1,0-0.1c0.3-0.5,0.5-1,0.6-1.6c0-0.1,0-0.1-0.1-0.2C291.4-95.4,291.3-95.4,291.1-95.5z
		 M282.6-89.4L282.6-89.4L282.6-89.4L282.6-89.4z M282.2-89L282.2-89L282.2-89z M285-91.5C285.1-91.5,285.1-91.5,285-91.5
		C285.1-91.5,285.1-91.5,285-91.5z M279.4-81C279.4-80.9,279.4-80.9,279.4-81C279.4-80.9,279.4-80.9,279.4-81z M285-94.5L285-94.5
		L285-94.5L285-94.5z M275-87.2L275-87.2L275-87.2L275-87.2z"/>
</g>
<g>
	
		<linearGradient id="SVGID_26_" gradientUnits="userSpaceOnUse" x1="578.2109" y1="-156.4751" x2="588.5417" y2="-166.8059" gradientTransform="matrix(0.9644 -0.2645 -0.2645 -0.9644 -249.5325 -70.8189)">
		<stop  offset="0" style="stop-color:#FED634"/>
		<stop  offset="0.1999" style="stop-color:#FCD234"/>
		<stop  offset="0.4125" style="stop-color:#F5C534"/>
		<stop  offset="0.631" style="stop-color:#EAB034"/>
		<stop  offset="0.8522" style="stop-color:#DA9233"/>
		<stop  offset="1" style="stop-color:#CD7A33"/>
	</linearGradient>
	<path class="st41" d="M361.9-74.2c-0.3-0.1-0.7-0.1-1,0c-0.2,0-0.4,0-0.6,0c-0.5,0.1-0.9,0.1-1.4,0.2c-0.3,0-0.6,0.1-0.9,0.1
		c-0.1,0-0.3,0-0.4,0c-0.2,0-0.4-0.1-0.6-0.2c-0.2-0.2-0.3-0.3-0.5-0.5l0,0c-0.2-0.3-0.5-0.5-0.7-0.8c-0.4-0.5-0.9-1-1.3-1.5
		c-0.2-0.2-0.4-0.4-0.7-0.5h-0.1c-0.1,0.1-0.2,0.2-0.3,0.4c-0.1,0.3-0.2,0.6-0.3,0.9c-0.2,0.6-0.3,1.2-0.4,1.9
		c-0.1,0.4-0.2,0.8-0.3,1.3c-0.1,0.2-0.2,0.4-0.4,0.6c-0.2,0.1-0.4,0.2-0.6,0.3c-0.6,0.3-1.3,0.5-1.9,0.8c-0.4,0.2-0.8,0.4-1.2,0.6
		c-0.2,0.1-0.3,0.2-0.4,0.4c0,0,0,0,0,0.1s0,0.1,0.1,0.2s0.2,0.2,0.3,0.3c0.2,0.1,0.4,0.3,0.5,0.4c0.3,0.2,0.7,0.4,1,0.6
		c0.1,0.1,0.2,0.1,0.3,0.1l0,0l0,0c0.5,0.3,1.1,0.6,1.6,0.9c0,0,0.1,0,0.1,0.1c0.1,0.1,0.2,0.2,0.2,0.3s0.1,0.2,0.1,0.2
		c0.1,0.2,0.1,0.5,0.1,0.7c0,0.2,0,0.4,0.1,0.7l0,0c0,0.1,0,0.2,0,0.4v0.1c0,0.4,0.1,0.8,0.1,1.2v0.1l0,0l0,0v0.1c0,0.1,0,0.1,0,0.2
		c0,0.1,0.1,0.3,0.1,0.4c0,0.1,0,0.2,0.1,0.2v0.1l0,0v0.1c0.1,0.3,0.3,0.4,0.6,0.2c0.1-0.1,0.3-0.2,0.4-0.2c0.1-0.1,0.2-0.1,0.3-0.2
		l0,0l0,0c0.1,0,0.1-0.1,0.2-0.1c0.1-0.1,0.2-0.2,0.3-0.3c0.2-0.2,0.4-0.3,0.6-0.5c0.2-0.2,0.3-0.3,0.5-0.5l0.1-0.1
		c0.3-0.3,0.6-0.6,0.9-0.8c0.1-0.1,0.3-0.1,0.4-0.1s0.2,0,0.3,0l0,0c0,0,0,0,0.1,0s0.2,0,0.3,0.1c0.3,0,0.5,0.1,0.8,0.2
		c0.2,0,0.4,0.1,0.7,0.2c0.3,0.1,0.5,0.1,0.8,0.2c0.2,0,0.4,0.1,0.5,0.1s0.1,0,0.2,0s0.3,0.1,0.4,0c0.1,0,0.2,0,0.3,0s0.2,0,0.3-0.1
		s0.1-0.2,0.1-0.3c0-0.3-0.1-0.6-0.2-0.9c-0.2-0.5-0.5-1.1-0.7-1.6c-0.1-0.2-0.2-0.4-0.3-0.7c-0.1-0.2-0.2-0.5-0.3-0.7v-0.1l0,0
		c0,0,0,0,0-0.1c-0.1-0.2,0-0.4,0-0.5l0,0c0.2-0.4,0.4-0.7,0.6-1.1c0.3-0.6,0.7-1.2,1-1.8v-0.1c0.2-0.3,0.4-0.7,0.4-1.1v-0.1
		C362.2-74.2,362.1-74.2,361.9-74.2z M356.1-70.1L356.1-70.1L356.1-70.1L356.1-70.1z M355.8-69.8L355.8-69.8L355.8-69.8z
		 M357.8-71.5C357.8-71.6,357.8-71.6,357.8-71.5C357.8-71.6,357.8-71.6,357.8-71.5z M353.9-64.3L353.9-64.3L353.9-64.3z M357.8-73.6
		L357.8-73.6L357.8-73.6L357.8-73.6z M350.9-68.6L350.9-68.6L350.9-68.6L350.9-68.6z"/>
</g>
<g>
	<path class="st20" d="M310.3-1.7c-1.7,0-3.3,0-5,0c-0.2,0-0.5-0.1-0.7-0.1c-2-0.4-4.1-0.6-6.1-1.1c-14.4-3.9-25-16.3-27.4-31.3
		c-0.2-1.6-0.4-3.1-0.6-4.7c0-1.2,0-2.4,0-3.6c0-0.2,0.1-0.4,0.1-0.7c0.4-5.8,1.8-11.4,4.6-16.5c5.5-10.1,13.8-16.8,25.1-19.4
		c1.5-0.3,3.1-0.5,4.6-0.8c1.5,0,3,0,4.4,0c0.2,0,0.5,0.1,0.7,0.1c2,0.3,4.1,0.5,6.1,0.9c15.2,3.7,25.8,16.9,28,31.4
		c0.2,1.5,0.4,3,0.6,4.6c0,1.3,0,2.7,0,4c-0.1,0.5-0.1,1-0.2,1.5c-0.8,8.8-4,16.6-9.8,23.2C329.1-7.9,322.3-3.9,314-2.4
		C312.9-2,311.6-1.8,310.3-1.7z M341.5-42.5c-0.5-7.5-2.8-14.3-7.4-20.5c-2.5,2.7-5.4,4.3-8.8,5.6c1.2,4.9,2,9.8,2,14.8
		C332.1-42.5,336.7-42.5,341.5-42.5z M327.4-38.9c-0.3,2.3-0.5,4.5-0.8,6.7c-0.3,2.2-0.8,4.4-1.2,6.6c-0.2,0.7,0,1,0.6,1.3
		c2.8,1.3,5.5,2.8,7.9,4.8c0.2,0.2,0.4,0.3,0.6,0.4c4.3-6,6.5-12.6,7-19.9C336.7-38.9,332.1-38.9,327.4-38.9z M287.3-42.4
		c0-0.2,0.1-0.2,0.1-0.3c0.2-4.8,0.8-9.5,2-14.1c0.1-0.5-0.1-0.7-0.5-0.9c-1.3-0.5-2.6-1-3.9-1.7c-1.4-0.7-2.8-1.6-4.3-2.5
		c-4.1,5.8-6.1,12.4-6.7,19.5C278.6-42.4,282.9-42.4,287.3-42.4z M280.6-19.6c2.7-2,5.7-3.4,8.7-4.7c0.5-0.2,0.3-0.5,0.2-0.8
		c-0.9-3.8-1.5-7.6-1.9-11.5c-0.1-0.8-0.2-1.5-0.3-2.3c-4.5,0-8.8,0-13.3,0C274.6-31.9,276.6-25.5,280.6-19.6z M291-42.5
		c4.9,0,9.9,0,14.9,0c0-4.2,0-8.3,0-12.5c-0.3,0-0.5,0-0.8,0c-3.9-0.1-7.7-0.6-11.5-1.4c-0.6-0.1-0.8,0-1,0.6
		c-0.8,3.2-1.4,6.4-1.6,9.7C290.9-44.9,291-43.7,291-42.5z M309.6-42.5c4.8,0,9.6,0,14.4,0c0-0.2,0-0.3,0-0.5
		c-0.2-4.1-0.7-8.1-1.7-12.1c-0.3-1.2-0.5-1.2-1.6-1c-1.7,0.3-3.4,0.6-5.1,0.8c-1.7,0.2-3.4,0.2-5,0.3c-0.7,0-0.9,0.3-0.9,1
		c0.1,2.6,0,5.1,0,7.7C309.6-45,309.6-43.8,309.6-42.5z M290.9-38.9c0,0.2,0,0.2,0,0.3c0.3,4.2,1,8.3,1.9,12.3
		c0.1,0.5,0.4,0.5,0.9,0.5c2.3-0.5,4.7-1,7-1.3c1.7-0.3,3.4-0.4,5.2-0.5c0-3.7,0-7.4,0-11.2C300.9-38.9,295.9-38.9,290.9-38.9z
		 M323.9-38.9c-4.8,0-9.6,0-14.3,0c0,3.8,0,7.5,0,11.3c0.6,0,1.2,0,1.7,0.1c3.2,0.2,6.4,0.6,9.5,1.5c0.9,0.3,1,0.3,1.2-0.7
		c0.5-2.6,0.9-5.2,1.4-7.8C323.7-36,323.8-37.4,323.9-38.9z M305.9-5.9c0-6.1,0-12.2,0-18.4c-2.3,0.3-4.5,0.5-6.7,0.9
		c-1.5,0.3-3,0.7-4.6,1c-0.5,0.1-0.7,0.4-0.5,0.9c0.3,0.8,0.6,1.7,1,2.5c1.6,3.9,3.7,7.5,6.9,10.5C303.2-7.5,304.4-6.6,305.9-5.9z
		 M309.7-6.3c0.7-0.5,1.3-0.8,1.8-1.3c4.8-3.7,7.3-8.8,9.1-14.3c0.2-0.5-0.1-0.7-0.5-0.8c-2.6-0.5-5.2-0.9-7.7-1.4
		c-0.9-0.1-1.8-0.1-2.7-0.2C309.7-18.2,309.7-12.4,309.7-6.3z M305.9-58.3c0-6.1,0-12,0-18c-0.5-0.1-0.7,0-0.5,0.5
		c0.3,0.7,0,1.1-0.6,1.4c-0.6,0.4-1.2,0.8-1.7,1.2c-4.1,3.4-6.9,7.8-8.9,12.7c0,0.1-0.1,0.3-0.2,0.5
		C297.9-58.8,301.9-58.6,305.9-58.3z M309.7-74.7c0,5.6,0,11,0,16.3c0.4,0,0.8,0,1.2,0c3-0.3,6-0.7,9-1c0.5-0.1,1-0.1,0.7-0.9
		c-1.9-4.8-4.6-9.1-8.5-12.5C311.4-73.4,310.5-74,309.7-74.7z M331.8-65.7c-4.4-4.8-14.3-10.4-17.5-9.8c0,0.1,0.1,0.1,0.1,0.2
		c2.9,2.6,5.2,5.6,7.1,9c0.9,1.7,1.7,3.4,2.4,5.2c0.2,0.5,0.5,0.7,1,0.4c1.4-0.8,2.9-1.5,4.3-2.4C330.3-63.8,331.2-64.6,331.8-65.7z
		 M315.3-6c6.7-1.6,12.3-5.1,16.9-10.2c-2.4-2.2-5.1-3.7-8-5.1C322.3-15.5,319.6-10.3,315.3-6z M283-64.8c2.3,1.9,4.9,3,7.7,4
		c2.1-5.6,5.2-10.5,9.5-14.6C293.3-73.6,287.6-70.2,283-64.8z M299.1-6.2c0-0.1,0.1-0.1,0.1-0.2c-0.2-0.2-0.4-0.5-0.6-0.7
		c-2.1-2.2-3.9-4.8-5.2-7.5c-0.9-1.9-1.7-3.9-2.5-5.8c-0.2-0.5-0.5-0.7-1-0.4c-2.1,1.1-4.3,2.2-6.4,3.4c-0.7,0.4-0.7,0.7-0.2,1.3
		c3.7,4,8,7.1,13.2,9.1C297.3-6.8,298.2-6.5,299.1-6.2z"/>
	<g>
		<defs>
			<path id="XMLID_6_" d="M306.5-1.5c-1.7,0-3.3,0-5,0c-0.2,0-0.4-0.1-0.7-0.1c-2-0.4-4.1-0.5-6.1-1.1
				c-14.4-3.9-24.9-16.2-27.2-31.1c-0.2-1.6-0.4-3.1-0.6-4.7c0-1.2,0-2.4,0-3.6c0-0.2,0.1-0.4,0.1-0.7c0.4-5.8,1.8-11.3,4.6-16.4
				c5.5-10.1,13.7-16.7,25-19.3c1.5-0.3,3.1-0.5,4.6-0.8c1.5,0,2.9,0,4.4,0c0.2,0,0.5,0.1,0.7,0.1c2,0.3,4.1,0.5,6,0.9
				c15.1,3.7,25.6,16.8,27.9,31.3c0.2,1.5,0.4,3,0.6,4.6c0,1.3,0,2.7,0,4c-0.1,0.5-0.1,1-0.2,1.5c-0.8,8.7-4,16.5-9.8,23.1
				C325.3-7.6,318.4-3.6,310.2-2C309.1-1.8,307.8-1.7,306.5-1.5z M337.5-42.1c-0.5-7.5-2.8-14.3-7.3-20.4c-2.4,2.7-5.4,4.3-8.8,5.6
				c1.2,4.8,2,9.7,2,14.8C328.2-42.1,332.8-42.1,337.5-42.1z M323.5-38.5c-0.3,2.3-0.5,4.5-0.8,6.7c-0.3,2.2-0.7,4.4-1.2,6.5
				c-0.2,0.7,0,1,0.6,1.3c2.8,1.3,5.5,2.8,7.8,4.8c0.2,0.2,0.4,0.3,0.6,0.4c4.2-6,6.5-12.5,6.9-19.8
				C332.8-38.5,328.2-38.5,323.5-38.5z M283.6-42.1c0-0.2,0.1-0.2,0.1-0.3c0.2-4.7,0.8-9.4,2-14c0.1-0.5-0.1-0.7-0.5-0.9
				c-1.3-0.5-2.6-1-3.8-1.6c-1.4-0.7-2.8-1.6-4.2-2.5c-4.1,5.8-6.1,12.3-6.7,19.4C274.9-42.1,279.2-42.1,283.6-42.1z M277-19.4
				c2.7-2,5.6-3.4,8.6-4.6c0.5-0.2,0.3-0.5,0.2-0.8c-0.9-3.8-1.5-7.6-1.9-11.4c-0.1-0.8-0.2-1.5-0.3-2.3c-4.5,0-8.8,0-13.2,0
				C271-31.6,272.9-25.2,277-19.4z M287.3-42.1c4.9,0,9.8,0,14.8,0c0-4.2,0-8.3,0-12.4c-0.3,0-0.5,0-0.8,0
				c-3.9-0.1-7.7-0.6-11.4-1.4c-0.6-0.1-0.8,0-1,0.6c-0.8,3.2-1.4,6.4-1.6,9.6C287.2-44.6,287.3-43.4,287.3-42.1z M305.8-42.1
				c4.8,0,9.5,0,14.3,0c0-0.2,0-0.3,0-0.5c-0.2-4.1-0.7-8.1-1.7-12c-0.3-1.2-0.5-1.2-1.6-1c-1.7,0.3-3.4,0.6-5.1,0.8
				c-1.7,0.2-3.3,0.2-5,0.3c-0.7,0-0.9,0.3-0.9,1c0.1,2.5,0,5.1,0,7.6C305.8-44.7,305.8-43.4,305.8-42.1z M287.2-38.5
				c0,0.2,0,0.2,0,0.3c0.3,4.1,1,8.2,1.9,12.3c0.1,0.5,0.4,0.5,0.9,0.5c2.3-0.5,4.7-1,7-1.3c1.7-0.3,3.4-0.4,5.2-0.5
				c0-3.7,0-7.4,0-11.2C297.1-38.5,292.2-38.5,287.2-38.5z M320.1-38.5c-4.8,0-9.5,0-14.2,0c0,3.8,0,7.4,0,11.2c0.6,0,1.2,0,1.7,0.1
				c3.2,0.2,6.4,0.6,9.5,1.5c0.9,0.3,1,0.3,1.2-0.7c0.5-2.6,0.9-5.2,1.3-7.8C319.8-35.7,319.9-37.1,320.1-38.5z M302.1-5.7
				c0-6.1,0-12.1,0-18.3c-2.3,0.3-4.5,0.5-6.7,0.9c-1.5,0.3-3,0.7-4.5,1c-0.5,0.1-0.7,0.4-0.5,0.9c0.3,0.8,0.6,1.7,1,2.5
				c1.6,3.9,3.7,7.5,6.9,10.4C299.4-7.3,300.7-6.4,302.1-5.7z M305.9-6.1c0.7-0.5,1.3-0.8,1.8-1.2c4.7-3.7,7.2-8.8,9.1-14.3
				c0.2-0.5-0.1-0.7-0.5-0.8c-2.6-0.5-5.1-0.9-7.7-1.4c-0.9-0.1-1.8-0.1-2.7-0.2C305.9-18,305.9-12.2,305.9-6.1z M302.1-57.9
				c0-6,0-12,0-17.9c-0.5-0.1-0.7,0-0.5,0.5c0.3,0.7,0,1.1-0.6,1.4c-0.6,0.4-1.2,0.8-1.7,1.2c-4.1,3.4-6.9,7.8-8.8,12.7
				c0,0.1-0.1,0.3-0.1,0.5C294.2-58.4,298.1-58.2,302.1-57.9z M305.9-74.2c0,5.5,0,10.9,0,16.2c0.4,0,0.8,0,1.2,0c3-0.3,6-0.7,9-1
				c0.5-0.1,1-0.1,0.7-0.9c-1.9-4.8-4.6-9-8.5-12.5C307.6-72.9,306.8-73.5,305.9-74.2z M327.9-65.2c-4.3-4.8-14.2-10.3-17.5-9.8
				c0,0.1,0.1,0.1,0.1,0.2c2.9,2.5,5.2,5.6,7.1,9c0.9,1.7,1.6,3.4,2.4,5.1c0.2,0.5,0.5,0.7,1,0.4c1.4-0.8,2.9-1.5,4.3-2.3
				C326.4-63.4,327.3-64.1,327.9-65.2z M311.5-5.9c6.7-1.6,12.2-5.1,16.9-10.1c-2.4-2.2-5-3.7-8-5C318.4-15.3,315.8-10.1,311.5-5.9z
				 M279.3-64.3c2.3,1.9,4.9,3,7.6,4c2.1-5.6,5.2-10.4,9.5-14.5C289.6-73.1,283.9-69.7,279.3-64.3z M295.3-6c0-0.1,0.1-0.1,0.1-0.2
				c-0.2-0.2-0.4-0.5-0.6-0.7c-2.1-2.2-3.8-4.7-5.2-7.5c-0.9-1.9-1.7-3.9-2.5-5.8c-0.2-0.5-0.5-0.7-1-0.4c-2.1,1.1-4.3,2.2-6.4,3.3
				c-0.7,0.4-0.7,0.7-0.2,1.3c3.7,4,8,7.1,13.1,9C293.6-6.6,294.5-6.3,295.3-6z"/>
		</defs>
		<linearGradient id="XMLID_13_" gradientUnits="userSpaceOnUse" x1="277.0975" y1="-67.1832" x2="330.7062" y2="-13.5745">
			<stop  offset="0" style="stop-color:#FEEED7"/>
			<stop  offset="1" style="stop-color:#EEDCC3"/>
		</linearGradient>
		<use xlink:href="#XMLID_6_"  style="overflow:visible;fill:url(#XMLID_13_);"/>
		<clipPath id="XMLID_14_">
			<use xlink:href="#XMLID_6_"  style="overflow:visible;"/>
		</clipPath>
	</g>
</g>
<g>
	
		<linearGradient id="SVGID_27_" gradientUnits="userSpaceOnUse" x1="587.9929" y1="-171.7357" x2="596.8903" y2="-180.633" gradientTransform="matrix(0.9644 -0.2645 -0.2645 -0.9644 -249.5325 -70.8189)">
		<stop  offset="0" style="stop-color:#FED634"/>
		<stop  offset="0.1999" style="stop-color:#FCD234"/>
		<stop  offset="0.4125" style="stop-color:#F5C534"/>
		<stop  offset="0.631" style="stop-color:#EAB034"/>
		<stop  offset="0.8522" style="stop-color:#DA9233"/>
		<stop  offset="1" style="stop-color:#CD7A33"/>
	</linearGradient>
	<path class="st42" d="M373.5-61.6c-0.3-0.1-0.6-0.1-0.9,0c-0.2,0-0.3,0-0.5,0c-0.4,0-0.8,0.1-1.2,0.1c-0.3,0-0.5,0.1-0.8,0.1
		c-0.1,0-0.2,0-0.4,0c-0.2,0-0.4-0.1-0.5-0.2c-0.1-0.1-0.3-0.3-0.4-0.4l0,0c-0.2-0.2-0.4-0.5-0.6-0.7c-0.4-0.4-0.7-0.9-1.2-1.3
		c-0.2-0.2-0.4-0.4-0.6-0.4h-0.1c-0.1,0.1-0.2,0.2-0.2,0.3c-0.1,0.2-0.2,0.5-0.2,0.7c-0.1,0.5-0.2,1.1-0.3,1.6
		c-0.1,0.4-0.1,0.7-0.2,1.1c-0.1,0.2-0.2,0.4-0.4,0.5c-0.2,0.1-0.3,0.2-0.5,0.2c-0.5,0.2-1.1,0.5-1.6,0.7c-0.3,0.2-0.7,0.3-1,0.5
		c-0.1,0.1-0.3,0.2-0.3,0.3c0,0,0,0,0,0.1s0,0.1,0,0.2c0.1,0.1,0.2,0.2,0.3,0.3s0.3,0.2,0.5,0.3c0.3,0.2,0.6,0.3,0.9,0.5
		c0.1,0,0.2,0.1,0.2,0.1l0,0l0,0c0.5,0.3,0.9,0.5,1.3,0.8c0,0,0,0,0.1,0.1s0.2,0.1,0.2,0.2c0,0.1,0.1,0.1,0.1,0.2
		c0,0.2,0.1,0.4,0.1,0.6s0,0.4,0.1,0.6l0,0c0,0.1,0,0.2,0,0.3c0,0,0,0,0,0.1c0,0.3,0.1,0.7,0.1,1v0.1l0,0l0,0c0,0,0,0,0,0.1
		s0,0.1,0,0.2s0,0.2,0.1,0.4c0,0.1,0,0.1,0.1,0.2v0.1l0,0v0.1c0.1,0.3,0.2,0.3,0.5,0.2c0.1-0.1,0.2-0.1,0.3-0.2
		c0.1,0,0.2-0.1,0.3-0.2l0,0l0,0c0.1,0,0.1-0.1,0.2-0.1c0.1-0.1,0.2-0.2,0.3-0.3c0.2-0.1,0.3-0.3,0.5-0.4c0.2-0.1,0.3-0.3,0.5-0.4
		l0.1-0.1c0.3-0.2,0.5-0.5,0.8-0.7c0.1-0.1,0.2-0.1,0.4-0.1c0.1,0,0.2,0,0.3,0l0,0c0,0,0,0,0.1,0s0.2,0,0.2,0c0.2,0,0.4,0.1,0.7,0.1
		c0.2,0,0.4,0.1,0.6,0.1s0.4,0.1,0.7,0.1c0.2,0,0.3,0.1,0.5,0.1h0.1c0.1,0,0.2,0,0.3,0s0.2,0,0.2,0c0.1,0,0.2,0,0.3-0.1
		s0.1-0.2,0.1-0.3c0-0.3-0.1-0.5-0.2-0.8c-0.2-0.5-0.4-0.9-0.6-1.4c-0.1-0.2-0.2-0.4-0.3-0.6c-0.1-0.2-0.2-0.4-0.3-0.6v-0.1l0,0
		c0,0,0,0,0-0.1c-0.1-0.2,0-0.3,0-0.5l0,0c0.1-0.3,0.3-0.6,0.5-0.9c0.3-0.5,0.6-1,0.9-1.5c0,0,0,0,0-0.1c0.2-0.3,0.3-0.6,0.3-0.9
		v-0.1C373.7-61.6,373.6-61.6,373.5-61.6z M368.5-58.1L368.5-58.1L368.5-58.1L368.5-58.1z M368.2-57.8L368.2-57.8L368.2-57.8z
		 M369.9-59.3L369.9-59.3L369.9-59.3z M366.6-53.1L366.6-53.1L366.6-53.1z M369.9-61.1L369.9-61.1L369.9-61.1L369.9-61.1z M364-56.8
		L364-56.8L364-56.8L364-56.8z"/>
</g>
</svg>
