<?xml version="1.0" encoding="utf-8"?>
<!-- Generator: Adobe Illustrator 24.3.0, SVG Export Plug-In . SVG Version: 6.00 Build 0)  -->
<svg version="1.1" id="Layer_1" xmlns="http://www.w3.org/2000/svg" xmlns:xlink="http://www.w3.org/1999/xlink" x="0px" y="0px"
	 viewBox="0 0 237 140" style="enable-background:new 0 0 237 140;" xml:space="preserve">
<style type="text/css">
	.st0{fill:url(#XMLID_5_);}
	.st1{clip-path:url(#SVGID_2_);fill:url(#SVGID_3_);}
	.st2{fill:url(#SVGID_4_);}
	.st3{fill:url(#SVGID_5_);}
	.st4{fill:url(#SVGID_6_);}
	.st5{fill:#6D381D;}
	.st6{fill:#F7E5CB;}
	.st7{fill:#FEEED7;}
	.st8{fill:#88401D;}
	.st9{fill:#EEDCC3;}
	.st10{fill:#62280C;}
	.st11{fill:#BCC2C6;}
	.st12{fill:url(#XMLID_6_);}
	.st13{clip-path:url(#SVGID_8_);fill:url(#SVGID_9_);}
	.st14{fill:url(#SVGID_10_);}
	.st15{fill:url(#SVGID_11_);}
	.st16{fill:url(#SVGID_12_);}
	.st17{fill:#F9F5EF;}
	.st18{fill:#CAA99A;}
	.st19{fill:#C6B1A8;}
	.st20{fill:#EFEAE8;}
	.st21{fill:#D0B8AC;}
	.st22{fill:#B79D90;}
	.st23{fill:#F3E2CC;}
	.st24{fill:#B28164;}
	.st25{fill:#F7EAD3;}
	.st26{fill:#FEF9E3;}
	.st27{fill:#813410;}
</style>
<g>
	<g>
		
			<linearGradient id="XMLID_5_" gradientUnits="userSpaceOnUse" x1="99.5483" y1="137.1337" x2="122.0366" y2="9.5964" gradientTransform="matrix(1 0 0 -1 0 140)">
			<stop  offset="0" style="stop-color:#165FD3"/>
			<stop  offset="0.6343" style="stop-color:#4496EF"/>
			<stop  offset="1" style="stop-color:#5BB1FC"/>
		</linearGradient>
		<path id="XMLID_1_" class="st0" d="M63.8,10.9c0,0-26.4,15.4-22.1,54.2c2.7,20,19.8,55.1,56,63.4c18.8,2.9,53.7,3.9,77.5-28.3
			c8-13.5,16.6-50.7-36.5-57.8c-20.9-2.9-42.5-1.7-56.5-13.7C74.7,19.8,76.4,7.4,63.8,10.9z"/>
	</g>
	<g>
		<defs>
			<path id="SVGID_1_" d="M63.8,10.9c0,0-26.4,15.4-22.1,54.2c2.7,20,19.8,55.1,56,63.4c18.8,2.9,53.7,3.9,77.5-28.3
				c8-13.5,16.6-50.7-36.5-57.8c-20.9-2.9-42.5-1.7-56.5-13.7C74.7,19.8,76.4,7.4,63.8,10.9z"/>
		</defs>
		<clipPath id="SVGID_2_">
			<use xlink:href="#SVGID_1_"  style="overflow:visible;"/>
		</clipPath>
		
			<linearGradient id="SVGID_3_" gradientUnits="userSpaceOnUse" x1="67.7875" y1="133.3811" x2="163.5681" y2="19.2343" gradientTransform="matrix(1 0 0 -1 0 140)">
			<stop  offset="0" style="stop-color:#054AC9"/>
			<stop  offset="0.2918" style="stop-color:#2C76D9"/>
			<stop  offset="0.7741" style="stop-color:#67BBF2"/>
			<stop  offset="1" style="stop-color:#7FD6FC"/>
		</linearGradient>
		<path class="st1" d="M69.4,7.6c0,0-1,37.8,28.3,43.6s65.9,43.1,26.7,80.4s46.1-17.5,46.1-17.5l13.9-22.4l0.3-12l-3.5-18.8
			L173,49.7c0,0-19.1-6.3-21.1-7.9c-1.9-1.6-20.4-7.2-20.4-7.2s-21.9-4.2-22.8-4.2s-21-13-21-13L69.4,7.6z"/>
	</g>
</g>
<g>
	
		<linearGradient id="SVGID_4_" gradientUnits="userSpaceOnUse" x1="86.5897" y1="120.1654" x2="101.69" y2="105.0648" gradientTransform="matrix(0.9644 -0.2645 -0.2645 -0.9644 27.9675 165.1811)">
		<stop  offset="0" style="stop-color:#FED634"/>
		<stop  offset="0.1999" style="stop-color:#FCD234"/>
		<stop  offset="0.4125" style="stop-color:#F5C534"/>
		<stop  offset="0.631" style="stop-color:#EAB034"/>
		<stop  offset="0.8522" style="stop-color:#DA9233"/>
		<stop  offset="1" style="stop-color:#CD7A33"/>
	</linearGradient>
	<path class="st2" d="M97.9,24.4c-0.5-0.1-1-0.1-1.4,0c-0.3,0-0.6,0-0.9,0.1c-0.7,0.1-1.4,0.2-2,0.3c-0.5,0.1-0.9,0.1-1.4,0.2
		c-0.2,0-0.4,0-0.6,0c-0.3,0-0.6-0.1-0.9-0.3c-0.3-0.2-0.5-0.5-0.7-0.7l0,0c-0.3-0.4-0.7-0.8-1-1.2c-0.6-0.7-1.3-1.5-2-2.1
		c-0.3-0.3-0.6-0.6-1.1-0.7c-0.1,0-0.1,0-0.2,0c-0.2,0.1-0.3,0.3-0.4,0.5c-0.2,0.4-0.3,0.8-0.4,1.3c-0.2,0.9-0.4,1.8-0.6,2.7
		c-0.1,0.6-0.2,1.2-0.4,1.8c-0.1,0.4-0.3,0.6-0.6,0.8c-0.3,0.1-0.5,0.3-0.8,0.4c-0.9,0.4-1.8,0.8-2.8,1.2c-0.6,0.3-1.2,0.5-1.7,0.9
		c-0.2,0.2-0.5,0.3-0.6,0.6c-0.1,0,0,0.1,0,0.1c0,0.1,0,0.2,0.1,0.3c0.1,0.2,0.3,0.3,0.4,0.5c0.2,0.2,0.5,0.4,0.8,0.6
		c0.5,0.3,1,0.6,1.5,0.9c0.1,0.1,0.3,0.2,0.4,0.2l0,0l0,0c0.8,0.4,1.6,0.8,2.3,1.3l0.1,0.1c0.1,0.1,0.3,0.2,0.3,0.4
		c0.1,0.1,0.1,0.2,0.1,0.4c0.1,0.4,0.1,0.7,0.2,1.1c0,0.3,0,0.6,0.1,1l0,0c0,0.2,0,0.4,0,0.5v0.1c0,0.6,0.1,1.1,0.2,1.7
		c0,0.1,0,0.1,0.1,0.2l0,0l0,0v0.1c0,0.1,0,0.2,0,0.3c0,0.2,0.1,0.4,0.1,0.6c0,0.1,0,0.2,0.1,0.3c0,0.1,0,0.1,0.1,0.2l0,0v0.1
		c0.2,0.4,0.4,0.5,0.9,0.3c0.2-0.1,0.4-0.2,0.6-0.3s0.3-0.2,0.5-0.3l0,0l0,0c0.1-0.1,0.2-0.1,0.3-0.2c0.2-0.1,0.3-0.3,0.5-0.4
		c0.3-0.2,0.5-0.5,0.8-0.7s0.5-0.5,0.8-0.7l0.1-0.1c0.4-0.4,0.9-0.8,1.4-1.1c0.2-0.1,0.4-0.2,0.6-0.2s0.3,0,0.4,0l0,0h0.1
		c0.1,0,0.3,0,0.4,0.1c0.4,0.1,0.7,0.2,1.1,0.2c0.3,0.1,0.7,0.2,1,0.2c0.4,0.1,0.7,0.2,1.1,0.2c0.3,0.1,0.5,0.1,0.8,0.1
		c0.1,0,0.2,0,0.2,0c0.2,0.1,0.4,0.1,0.6,0.1c0.1,0,0.3,0,0.4,0c0.2,0,0.4,0,0.5-0.1s0.2-0.3,0.2-0.5c0-0.5-0.2-0.9-0.3-1.3
		c-0.3-0.8-0.7-1.6-1.1-2.3c-0.2-0.3-0.3-0.6-0.5-1s-0.3-0.7-0.5-1.1c0-0.1,0-0.1-0.1-0.2c0,0,0,0,0-0.1v-0.1
		c-0.1-0.3,0-0.5,0.1-0.8l0,0c0.2-0.6,0.5-1.1,0.9-1.6c0.5-0.9,1-1.7,1.5-2.6c0,0,0.1-0.1,0-0.1c0.3-0.5,0.5-1,0.6-1.6
		c0-0.1,0-0.1-0.1-0.2C98.2,24.5,98.1,24.5,97.9,24.4z M89.4,30.5L89.4,30.5L89.4,30.5L89.4,30.5z M89,30.9L89,30.9L89,30.9z
		 M91.8,28.4C91.9,28.4,91.9,28.4,91.8,28.4C91.9,28.4,91.9,28.4,91.8,28.4z M86.2,38.9C86.2,39,86.2,39,86.2,38.9
		C86.2,39,86.2,39,86.2,38.9z M91.8,25.4L91.8,25.4L91.8,25.4L91.8,25.4z M81.8,32.7L81.8,32.7L81.8,32.7L81.8,32.7z"/>
</g>
<g>
	
		<linearGradient id="SVGID_5_" gradientUnits="userSpaceOnUse" x1="154.9454" y1="80.004" x2="165.2762" y2="69.6732" gradientTransform="matrix(0.9644 -0.2645 -0.2645 -0.9644 27.9675 165.1811)">
		<stop  offset="0" style="stop-color:#FED634"/>
		<stop  offset="0.1999" style="stop-color:#FCD234"/>
		<stop  offset="0.4125" style="stop-color:#F5C534"/>
		<stop  offset="0.631" style="stop-color:#EAB034"/>
		<stop  offset="0.8522" style="stop-color:#DA9233"/>
		<stop  offset="1" style="stop-color:#CD7A33"/>
	</linearGradient>
	<path class="st3" d="M168.7,45.7c-0.3-0.1-0.7-0.1-1,0c-0.2,0-0.4,0-0.6,0c-0.5,0.1-0.9,0.1-1.4,0.2c-0.3,0-0.6,0.1-0.9,0.1
		c-0.1,0-0.3,0-0.4,0c-0.2,0-0.4-0.1-0.6-0.2c-0.2-0.2-0.3-0.3-0.5-0.5l0,0c-0.2-0.3-0.5-0.5-0.7-0.8c-0.4-0.5-0.9-1-1.3-1.5
		c-0.2-0.2-0.4-0.4-0.7-0.5h-0.1c-0.1,0.1-0.2,0.2-0.3,0.4c-0.1,0.3-0.2,0.6-0.3,0.9c-0.2,0.6-0.3,1.2-0.4,1.9
		c-0.1,0.4-0.2,0.8-0.3,1.3c-0.1,0.2-0.2,0.4-0.4,0.6c-0.2,0.1-0.4,0.2-0.6,0.3c-0.6,0.3-1.3,0.5-1.9,0.8c-0.4,0.2-0.8,0.4-1.2,0.6
		c-0.2,0.1-0.3,0.2-0.4,0.4c0,0,0,0,0,0.1s0,0.1,0.1,0.2c0.1,0.1,0.2,0.2,0.3,0.3c0.2,0.1,0.4,0.3,0.5,0.4c0.3,0.2,0.7,0.4,1,0.6
		c0.1,0.1,0.2,0.1,0.3,0.1l0,0l0,0c0.5,0.3,1.1,0.6,1.6,0.9c0,0,0.1,0,0.1,0.1c0.1,0.1,0.2,0.2,0.2,0.3s0.1,0.2,0.1,0.2
		c0.1,0.2,0.1,0.5,0.1,0.7s0,0.4,0.1,0.7l0,0c0,0.1,0,0.2,0,0.4v0.1c0,0.4,0.1,0.8,0.1,1.2v0.1l0,0l0,0v0.1c0,0.1,0,0.1,0,0.2
		c0,0.1,0.1,0.3,0.1,0.4c0,0.1,0,0.2,0.1,0.2v0.1l0,0v0.1c0.1,0.3,0.3,0.4,0.6,0.2c0.1-0.1,0.3-0.2,0.4-0.2c0.1-0.1,0.2-0.1,0.3-0.2
		l0,0l0,0c0.1,0,0.1-0.1,0.2-0.1c0.1-0.1,0.2-0.2,0.3-0.3c0.2-0.2,0.4-0.3,0.6-0.5c0.2-0.2,0.3-0.3,0.5-0.5l0.1-0.1
		c0.3-0.3,0.6-0.6,0.9-0.8c0.1-0.1,0.3-0.1,0.4-0.1c0.1,0,0.2,0,0.3,0l0,0c0,0,0,0,0.1,0s0.2,0,0.3,0.1c0.3,0,0.5,0.1,0.8,0.2
		c0.2,0,0.4,0.1,0.7,0.2c0.3,0.1,0.5,0.1,0.8,0.2c0.2,0,0.4,0.1,0.5,0.1s0.1,0,0.2,0c0.1,0,0.3,0.1,0.4,0c0.1,0,0.2,0,0.3,0
		s0.2,0,0.3-0.1s0.1-0.2,0.1-0.3c0-0.3-0.1-0.6-0.2-0.9c-0.2-0.5-0.5-1.1-0.7-1.6c-0.1-0.2-0.2-0.4-0.3-0.7
		c-0.1-0.2-0.2-0.5-0.3-0.7V51l0,0c0,0,0,0,0-0.1c-0.1-0.2,0-0.4,0-0.5l0,0c0.2-0.4,0.4-0.7,0.6-1.1c0.3-0.6,0.7-1.2,1-1.8v-0.1
		c0.2-0.3,0.4-0.7,0.4-1.1v-0.1C169,45.7,168.9,45.7,168.7,45.7z M162.9,49.8L162.9,49.8L162.9,49.8L162.9,49.8z M162.6,50.1
		L162.6,50.1L162.6,50.1z M164.6,48.4C164.6,48.3,164.6,48.3,164.6,48.4C164.6,48.3,164.6,48.3,164.6,48.4z M160.7,55.6L160.7,55.6
		L160.7,55.6z M164.6,46.3L164.6,46.3L164.6,46.3L164.6,46.3z M157.7,51.3L157.7,51.3L157.7,51.3L157.7,51.3z"/>
</g>
<g>
	
		<linearGradient id="SVGID_6_" gradientUnits="userSpaceOnUse" x1="164.7275" y1="64.7434" x2="173.6249" y2="55.8461" gradientTransform="matrix(0.9644 -0.2645 -0.2645 -0.9644 27.9675 165.1811)">
		<stop  offset="0" style="stop-color:#FED634"/>
		<stop  offset="0.1999" style="stop-color:#FCD234"/>
		<stop  offset="0.4125" style="stop-color:#F5C534"/>
		<stop  offset="0.631" style="stop-color:#EAB034"/>
		<stop  offset="0.8522" style="stop-color:#DA9233"/>
		<stop  offset="1" style="stop-color:#CD7A33"/>
	</linearGradient>
	<path class="st4" d="M180.3,58.3c-0.3-0.1-0.6-0.1-0.9,0c-0.2,0-0.3,0-0.5,0c-0.4,0-0.8,0.1-1.2,0.1c-0.3,0-0.5,0.1-0.8,0.1
		c-0.1,0-0.2,0-0.4,0s-0.4-0.1-0.5-0.2c-0.1-0.1-0.3-0.3-0.4-0.4l0,0c-0.2-0.2-0.4-0.5-0.6-0.7c-0.4-0.4-0.7-0.9-1.2-1.3
		c-0.2-0.2-0.4-0.4-0.6-0.4h-0.1c-0.1,0.1-0.2,0.2-0.2,0.3c-0.1,0.2-0.2,0.5-0.2,0.7c-0.1,0.5-0.2,1.1-0.3,1.6
		c-0.1,0.4-0.1,0.7-0.2,1.1c-0.1,0.2-0.2,0.4-0.4,0.5s-0.3,0.2-0.5,0.2c-0.5,0.2-1.1,0.5-1.6,0.7c-0.3,0.2-0.7,0.3-1,0.5
		c-0.1,0.1-0.3,0.2-0.3,0.3c0,0,0,0,0,0.1s0,0.1,0,0.2c0.1,0.1,0.2,0.2,0.3,0.3s0.3,0.2,0.5,0.3c0.3,0.2,0.6,0.3,0.9,0.5
		c0.1,0,0.2,0.1,0.2,0.1l0,0l0,0c0.5,0.3,0.9,0.5,1.3,0.8c0,0,0,0,0.1,0.1s0.2,0.1,0.2,0.2c0,0.1,0.1,0.1,0.1,0.2
		c0,0.2,0.1,0.4,0.1,0.6s0,0.4,0.1,0.6l0,0c0,0.1,0,0.2,0,0.3c0,0,0,0,0,0.1c0,0.3,0.1,0.7,0.1,1v0.1l0,0l0,0c0,0,0,0,0,0.1
		s0,0.1,0,0.2s0,0.2,0.1,0.4c0,0.1,0,0.1,0.1,0.2v0.1l0,0V68c0.1,0.3,0.2,0.3,0.5,0.2c0.1-0.1,0.2-0.1,0.3-0.2
		c0.1,0,0.2-0.1,0.3-0.2l0,0l0,0c0.1,0,0.1-0.1,0.2-0.1c0.1-0.1,0.2-0.2,0.3-0.3c0.2-0.1,0.3-0.3,0.5-0.4s0.3-0.3,0.5-0.4l0.1-0.1
		c0.3-0.2,0.5-0.5,0.8-0.7c0.1-0.1,0.2-0.1,0.4-0.1c0.1,0,0.2,0,0.3,0l0,0c0,0,0,0,0.1,0s0.2,0,0.2,0c0.2,0,0.4,0.1,0.7,0.1
		c0.2,0,0.4,0.1,0.6,0.1c0.2,0,0.4,0.1,0.7,0.1c0.2,0,0.3,0.1,0.5,0.1h0.1c0.1,0,0.2,0,0.3,0s0.2,0,0.2,0c0.1,0,0.2,0,0.3-0.1
		s0.1-0.2,0.1-0.3c0-0.3-0.1-0.5-0.2-0.8c-0.2-0.5-0.4-0.9-0.6-1.4c-0.1-0.2-0.2-0.4-0.3-0.6c-0.1-0.2-0.2-0.4-0.3-0.6v-0.1l0,0
		c0,0,0,0,0-0.1c-0.1-0.2,0-0.3,0-0.5l0,0c0.1-0.3,0.3-0.6,0.5-0.9c0.3-0.5,0.6-1,0.9-1.5c0,0,0,0,0-0.1c0.2-0.3,0.3-0.6,0.3-0.9
		v-0.1C180.5,58.3,180.4,58.3,180.3,58.3z M175.3,61.8L175.3,61.8L175.3,61.8L175.3,61.8z M175,62.1L175,62.1L175,62.1z M176.7,60.6
		L176.7,60.6L176.7,60.6z M173.4,66.8L173.4,66.8L173.4,66.8z M176.7,58.8L176.7,58.8L176.7,58.8L176.7,58.8z M170.8,63.1
		L170.8,63.1L170.8,63.1L170.8,63.1z"/>
</g>
<g>
	<path class="st5" d="M-60.3,35.6c-1.7,0-3.3,0-5,0c-0.2,0-0.5-0.1-0.7-0.1c-2-0.4-4.1-0.6-6.1-1.1c-14.4-3.9-25-16.3-27.4-31.3
		c-0.2-1.6-0.4-3.1-0.6-4.7c0-1.2,0-2.4,0-3.6c0-0.2,0.1-0.4,0.1-0.7c0.4-5.8,1.8-11.4,4.6-16.5c5.5-10.1,13.8-16.8,25.1-19.4
		c1.5-0.3,3.1-0.5,4.6-0.8c1.5,0,3,0,4.4,0c0.2,0,0.5,0.1,0.7,0.1c2,0.3,4.1,0.5,6.1,0.9c15.2,3.7,25.8,16.9,28,31.4
		c0.2,1.5,0.4,3,0.6,4.6c0,1.3,0,2.7,0,4c-0.1,0.5-0.1,1-0.2,1.5c-0.8,8.8-4,16.6-9.8,23.2c-5.6,6.3-12.4,10.3-20.7,11.8
		C-57.7,35.3-59,35.5-60.3,35.6z M-29.1-5.2c-0.5-7.5-2.8-14.3-7.4-20.5c-2.5,2.7-5.4,4.3-8.8,5.6c1.2,4.9,2,9.8,2,14.8
		C-38.5-5.2-33.9-5.2-29.1-5.2z M-43.2-1.6c-0.3,2.3-0.5,4.5-0.8,6.7s-0.8,4.4-1.2,6.6c-0.2,0.7,0,1,0.6,1.3
		c2.8,1.3,5.5,2.8,7.9,4.8c0.2,0.2,0.4,0.3,0.6,0.4c4.3-6,6.5-12.6,7-19.9C-33.9-1.6-38.5-1.6-43.2-1.6z M-83.3-5.1
		c0-0.2,0.1-0.2,0.1-0.3c0.2-4.8,0.8-9.5,2-14.1c0.1-0.5-0.1-0.7-0.5-0.9c-1.3-0.5-2.6-1-3.9-1.7c-1.4-0.7-2.8-1.6-4.3-2.5
		C-94-18.8-96-12.2-96.6-5.1C-92-5.1-87.7-5.1-83.3-5.1z M-90,17.7c2.7-2,5.7-3.4,8.7-4.7c0.5-0.2,0.3-0.5,0.2-0.8
		C-82,8.4-82.6,4.6-83,0.7c-0.1-0.8-0.2-1.5-0.3-2.3c-4.5,0-8.8,0-13.3,0C-96,5.4-94,11.8-90,17.7z M-79.6-5.2c4.9,0,9.9,0,14.9,0
		c0-4.2,0-8.3,0-12.5c-0.3,0-0.5,0-0.8,0c-3.9-0.1-7.7-0.6-11.5-1.4c-0.6-0.1-0.8,0-1,0.6c-0.8,3.2-1.4,6.4-1.6,9.7
		C-79.7-7.6-79.6-6.4-79.6-5.2z M-61-5.2c4.8,0,9.6,0,14.4,0c0-0.2,0-0.3,0-0.5c-0.2-4.1-0.7-8.1-1.7-12.1c-0.3-1.2-0.5-1.2-1.6-1
		c-1.7,0.3-3.4,0.6-5.1,0.8c-1.7,0.2-3.4,0.2-5,0.3c-0.7,0-0.9,0.3-0.9,1c0.1,2.6,0,5.1,0,7.7C-61-7.7-61-6.5-61-5.2z M-79.7-1.6
		c0,0.2,0,0.2,0,0.3c0.3,4.2,1,8.3,1.9,12.3c0.1,0.5,0.4,0.5,0.9,0.5c2.3-0.5,4.7-1,7-1.3c1.7-0.3,3.4-0.4,5.2-0.5
		c0-3.7,0-7.4,0-11.2C-69.7-1.6-74.7-1.6-79.7-1.6z M-46.7-1.6c-4.8,0-9.6,0-14.3,0c0,3.8,0,7.5,0,11.3c0.6,0,1.2,0,1.7,0.1
		c3.2,0.2,6.4,0.6,9.5,1.5c0.9,0.3,1,0.3,1.2-0.7c0.5-2.6,0.9-5.2,1.4-7.8C-46.9,1.3-46.8-0.1-46.7-1.6z M-64.7,31.4
		c0-6.1,0-12.2,0-18.4c-2.3,0.3-4.5,0.5-6.7,0.9c-1.5,0.3-3,0.7-4.6,1c-0.5,0.1-0.7,0.4-0.5,0.9c0.3,0.8,0.6,1.7,1,2.5
		c1.6,3.9,3.7,7.5,6.9,10.5C-67.4,29.8-66.2,30.7-64.7,31.4z M-60.9,31c0.7-0.5,1.3-0.8,1.8-1.3c4.8-3.7,7.3-8.8,9.1-14.3
		c0.2-0.5-0.1-0.7-0.5-0.8c-2.6-0.5-5.2-0.9-7.7-1.4c-0.9-0.1-1.8-0.1-2.7-0.2C-60.9,19.1-60.9,24.9-60.9,31z M-64.7-21
		c0-6.1,0-12,0-18c-0.5-0.1-0.7,0-0.5,0.5c0.3,0.7,0,1.1-0.6,1.4c-0.6,0.4-1.2,0.8-1.7,1.2c-4.1,3.4-6.9,7.8-8.9,12.7
		c0,0.1-0.1,0.3-0.2,0.5C-72.7-21.5-68.7-21.3-64.7-21z M-60.9-37.4c0,5.6,0,11,0,16.3c0.4,0,0.8,0,1.2,0c3-0.3,6-0.7,9-1
		c0.5-0.1,1-0.1,0.7-0.9c-1.9-4.8-4.6-9.1-8.5-12.5C-59.2-36.1-60.1-36.7-60.9-37.4z M-38.8-28.4c-4.4-4.8-14.3-10.4-17.5-9.8
		c0,0.1,0.1,0.1,0.1,0.2c2.9,2.6,5.2,5.6,7.1,9c0.9,1.7,1.7,3.4,2.4,5.2c0.2,0.5,0.5,0.7,1,0.4c1.4-0.8,2.9-1.5,4.3-2.4
		C-40.3-26.5-39.4-27.3-38.8-28.4z M-55.3,31.3c6.7-1.6,12.3-5.1,16.9-10.2c-2.4-2.2-5.1-3.7-8-5.1C-48.3,21.8-51,27-55.3,31.3z
		 M-87.6-27.5c2.3,1.9,4.9,3,7.7,4c2.1-5.6,5.2-10.5,9.5-14.6C-77.3-36.3-83-32.9-87.6-27.5z M-71.5,31.1c0-0.1,0.1-0.1,0.1-0.2
		c-0.2-0.2-0.4-0.5-0.6-0.7c-2.1-2.2-3.9-4.8-5.2-7.5c-0.9-1.9-1.7-3.9-2.5-5.8c-0.2-0.5-0.5-0.7-1-0.4c-2.1,1.1-4.3,2.2-6.4,3.4
		c-0.7,0.4-0.7,0.7-0.2,1.3c3.7,4,8,7.1,13.2,9.1C-73.3,30.5-72.4,30.8-71.5,31.1z"/>
	<path class="st6" d="M-64,35.8c-1.7,0-3.3,0-5,0c-0.2,0-0.4-0.1-0.7-0.1c-2-0.4-4.1-0.5-6.1-1.1c-14.4-3.9-24.9-16.2-27.2-31.1
		c-0.2-1.6-0.4-3.1-0.6-4.7c0-1.2,0-2.4,0-3.6c0-0.2,0.1-0.4,0.1-0.7c0.4-5.8,1.8-11.3,4.6-16.4c5.5-10.1,13.7-16.7,25-19.3
		c1.5-0.3,3.1-0.5,4.6-0.8c1.5,0,2.9,0,4.4,0c0.2,0,0.5,0.1,0.7,0.1c2,0.3,4.1,0.5,6,0.9c15.1,3.7,25.6,16.8,27.9,31.3
		c0.2,1.5,0.4,3,0.6,4.6c0,1.3,0,2.7,0,4c-0.1,0.5-0.1,1-0.2,1.5c-0.8,8.7-4,16.5-9.8,23.1c-5.5,6.2-12.4,10.2-20.6,11.8
		C-61.4,35.5-62.7,35.6-64,35.8z M-33-4.8c-0.5-7.5-2.8-14.3-7.3-20.4c-2.4,2.7-5.4,4.3-8.8,5.6c1.2,4.8,2,9.7,2,14.8
		C-42.3-4.8-37.7-4.8-33-4.8z M-47-1.2c-0.3,2.3-0.5,4.5-0.8,6.7S-48.5,9.9-49,12c-0.2,0.7,0,1,0.6,1.3c2.8,1.3,5.5,2.8,7.8,4.8
		c0.2,0.2,0.4,0.3,0.6,0.4c4.2-6,6.5-12.5,6.9-19.8C-37.7-1.2-42.3-1.2-47-1.2z M-86.9-4.8c0-0.2,0.1-0.2,0.1-0.3
		c0.2-4.7,0.8-9.4,2-14c0.1-0.5-0.1-0.7-0.5-0.9c-1.3-0.5-2.6-1-3.8-1.6c-1.4-0.7-2.8-1.6-4.2-2.5c-4.1,5.8-6.1,12.3-6.7,19.4
		C-95.6-4.8-91.3-4.8-86.9-4.8z M-93.5,17.9c2.7-2,5.6-3.4,8.6-4.6c0.5-0.2,0.3-0.5,0.2-0.8c-0.9-3.8-1.5-7.6-1.9-11.4
		c-0.1-0.8-0.2-1.5-0.3-2.3c-4.5,0-8.8,0-13.2,0C-99.5,5.7-97.6,12.1-93.5,17.9z M-83.2-4.8c4.9,0,9.8,0,14.8,0c0-4.2,0-8.3,0-12.4
		c-0.3,0-0.5,0-0.8,0c-3.9-0.1-7.7-0.6-11.4-1.4c-0.6-0.1-0.8,0-1,0.6c-0.8,3.2-1.4,6.4-1.6,9.6C-83.3-7.3-83.2-6.1-83.2-4.8z
		 M-64.7-4.8c4.8,0,9.5,0,14.3,0c0-0.2,0-0.3,0-0.5c-0.2-4.1-0.7-8.1-1.7-12c-0.3-1.2-0.5-1.2-1.6-1c-1.7,0.3-3.4,0.6-5.1,0.8
		c-1.7,0.2-3.3,0.2-5,0.3c-0.7,0-0.9,0.3-0.9,1c0.1,2.5,0,5.1,0,7.6C-64.7-7.4-64.7-6.1-64.7-4.8z M-83.3-1.2c0,0.2,0,0.2,0,0.3
		c0.3,4.1,1,8.2,1.9,12.3c0.1,0.5,0.4,0.5,0.9,0.5c2.3-0.5,4.7-1,7-1.3c1.7-0.3,3.4-0.4,5.2-0.5c0-3.7,0-7.4,0-11.2
		C-73.4-1.2-78.3-1.2-83.3-1.2z M-50.4-1.2c-4.8,0-9.5,0-14.2,0c0,3.8,0,7.4,0,11.2c0.6,0,1.2,0,1.7,0.1c3.2,0.2,6.4,0.6,9.5,1.5
		c0.9,0.3,1,0.3,1.2-0.7c0.5-2.6,0.9-5.2,1.3-7.8C-50.7,1.6-50.6,0.2-50.4-1.2z M-68.4,31.6c0-6.1,0-12.1,0-18.3
		c-2.3,0.3-4.5,0.5-6.7,0.9c-1.5,0.3-3,0.7-4.5,1c-0.5,0.1-0.7,0.4-0.5,0.9c0.3,0.8,0.6,1.7,1,2.5c1.6,3.9,3.7,7.5,6.9,10.4
		C-71.1,30-69.8,30.9-68.4,31.6z M-64.6,31.2c0.7-0.5,1.3-0.8,1.8-1.2c4.7-3.7,7.2-8.8,9.1-14.3c0.2-0.5-0.1-0.7-0.5-0.8
		c-2.6-0.5-5.1-0.9-7.7-1.4c-0.9-0.1-1.8-0.1-2.7-0.2C-64.6,19.3-64.6,25.1-64.6,31.2z M-68.4-20.6c0-6,0-12,0-17.9
		c-0.5-0.1-0.7,0-0.5,0.5c0.3,0.7,0,1.1-0.6,1.4c-0.6,0.4-1.2,0.8-1.7,1.2c-4.1,3.4-6.9,7.8-8.8,12.7c0,0.1-0.1,0.3-0.1,0.5
		C-76.3-21.1-72.4-20.9-68.4-20.6z M-64.6-36.9c0,5.5,0,10.9,0,16.2c0.4,0,0.8,0,1.2,0c3-0.3,6-0.7,9-1c0.5-0.1,1-0.1,0.7-0.9
		c-1.9-4.8-4.6-9-8.5-12.5C-62.9-35.6-63.7-36.2-64.6-36.9z M-42.6-27.9c-4.3-4.8-14.2-10.3-17.5-9.8c0,0.1,0.1,0.1,0.1,0.2
		c2.9,2.5,5.2,5.6,7.1,9c0.9,1.7,1.6,3.4,2.4,5.1c0.2,0.5,0.5,0.7,1,0.4c1.4-0.8,2.9-1.5,4.3-2.3C-44.1-26.1-43.2-26.8-42.6-27.9z
		 M-59,31.4c6.7-1.6,12.2-5.1,16.9-10.1c-2.4-2.2-5-3.7-8-5C-52.1,22-54.7,27.2-59,31.4z M-91.2-27c2.3,1.9,4.9,3,7.6,4
		c2.1-5.6,5.2-10.4,9.5-14.5C-80.9-35.8-86.6-32.4-91.2-27z M-75.2,31.3c0-0.1,0.1-0.1,0.1-0.2c-0.2-0.2-0.4-0.5-0.6-0.7
		c-2.1-2.2-3.8-4.7-5.2-7.5c-0.9-1.9-1.7-3.9-2.5-5.8c-0.2-0.5-0.5-0.7-1-0.4c-2.1,1.1-4.3,2.2-6.4,3.3c-0.7,0.4-0.7,0.7-0.2,1.3
		c3.7,4,8,7.1,13.1,9C-76.9,30.7-76,31-75.2,31.3z"/>
</g>
<g>
	<path class="st7" d="M147,69.5c0,0.3,0,0.6,0,0.9c0,11.6,0,23.1,0,34.7c0,0.5,0,1,0,1.5c-0.5,3.8-3.4,6.4-7.2,6.4
		c-16.8,0-33.5,0-50.3,0c-3.1,0-5.3-1.5-6.8-4.2c-0.4-0.7-0.3-1.4-0.5-2.1c0-0.8,0-1.5,0-2.3c0-11.3,0-22.6,0-33.9
		c0-0.3,0-0.6,0-0.9c0.2-0.3,0.5-0.3,0.8-0.3c0.3,0,0.6,0,0.9,0c20.4,0,40.8,0,61.2,0C145.8,69.1,146.5,69,147,69.5z"/>
	<path class="st8" d="M96.6,47.8c12,0,24,0,36,0c0.3,0.1,0.3,0.4,0.3,0.6c0,2.2,0.1,4.5-0.1,6.7c-0.2,0.4-0.4,0.4-0.5,0
		c-0.2-0.4,0-0.9-0.1-1.3c-1.7,1.7-1.4,4.8,0.2,6.5c2,2.1,5.2,2.2,7.3,0.3c2.1-2,1.9-5.3,0.5-6.8c-0.1,0.4,0,0.9-0.1,1.3
		c-0.1,0.3-0.3,0.6-0.5,0.1c-0.2-1.4-0.1-2.8-0.1-4.2c0-0.8,0-1.5,0-2.3c0-0.4,0-0.7,0.4-1c3.8-0.2,7.3,3.4,7.2,7.2
		c-0.1,3.6,0,7.1,0,10.7c-0.4,0.4-1,0.2-1.5,0.2c-17.7,0-35.4,0-53.1,0c-3,0-6.1,0-9.1,0c-0.4,0-0.8,0.1-1.1-0.2
		c0-3.8-0.1-7.6,0-11.5c0.1-3.5,3.4-6.4,7.2-6.4c0.3,0.1,0.3,0.4,0.3,0.6c0,2.2,0.1,4.5-0.1,6.7c-0.2,0.4-0.4,0.4-0.5,0
		c-0.2-0.4,0-0.9-0.1-1.4c-1.7,1.7-1.4,4.8,0.2,6.5c2,2.1,5.2,2.2,7.3,0.3c2.1-2,1.9-5.3,0.5-6.8c-0.1,0.4,0,0.9-0.1,1.3
		c-0.1,0.3-0.3,0.6-0.5,0.1c-0.2-1.4-0.1-2.8-0.1-4.2c0-0.8,0-1.5,0-2.3C96.3,48.4,96.2,48.1,96.6,47.8z"/>
	<path class="st9" d="M82.2,106.6c0.4,1.7,1.1,3.1,2.5,4.3c1.3,1.1,2.7,1.8,4.4,1.8c17,0,34.1,0,51.1,0c2.9,0,5.8-2.4,6.5-5.1
		c0.1-0.3,0.2-0.6,0.3-1c0,1.5,0.2,3.1-0.3,4.6c-0.9,2.9-3.5,4.9-6.6,5c-1.1,0-2.1,0-3.2,0c-15.7,0-31.4,0-47.2,0
		c-3.6,0-6.4-2-7.3-5.3C82.1,109.5,82.2,108.1,82.2,106.6z"/>
	<path class="st10" d="M147,69.5c-21.6,0-43.2,0-64.8,0c0-1.2,0-2.4,0-3.6c0.3-0.1,0.6-0.1,0.9-0.1c21,0,42,0,62.9,0
		c0.3,0,0.6-0.1,0.9,0.1C147,67.1,147,68.3,147,69.5z"/>
	<path class="st11" d="M96.6,47.8c0,2.5,0,5,0,7.6c0.2,0.4,0.1,0.7,0,1c-0.6,1.5-2,2.5-3.6,2.4c-1.6,0-3.1-1.1-3.6-2.6
		c-0.1-0.3-0.2-0.6,0-0.9c0-2.5,0-5,0-7.6c0-1.1,0-2.3,0-3.4c0-2.2,1.5-3.7,3.6-3.8c2,0,3.6,1.6,3.6,3.8
		C96.6,45.5,96.6,46.7,96.6,47.8z"/>
	<path class="st11" d="M132.6,55.4c0-2.5,0-5,0-7.6c0-1.2,0-2.4,0-3.5c0-2.2,1.5-3.7,3.6-3.7c2.1,0,3.5,1.5,3.5,3.7
		c0,1.2,0,2.4,0,3.5c0,2.5,0,5.1,0,7.6c0.2,0.2,0.1,0.4,0.1,0.6c-0.3,1.5-2,2.8-3.7,2.8c-1.6,0-3.4-1.3-3.7-2.8
		C132.5,55.8,132.5,55.6,132.6,55.4z"/>
	<path class="st8" d="M89.5,80.3c0-1,0-1.9,0-2.9c0-0.5,0.1-0.7,0.7-0.7c1.9,0,3.9,0,5.8,0c0.5,0,0.6,0.2,0.6,0.7c0,1.9,0,3.9,0,5.8
		c0,0.5-0.1,0.7-0.6,0.7c-2,0-3.9,0-5.9,0c-0.4,0-0.6-0.2-0.6-0.6C89.5,82.2,89.5,81.2,89.5,80.3z"/>
	<path class="st8" d="M103.9,76.7c0.9,0,1.9,0,2.8,0c0.5,0,0.7,0.1,0.7,0.7c0,1.9,0,3.9,0,5.8c0,0.5-0.2,0.6-0.6,0.6
		c-1.9,0-3.9,0-5.8,0c-0.5,0-0.7-0.1-0.7-0.6c0-2,0-3.9,0-5.9c0-0.4,0.2-0.6,0.6-0.6C101.9,76.7,102.9,76.7,103.9,76.7z"/>
	<path class="st8" d="M118.2,80.3c0,1,0,2,0,3c0,0.4-0.1,0.6-0.6,0.6c-2,0-3.9,0-5.9,0c-0.4,0-0.6-0.1-0.6-0.6c0-2,0-4,0-6
		c0-0.4,0.1-0.6,0.5-0.6c2,0,4,0,6,0c0.4,0,0.6,0.2,0.6,0.6C118.2,78.3,118.2,79.3,118.2,80.3z"/>
	<path class="st8" d="M125.5,76.7c0.9,0,1.9,0,2.8,0c0.5,0,0.7,0.1,0.7,0.7c0,1.9,0,3.9,0,5.8c0,0.5-0.2,0.6-0.6,0.6
		c-1.9,0-3.9,0-5.8,0c-0.5,0-0.7-0.2-0.7-0.7c0-1.9,0-3.8,0-5.7c0-0.5,0.2-0.7,0.7-0.7C123.5,76.7,124.5,76.7,125.5,76.7z"/>
	<path class="st8" d="M139.8,80.3c0,1,0,2,0,3c0,0.4-0.2,0.6-0.6,0.6c-2,0-3.9,0-5.9,0c-0.5,0-0.6-0.2-0.6-0.7c0-1.9,0-3.9,0-5.8
		c0-0.5,0.2-0.6,0.6-0.6c1.9,0,3.9,0,5.8,0c0.5,0,0.7,0.2,0.7,0.7C139.8,78.4,139.8,79.3,139.8,80.3z"/>
	<path class="st8" d="M93,87.5c1,0,1.9,0,2.9,0c0.5,0,0.7,0.1,0.7,0.7c0,1.9,0,3.9,0,5.8c0,0.5-0.2,0.6-0.6,0.6c-1.9,0-3.9,0-5.8,0
		c-0.5,0-0.7-0.2-0.7-0.7c0-1.9,0-3.8,0-5.7c0-0.5,0.2-0.7,0.7-0.7C91.1,87.5,92,87.5,93,87.5z"/>
	<path class="st8" d="M103.8,94.6c-1,0-2,0-3,0c-0.4,0-0.6-0.2-0.6-0.6c0-2,0-3.9,0-5.9c0-0.5,0.2-0.6,0.7-0.6c1.9,0,3.9,0,5.8,0
		c0.5,0,0.6,0.2,0.6,0.6c0,1.9,0,3.9,0,5.8c0,0.5-0.2,0.7-0.7,0.7C105.7,94.6,104.8,94.6,103.8,94.6z"/>
	<path class="st8" d="M114.6,94.6c-1,0-2,0-3,0c-0.5,0-0.6-0.2-0.6-0.6c0-1.9,0-3.9,0-5.8c0-0.5,0.2-0.7,0.7-0.7c1.9,0,3.8,0,5.7,0
		c0.5,0,0.7,0.2,0.7,0.7c0,1.9,0,3.8,0,5.7c0,0.6-0.2,0.7-0.8,0.7C116.5,94.6,115.6,94.6,114.6,94.6z"/>
	<path class="st8" d="M121.9,91.1c0-1,0-1.9,0-2.9c0-0.5,0.1-0.7,0.7-0.7c1.9,0,3.9,0,5.8,0c0.5,0,0.6,0.2,0.6,0.7
		c0,1.9,0,3.9,0,5.8c0,0.5-0.1,0.7-0.6,0.7c-2,0-3.9,0-5.9,0c-0.4,0-0.6-0.2-0.6-0.6C121.9,93,121.9,92.1,121.9,91.1z"/>
	<path class="st8" d="M132.7,91.1c0-1,0-1.9,0-2.9c0-0.5,0.1-0.7,0.7-0.7c1.9,0,3.9,0,5.8,0c0.5,0,0.6,0.2,0.6,0.7
		c0,1.9,0,3.9,0,5.8c0,0.5-0.1,0.7-0.6,0.7c-2,0-3.9,0-5.9,0c-0.4,0-0.6-0.2-0.6-0.6C132.7,93,132.7,92.1,132.7,91.1z"/>
	<path class="st8" d="M89.5,101.8c0-0.9,0-1.9,0-2.8c0-0.5,0.1-0.7,0.7-0.7c1.9,0,3.9,0,5.8,0c0.5,0,0.6,0.2,0.6,0.6
		c0,1.9,0,3.9,0,5.8c0,0.5-0.2,0.7-0.7,0.7c-1.9,0-3.8,0-5.7,0c-0.5,0-0.7-0.2-0.7-0.7C89.5,103.8,89.5,102.8,89.5,101.8z"/>
	<path class="st8" d="M107.4,101.9c0,1,0,1.9,0,2.9c0,0.5-0.1,0.7-0.7,0.7c-1.9,0-3.9,0-5.8,0c-0.5,0-0.7-0.1-0.7-0.6
		c0-2,0-3.9,0-5.9c0-0.4,0.2-0.6,0.6-0.6c2,0,3.9,0,5.9,0c0.5,0,0.6,0.2,0.6,0.7C107.4,99.9,107.4,100.9,107.4,101.9z"/>
	<path class="st8" d="M118.2,101.9c0,1,0,1.9,0,2.9c0,0.5-0.1,0.7-0.7,0.7c-1.9,0-3.9,0-5.8,0c-0.5,0-0.6-0.2-0.6-0.6
		c0-1.9,0-3.9,0-5.8c0-0.5,0.2-0.7,0.7-0.7c1.9,0,3.8,0,5.7,0c0.5,0,0.7,0.2,0.7,0.7C118.2,100,118.2,100.9,118.2,101.9z"/>
	<path class="st8" d="M121.9,101.8c0-0.9,0-1.9,0-2.8c0-0.5,0.1-0.7,0.7-0.7c1.9,0,3.9,0,5.8,0c0.5,0,0.6,0.2,0.6,0.6
		c0,1.9,0,3.9,0,5.8c0,0.5-0.2,0.7-0.7,0.7c-1.9,0-3.8,0-5.7,0c-0.5,0-0.7-0.2-0.7-0.7C121.9,103.8,121.9,102.8,121.9,101.8z"/>
	<path class="st8" d="M132.7,101.9c0-1,0-1.9,0-2.9c0-0.5,0.1-0.7,0.7-0.7c1.9,0,3.9,0,5.8,0c0.5,0,0.6,0.2,0.6,0.7
		c0,1.9,0,3.9,0,5.8c0,0.5-0.1,0.7-0.6,0.7c-2,0-3.9,0-5.9,0c-0.4,0-0.6-0.2-0.6-0.6C132.7,103.8,132.7,102.9,132.7,101.9z"/>
	<path class="st10" d="M132.6,55.4c0.4,2,1.8,3.2,3.5,3.2c1.8,0,3.2-1.2,3.6-3.2c0.3-0.7,0-1.4,0.2-2.2c1.1,0.5,1.9,2.7,1.6,4.3
		c-0.4,2.4-2.4,4.4-4.6,4.6c-2.6,0.2-5-1.1-5.8-3.4c-0.8-2.1-0.2-4.6,1.3-5.6C132.7,53.9,132.3,54.7,132.6,55.4z"/>
	<path class="st10" d="M89.4,55.4c0.4,2,1.8,3.2,3.6,3.2c1.8,0,3.2-1.2,3.6-3.2c0.3-0.7,0-1.4,0.2-2.2c1.1,0.5,1.9,2.7,1.6,4.3
		C98,60,96,62,93.8,62.2c-2.6,0.2-5-1.1-5.8-3.4c-0.8-2.1-0.2-4.6,1.3-5.6C89.4,53.9,89.1,54.7,89.4,55.4z"/>
</g>
<g>
	<g>
		<g>
			
				<linearGradient id="XMLID_6_" gradientUnits="userSpaceOnUse" x1="395.9483" y1="50.2553" x2="418.4366" y2="-77.282" gradientTransform="matrix(1 0 0 -1 -277.5 -96)">
				<stop  offset="0" style="stop-color:#165FD3"/>
				<stop  offset="0.6343" style="stop-color:#4496EF"/>
				<stop  offset="1" style="stop-color:#5BB1FC"/>
			</linearGradient>
			<path id="XMLID_3_" class="st12" d="M82.7-138.2c0,0-26.4,15.4-22.1,54.2c2.7,20,19.8,55.1,56,63.4c18.8,2.9,53.7,3.9,77.5-28.3
				c8-13.5,16.6-50.7-36.5-57.8c-20.9-2.9-42.5-1.7-56.5-13.7C93.6-129.3,95.3-141.7,82.7-138.2z"/>
		</g>
		<g>
			<defs>
				<path id="SVGID_7_" d="M82.7-138.2c0,0-26.4,15.4-22.1,54.2c2.7,20,19.8,55.1,56,63.4c18.8,2.9,53.7,3.9,77.5-28.3
					c8-13.5,16.6-50.7-36.5-57.8c-20.9-2.9-42.5-1.7-56.5-13.7C93.6-129.3,95.3-141.7,82.7-138.2z"/>
			</defs>
			<clipPath id="SVGID_8_">
				<use xlink:href="#SVGID_7_"  style="overflow:visible;"/>
			</clipPath>
			
				<linearGradient id="SVGID_9_" gradientUnits="userSpaceOnUse" x1="364.1875" y1="46.5027" x2="459.9681" y2="-67.6441" gradientTransform="matrix(1 0 0 -1 -277.5 -96)">
				<stop  offset="0" style="stop-color:#054AC9"/>
				<stop  offset="0.2918" style="stop-color:#2C76D9"/>
				<stop  offset="0.7741" style="stop-color:#67BBF2"/>
				<stop  offset="1" style="stop-color:#7FD6FC"/>
			</linearGradient>
			<path class="st13" d="M88.3-141.5c0,0-1,37.8,28.3,43.6c29.3,5.8,65.9,43.1,26.7,80.4S189.4-35,189.4-35l13.9-22.4l0.3-12
				l-3.5-18.8l-8.2-11.2c0,0-19.1-6.3-21.1-7.9c-1.9-1.6-20.4-7.2-20.4-7.2s-21.9-4.2-22.8-4.2c-0.9,0-21-13-21-13L88.3-141.5z"/>
		</g>
	</g>
	<g>
		
			<linearGradient id="SVGID_10_" gradientUnits="userSpaceOnUse" x1="349.4513" y1="-42.0135" x2="364.5516" y2="-57.114" gradientTransform="matrix(0.9644 -0.2645 -0.2645 -0.9644 -249.5325 -70.8189)">
			<stop  offset="0" style="stop-color:#FED634"/>
			<stop  offset="0.1999" style="stop-color:#FCD234"/>
			<stop  offset="0.4125" style="stop-color:#F5C534"/>
			<stop  offset="0.631" style="stop-color:#EAB034"/>
			<stop  offset="0.8522" style="stop-color:#DA9233"/>
			<stop  offset="1" style="stop-color:#CD7A33"/>
		</linearGradient>
		<path class="st14" d="M116.8-124.7c-0.5-0.1-1-0.1-1.4,0c-0.3,0-0.6,0-0.9,0.1c-0.7,0.1-1.4,0.2-2,0.3c-0.5,0.1-0.9,0.1-1.4,0.2
			c-0.2,0-0.4,0-0.6,0c-0.3,0-0.6-0.1-0.9-0.3c-0.3-0.2-0.5-0.5-0.7-0.7l0,0c-0.3-0.4-0.7-0.8-1-1.2c-0.6-0.7-1.3-1.5-2-2.1
			c-0.3-0.3-0.6-0.6-1.1-0.7c-0.1,0-0.1,0-0.2,0c-0.2,0.1-0.3,0.3-0.4,0.5c-0.2,0.4-0.3,0.8-0.4,1.3c-0.2,0.9-0.4,1.8-0.6,2.7
			c-0.1,0.6-0.2,1.2-0.4,1.8c-0.1,0.4-0.3,0.6-0.6,0.8c-0.3,0.1-0.5,0.3-0.8,0.4c-0.9,0.4-1.8,0.8-2.8,1.2c-0.6,0.3-1.2,0.5-1.7,0.9
			c-0.2,0.2-0.5,0.3-0.6,0.6c-0.1,0,0,0.1,0,0.1c0,0.1,0,0.2,0.1,0.3c0.1,0.2,0.3,0.3,0.4,0.5c0.2,0.2,0.5,0.4,0.8,0.6
			c0.5,0.3,1,0.6,1.5,0.9c0.1,0.1,0.3,0.2,0.4,0.2l0,0l0,0c0.8,0.4,1.6,0.8,2.3,1.3l0.1,0.1c0.1,0.1,0.3,0.2,0.3,0.4
			c0.1,0.1,0.1,0.2,0.1,0.4c0.1,0.4,0.1,0.7,0.2,1.1c0,0.3,0,0.6,0.1,1l0,0c0,0.2,0,0.4,0,0.5v0.1c0,0.6,0.1,1.1,0.2,1.7
			c0,0.1,0,0.1,0.1,0.2l0,0l0,0v0.1c0,0.1,0,0.2,0,0.3c0,0.2,0.1,0.4,0.1,0.6c0,0.1,0,0.2,0.1,0.3c0,0.1,0,0.1,0.1,0.2l0,0v0.1
			c0.2,0.4,0.4,0.5,0.9,0.3c0.2-0.1,0.4-0.2,0.6-0.3s0.3-0.2,0.5-0.3l0,0l0,0c0.1-0.1,0.2-0.1,0.3-0.2c0.2-0.1,0.3-0.3,0.5-0.4
			c0.3-0.2,0.5-0.5,0.8-0.7c0.3-0.2,0.5-0.5,0.8-0.7l0.1-0.1c0.4-0.4,0.9-0.8,1.4-1.1c0.2-0.1,0.4-0.2,0.6-0.2s0.3,0,0.4,0l0,0h0.1
			c0.1,0,0.3,0,0.4,0.1c0.4,0.1,0.7,0.2,1.1,0.2c0.3,0.1,0.7,0.2,1,0.2c0.4,0.1,0.7,0.2,1.1,0.2c0.3,0.1,0.5,0.1,0.8,0.1
			c0.1,0,0.2,0,0.2,0c0.2,0.1,0.4,0.1,0.6,0.1c0.1,0,0.3,0,0.4,0c0.2,0,0.4,0,0.5-0.1s0.2-0.3,0.2-0.5c0-0.5-0.2-0.9-0.3-1.3
			c-0.3-0.8-0.7-1.6-1.1-2.3c-0.2-0.3-0.3-0.6-0.5-1s-0.3-0.7-0.5-1.1c0-0.1,0-0.1-0.1-0.2c0,0,0,0,0-0.1v-0.1
			c-0.1-0.3,0-0.5,0.1-0.8l0,0c0.2-0.6,0.5-1.1,0.9-1.6c0.5-0.9,1-1.7,1.5-2.6c0,0,0.1-0.1,0-0.1c0.3-0.5,0.5-1,0.6-1.6
			c0-0.1,0-0.1-0.1-0.2C117.1-124.6,117-124.6,116.8-124.7z M108.3-118.6L108.3-118.6L108.3-118.6L108.3-118.6z M107.9-118.2
			L107.9-118.2L107.9-118.2z M110.7-120.7C110.8-120.7,110.8-120.7,110.7-120.7C110.8-120.7,110.8-120.7,110.7-120.7z M105.1-110.2
			C105.1-110.1,105.1-110.1,105.1-110.2C105.1-110.1,105.1-110.1,105.1-110.2z M110.7-123.7L110.7-123.7L110.7-123.7L110.7-123.7z
			 M100.7-116.4L100.7-116.4L100.7-116.4L100.7-116.4z"/>
	</g>
	<g>
		
			<linearGradient id="SVGID_11_" gradientUnits="userSpaceOnUse" x1="417.807" y1="-82.1748" x2="428.1378" y2="-92.5056" gradientTransform="matrix(0.9644 -0.2645 -0.2645 -0.9644 -249.5325 -70.8189)">
			<stop  offset="0" style="stop-color:#FED634"/>
			<stop  offset="0.1999" style="stop-color:#FCD234"/>
			<stop  offset="0.4125" style="stop-color:#F5C534"/>
			<stop  offset="0.631" style="stop-color:#EAB034"/>
			<stop  offset="0.8522" style="stop-color:#DA9233"/>
			<stop  offset="1" style="stop-color:#CD7A33"/>
		</linearGradient>
		<path class="st15" d="M187.6-103.4c-0.3-0.1-0.7-0.1-1,0c-0.2,0-0.4,0-0.6,0c-0.5,0.1-0.9,0.1-1.4,0.2c-0.3,0-0.6,0.1-0.9,0.1
			c-0.1,0-0.3,0-0.4,0c-0.2,0-0.4-0.1-0.6-0.2c-0.2-0.2-0.3-0.3-0.5-0.5l0,0c-0.2-0.3-0.5-0.5-0.7-0.8c-0.4-0.5-0.9-1-1.3-1.5
			c-0.2-0.2-0.4-0.4-0.7-0.5h-0.1c-0.1,0.1-0.2,0.2-0.3,0.4c-0.1,0.3-0.2,0.6-0.3,0.9c-0.2,0.6-0.3,1.2-0.4,1.9
			c-0.1,0.4-0.2,0.8-0.3,1.3c-0.1,0.2-0.2,0.4-0.4,0.6c-0.2,0.1-0.4,0.2-0.6,0.3c-0.6,0.3-1.3,0.5-1.9,0.8c-0.4,0.2-0.8,0.4-1.2,0.6
			c-0.2,0.1-0.3,0.2-0.4,0.4c0,0,0,0,0,0.1s0,0.1,0.1,0.2c0.1,0.1,0.2,0.2,0.3,0.3c0.2,0.1,0.4,0.3,0.5,0.4c0.3,0.2,0.7,0.4,1,0.6
			c0.1,0.1,0.2,0.1,0.3,0.1l0,0l0,0c0.5,0.3,1.1,0.6,1.6,0.9c0,0,0.1,0,0.1,0.1c0.1,0.1,0.2,0.2,0.2,0.3s0.1,0.2,0.1,0.2
			c0.1,0.2,0.1,0.5,0.1,0.7c0,0.2,0,0.4,0.1,0.7l0,0c0,0.1,0,0.2,0,0.4v0.1c0,0.4,0.1,0.8,0.1,1.2v0.1l0,0l0,0v0.1
			c0,0.1,0,0.1,0,0.2s0.1,0.3,0.1,0.4s0,0.2,0.1,0.2v0.1l0,0v0.1c0.1,0.3,0.3,0.4,0.6,0.2c0.1-0.1,0.3-0.2,0.4-0.2
			c0.1-0.1,0.2-0.1,0.3-0.2l0,0l0,0c0.1,0,0.1-0.1,0.2-0.1c0.1-0.1,0.2-0.2,0.3-0.3c0.2-0.2,0.4-0.3,0.6-0.5
			c0.2-0.2,0.3-0.3,0.5-0.5l0.1-0.1c0.3-0.3,0.6-0.6,0.9-0.8c0.1-0.1,0.3-0.1,0.4-0.1c0.1,0,0.2,0,0.3,0l0,0c0,0,0,0,0.1,0
			s0.2,0,0.3,0.1c0.3,0,0.5,0.1,0.8,0.2c0.2,0,0.4,0.1,0.7,0.2s0.5,0.1,0.8,0.2c0.2,0,0.4,0.1,0.5,0.1s0.1,0,0.2,0
			c0.1,0,0.3,0.1,0.4,0c0.1,0,0.2,0,0.3,0s0.2,0,0.3-0.1s0.1-0.2,0.1-0.3c0-0.3-0.1-0.6-0.2-0.9c-0.2-0.5-0.5-1.1-0.7-1.6
			c-0.1-0.2-0.2-0.4-0.3-0.7c-0.1-0.2-0.2-0.5-0.3-0.7v-0.1l0,0c0,0,0,0,0-0.1c-0.1-0.2,0-0.4,0-0.5l0,0c0.2-0.4,0.4-0.7,0.6-1.1
			c0.3-0.6,0.7-1.2,1-1.8v-0.1c0.2-0.3,0.4-0.7,0.4-1.1v-0.1C187.9-103.4,187.8-103.4,187.6-103.4z M181.8-99.3L181.8-99.3
			L181.8-99.3L181.8-99.3z M181.5-99L181.5-99L181.5-99z M183.5-100.7C183.5-100.8,183.5-100.8,183.5-100.7
			C183.5-100.8,183.5-100.8,183.5-100.7z M179.6-93.5L179.6-93.5L179.6-93.5z M183.5-102.8L183.5-102.8L183.5-102.8L183.5-102.8z
			 M176.6-97.8L176.6-97.8L176.6-97.8L176.6-97.8z"/>
	</g>
	<g>
		
			<linearGradient id="SVGID_12_" gradientUnits="userSpaceOnUse" x1="427.5891" y1="-97.4355" x2="436.4865" y2="-106.3328" gradientTransform="matrix(0.9644 -0.2645 -0.2645 -0.9644 -249.5325 -70.8189)">
			<stop  offset="0" style="stop-color:#FED634"/>
			<stop  offset="0.1999" style="stop-color:#FCD234"/>
			<stop  offset="0.4125" style="stop-color:#F5C534"/>
			<stop  offset="0.631" style="stop-color:#EAB034"/>
			<stop  offset="0.8522" style="stop-color:#DA9233"/>
			<stop  offset="1" style="stop-color:#CD7A33"/>
		</linearGradient>
		<path class="st16" d="M199.2-90.8c-0.3-0.1-0.6-0.1-0.9,0c-0.2,0-0.3,0-0.5,0c-0.4,0-0.8,0.1-1.2,0.1c-0.3,0-0.5,0.1-0.8,0.1
			c-0.1,0-0.2,0-0.4,0s-0.4-0.1-0.5-0.2s-0.3-0.3-0.4-0.4l0,0c-0.2-0.2-0.4-0.5-0.6-0.7c-0.4-0.4-0.7-0.9-1.2-1.3
			c-0.2-0.2-0.4-0.4-0.6-0.4H192c-0.1,0.1-0.2,0.2-0.2,0.3c-0.1,0.2-0.2,0.5-0.2,0.7c-0.1,0.5-0.2,1.1-0.3,1.6
			c-0.1,0.4-0.1,0.7-0.2,1.1c-0.1,0.2-0.2,0.4-0.4,0.5s-0.3,0.2-0.5,0.2c-0.5,0.2-1.1,0.5-1.6,0.7c-0.3,0.2-0.7,0.3-1,0.5
			c-0.1,0.1-0.3,0.2-0.3,0.3c0,0,0,0,0,0.1s0,0.1,0,0.2c0.1,0.1,0.2,0.2,0.3,0.3s0.3,0.2,0.5,0.3c0.3,0.2,0.6,0.3,0.9,0.5
			c0.1,0,0.2,0.1,0.2,0.1l0,0l0,0c0.5,0.3,0.9,0.5,1.3,0.8c0,0,0,0,0.1,0.1s0.2,0.1,0.2,0.2c0,0.1,0.1,0.1,0.1,0.2
			c0,0.2,0.1,0.4,0.1,0.6s0,0.4,0.1,0.6l0,0c0,0.1,0,0.2,0,0.3c0,0,0,0,0,0.1c0,0.3,0.1,0.7,0.1,1v0.1l0,0l0,0c0,0,0,0,0,0.1
			s0,0.1,0,0.2s0,0.2,0.1,0.4c0,0.1,0,0.1,0.1,0.2v0.1l0,0v0.1c0.1,0.3,0.2,0.3,0.5,0.2c0.1-0.1,0.2-0.1,0.3-0.2
			c0.1,0,0.2-0.1,0.3-0.2l0,0l0,0c0.1,0,0.1-0.1,0.2-0.1c0.1-0.1,0.2-0.2,0.3-0.3c0.2-0.1,0.3-0.3,0.5-0.4s0.3-0.3,0.5-0.4l0.1-0.1
			c0.3-0.2,0.5-0.5,0.8-0.7c0.1-0.1,0.2-0.1,0.4-0.1c0.1,0,0.2,0,0.3,0l0,0c0,0,0,0,0.1,0s0.2,0,0.2,0c0.2,0,0.4,0.1,0.7,0.1
			c0.2,0,0.4,0.1,0.6,0.1c0.2,0,0.4,0.1,0.7,0.1c0.2,0,0.3,0.1,0.5,0.1h0.1c0.1,0,0.2,0,0.3,0s0.2,0,0.2,0c0.1,0,0.2,0,0.3-0.1
			s0.1-0.2,0.1-0.3c0-0.3-0.1-0.5-0.2-0.8c-0.2-0.5-0.4-0.9-0.6-1.4c-0.1-0.2-0.2-0.4-0.3-0.6c-0.1-0.2-0.2-0.4-0.3-0.6v-0.1l0,0
			c0,0,0,0,0-0.1c-0.1-0.2,0-0.3,0-0.5l0,0c0.1-0.3,0.3-0.6,0.5-0.9c0.3-0.5,0.6-1,0.9-1.5c0,0,0,0,0-0.1c0.2-0.3,0.3-0.6,0.3-0.9
			V-91C199.4-90.8,199.3-90.8,199.2-90.8z M194.2-87.3L194.2-87.3L194.2-87.3L194.2-87.3z M193.9-87L193.9-87L193.9-87z M195.6-88.5
			L195.6-88.5L195.6-88.5z M192.3-82.3L192.3-82.3L192.3-82.3z M195.6-90.3L195.6-90.3L195.6-90.3L195.6-90.3z M189.7-86L189.7-86
			L189.7-86L189.7-86z"/>
	</g>
	<path class="st5" d="M-48.7-103.1c-1.7,0-3.3,0-5,0c-0.2,0-0.5-0.1-0.7-0.1c-2-0.4-4.1-0.6-6.1-1.1c-14.4-3.9-25-16.3-27.4-31.3
		c-0.2-1.6-0.4-3.1-0.6-4.7c0-1.2,0-2.4,0-3.6c0-0.2,0.1-0.4,0.1-0.7c0.4-5.8,1.8-11.4,4.6-16.5c5.5-10.1,13.8-16.8,25.1-19.4
		c1.5-0.3,3.1-0.5,4.6-0.8c1.5,0,3,0,4.4,0c0.2,0,0.5,0.1,0.7,0.1c2,0.3,4.1,0.5,6.1,0.9c15.2,3.7,25.8,16.9,28,31.4
		c0.2,1.5,0.4,3,0.6,4.6c0,1.3,0,2.7,0,4c-0.1,0.5-0.1,1-0.2,1.5c-0.8,8.8-4,16.6-9.8,23.2c-5.6,6.3-12.4,10.3-20.7,11.8
		C-46.1-103.4-47.4-103.3-48.7-103.1z M-17.5-143.9c-0.5-7.5-2.8-14.3-7.4-20.5c-2.5,2.7-5.4,4.3-8.8,5.6c1.2,4.9,2,9.8,2,14.8
		C-26.9-143.9-22.3-143.9-17.5-143.9z M-31.6-140.3c-0.3,2.3-0.5,4.5-0.8,6.7s-0.8,4.4-1.2,6.6c-0.2,0.7,0,1,0.6,1.3
		c2.8,1.3,5.5,2.8,7.9,4.8c0.2,0.2,0.4,0.3,0.6,0.4c4.3-6,6.5-12.6,7-19.9C-22.3-140.3-27-140.3-31.6-140.3z M-71.7-143.9
		c0-0.2,0.1-0.2,0.1-0.3c0.2-4.8,0.8-9.5,2-14.1c0.1-0.5-0.1-0.7-0.5-0.9c-1.3-0.5-2.6-1-3.9-1.7c-1.4-0.7-2.8-1.6-4.3-2.5
		c-4.1,5.8-6.1,12.4-6.7,19.5C-80.5-143.9-76.1-143.9-71.7-143.9z M-78.4-121.1c2.7-2,5.7-3.4,8.7-4.7c0.5-0.2,0.3-0.5,0.2-0.8
		c-0.9-3.8-1.5-7.6-1.9-11.5c-0.1-0.8-0.2-1.5-0.3-2.3c-4.5,0-8.8,0-13.3,0C-84.4-133.4-82.5-126.9-78.4-121.1z M-68-143.9
		c4.9,0,9.9,0,14.9,0c0-4.2,0-8.3,0-12.5c-0.3,0-0.5,0-0.8,0c-3.9-0.1-7.7-0.6-11.5-1.4c-0.6-0.1-0.8,0-1,0.6
		c-0.8,3.2-1.4,6.4-1.6,9.7C-68.1-146.4-68-145.2-68-143.9z M-49.4-143.9c4.8,0,9.6,0,14.4,0c0-0.2,0-0.3,0-0.5
		c-0.2-4.1-0.7-8.1-1.7-12.1c-0.3-1.2-0.5-1.2-1.6-1c-1.7,0.3-3.4,0.6-5.1,0.8c-1.7,0.2-3.4,0.2-5,0.3c-0.7,0-0.9,0.3-0.9,1
		c0.1,2.6,0,5.1,0,7.7C-49.4-146.5-49.4-145.2-49.4-143.9z M-68.1-140.3c0,0.2,0,0.2,0,0.3c0.3,4.2,1,8.3,1.9,12.3
		c0.1,0.5,0.4,0.5,0.9,0.5c2.3-0.5,4.7-1,7-1.3c1.7-0.3,3.4-0.4,5.2-0.5c0-3.7,0-7.4,0-11.2C-58.1-140.3-63.1-140.3-68.1-140.3z
		 M-35.1-140.3c-4.8,0-9.6,0-14.3,0c0,3.8,0,7.5,0,11.3c0.6,0,1.2,0,1.7,0.1c3.2,0.2,6.4,0.6,9.5,1.5c0.9,0.3,1,0.3,1.2-0.7
		c0.5-2.6,0.9-5.2,1.4-7.8C-35.3-137.4-35.2-138.8-35.1-140.3z M-53.1-107.4c0-6.1,0-12.2,0-18.4c-2.3,0.3-4.5,0.5-6.7,0.9
		c-1.5,0.3-3,0.7-4.6,1c-0.5,0.1-0.7,0.4-0.5,0.9c0.3,0.8,0.6,1.7,1,2.5c1.6,3.9,3.7,7.5,6.9,10.5C-55.8-108.9-54.6-108-53.1-107.4z
		 M-49.3-107.7c0.7-0.5,1.3-0.8,1.8-1.3c4.8-3.7,7.3-8.8,9.1-14.3c0.2-0.5-0.1-0.7-0.5-0.8c-2.6-0.5-5.2-0.9-7.7-1.4
		c-0.9-0.1-1.8-0.1-2.7-0.2C-49.3-119.7-49.3-113.8-49.3-107.7z M-53.1-159.8c0-6.1,0-12,0-18c-0.5-0.1-0.7,0-0.5,0.5
		c0.3,0.7,0,1.1-0.6,1.4c-0.6,0.4-1.2,0.8-1.7,1.2c-4.1,3.4-6.9,7.8-8.9,12.7c0,0.1-0.1,0.3-0.2,0.5
		C-61.1-160.3-57.2-160.1-53.1-159.8z M-49.3-176.1c0,5.6,0,11,0,16.3c0.4,0,0.8,0,1.2,0c3-0.3,6-0.7,9-1c0.5-0.1,1-0.1,0.7-0.9
		c-1.9-4.8-4.6-9.1-8.5-12.5C-47.7-174.9-48.5-175.5-49.3-176.1z M-27.2-167.2c-4.4-4.8-14.3-10.4-17.5-9.8c0,0.1,0.1,0.1,0.1,0.2
		c2.9,2.6,5.2,5.6,7.1,9c0.9,1.7,1.7,3.4,2.4,5.2c0.2,0.5,0.5,0.7,1,0.4c1.4-0.8,2.9-1.5,4.3-2.4C-28.7-165.3-27.8-166.1-27.2-167.2
		z M-43.7-107.5c6.7-1.6,12.3-5.1,16.9-10.2c-2.4-2.2-5.1-3.7-8-5.1C-36.8-117-39.4-111.8-43.7-107.5z M-76.1-166.2
		c2.3,1.9,4.9,3,7.7,4c2.1-5.6,5.2-10.5,9.5-14.6C-65.7-175-71.4-171.6-76.1-166.2z M-60-107.6c0-0.1,0.1-0.1,0.1-0.2
		c-0.2-0.2-0.4-0.5-0.6-0.7c-2.1-2.2-3.9-4.8-5.2-7.5c-0.9-1.9-1.7-3.9-2.5-5.8c-0.2-0.5-0.5-0.7-1-0.4c-2.1,1.1-4.3,2.2-6.4,3.4
		c-0.7,0.4-0.7,0.7-0.2,1.3c3.7,4,8,7.1,13.2,9.1C-61.7-108.2-60.8-107.9-60-107.6z"/>
	<path class="st17" d="M-50.9-102.8c-1.7,0-3.3,0-5,0c-0.2,0-0.4-0.1-0.7-0.1c-2-0.4-4.1-0.5-6.1-1.1c-14.4-3.9-24.9-16.2-27.2-31.1
		c-0.2-1.6-0.4-3.1-0.6-4.7c0-1.2,0-2.4,0-3.6c0-0.2,0.1-0.4,0.1-0.7c0.4-5.8,1.8-11.3,4.6-16.4c5.5-10.1,13.7-16.7,25-19.3
		c1.5-0.3,3.1-0.5,4.6-0.8c1.5,0,2.9,0,4.4,0c0.2,0,0.5,0.1,0.7,0.1c2,0.3,4.1,0.5,6,0.9c15.1,3.7,25.6,16.8,27.9,31.3
		c0.2,1.5,0.4,3,0.6,4.6c0,1.3,0,2.7,0,4c-0.1,0.5-0.1,1-0.2,1.5c-0.8,8.7-4,16.5-9.8,23.1c-5.5,6.2-12.4,10.2-20.6,11.8
		C-48.3-103.1-49.6-102.9-50.9-102.8z M-19.9-143.4c-0.5-7.5-2.8-14.3-7.3-20.4c-2.4,2.7-5.4,4.3-8.8,5.6c1.2,4.8,2,9.7,2,14.8
		C-29.2-143.4-24.6-143.4-19.9-143.4z M-33.9-139.8c-0.3,2.3-0.5,4.5-0.8,6.7s-0.7,4.4-1.2,6.5c-0.2,0.7,0,1,0.6,1.3
		c2.8,1.3,5.5,2.8,7.8,4.8c0.2,0.2,0.4,0.3,0.6,0.4c4.2-6,6.5-12.5,6.9-19.8C-24.6-139.8-29.3-139.8-33.9-139.8z M-73.8-143.4
		c0-0.2,0.1-0.2,0.1-0.3c0.2-4.7,0.8-9.4,2-14c0.1-0.5-0.1-0.7-0.5-0.9c-1.3-0.5-2.6-1-3.8-1.6c-1.4-0.7-2.8-1.6-4.2-2.5
		c-4.1,5.8-6.1,12.3-6.7,19.4C-82.5-143.4-78.2-143.4-73.8-143.4z M-80.5-120.7c2.7-2,5.6-3.4,8.6-4.6c0.5-0.2,0.3-0.5,0.2-0.8
		c-0.9-3.8-1.5-7.6-1.9-11.4c-0.1-0.8-0.2-1.5-0.3-2.3c-4.5,0-8.8,0-13.2,0C-86.5-132.9-84.5-126.5-80.5-120.7z M-70.1-143.4
		c4.9,0,9.8,0,14.8,0c0-4.2,0-8.3,0-12.4c-0.3,0-0.5,0-0.8,0c-3.9-0.1-7.7-0.6-11.4-1.4c-0.6-0.1-0.8,0-1,0.6
		c-0.8,3.2-1.4,6.4-1.6,9.6C-70.2-145.8-70.1-144.6-70.1-143.4z M-51.6-143.4c4.8,0,9.5,0,14.3,0c0-0.2,0-0.3,0-0.5
		c-0.2-4.1-0.7-8.1-1.7-12c-0.3-1.2-0.5-1.2-1.6-1c-1.7,0.3-3.4,0.6-5.1,0.8s-3.3,0.2-5,0.3c-0.7,0-0.9,0.3-0.9,1
		c0.1,2.5,0,5.1,0,7.6C-51.6-146-51.6-144.7-51.6-143.4z M-70.2-139.8c0,0.2,0,0.2,0,0.3c0.3,4.1,1,8.2,1.9,12.3
		c0.1,0.5,0.4,0.5,0.9,0.5c2.3-0.5,4.7-1,7-1.3c1.7-0.3,3.4-0.4,5.2-0.5c0-3.7,0-7.4,0-11.2C-60.3-139.8-65.2-139.8-70.2-139.8z
		 M-37.3-139.8c-4.8,0-9.5,0-14.2,0c0,3.8,0,7.4,0,11.2c0.6,0,1.2,0,1.7,0.1c3.2,0.2,6.4,0.6,9.5,1.5c0.9,0.3,1,0.3,1.2-0.7
		c0.5-2.6,0.9-5.2,1.3-7.8C-37.6-136.9-37.5-138.3-37.3-139.8z M-55.3-107c0-6.1,0-12.1,0-18.3c-2.3,0.3-4.5,0.5-6.7,0.9
		c-1.5,0.3-3,0.7-4.5,1c-0.5,0.1-0.7,0.4-0.5,0.9c0.3,0.8,0.6,1.7,1,2.5c1.6,3.9,3.7,7.5,6.9,10.4C-58-108.5-56.8-107.7-55.3-107z
		 M-51.5-107.4c0.7-0.5,1.3-0.8,1.8-1.2c4.7-3.7,7.2-8.8,9.1-14.3c0.2-0.5-0.1-0.7-0.5-0.8c-2.6-0.5-5.1-0.9-7.7-1.4
		c-0.9-0.1-1.8-0.1-2.7-0.2C-51.5-119.3-51.5-113.4-51.5-107.4z M-55.3-159.2c0-6,0-12,0-17.9c-0.5-0.1-0.7,0-0.5,0.5
		c0.3,0.7,0,1.1-0.6,1.4c-0.6,0.4-1.2,0.8-1.7,1.2c-4.1,3.4-6.9,7.8-8.8,12.7c0,0.1-0.1,0.3-0.1,0.5
		C-63.2-159.7-59.3-159.4-55.3-159.2z M-51.5-175.4c0,5.5,0,10.9,0,16.2c0.4,0,0.8,0,1.2,0c3-0.3,6-0.7,9-1c0.5-0.1,1-0.1,0.7-0.9
		c-1.9-4.8-4.6-9-8.5-12.5C-49.9-174.2-50.7-174.8-51.5-175.4z M-29.5-166.5c-4.3-4.8-14.2-10.3-17.5-9.8c0,0.1,0.1,0.1,0.1,0.2
		c2.9,2.5,5.2,5.6,7.1,9c0.9,1.7,1.6,3.4,2.4,5.1c0.2,0.5,0.5,0.7,1,0.4c1.4-0.8,2.9-1.5,4.3-2.3C-31-164.6-30.1-165.4-29.5-166.5z
		 M-45.9-107.1c6.7-1.6,12.2-5.1,16.9-10.1c-2.4-2.2-5-3.7-8-5C-39-116.6-41.6-111.4-45.9-107.1z M-78.1-165.6c2.3,1.9,4.9,3,7.6,4
		c2.1-5.6,5.2-10.4,9.5-14.5C-67.8-174.3-73.5-171-78.1-165.6z M-62.1-107.3c0-0.1,0.1-0.1,0.1-0.2c-0.2-0.2-0.4-0.5-0.6-0.7
		c-2.1-2.2-3.8-4.7-5.2-7.5c-0.9-1.9-1.7-3.9-2.5-5.8c-0.2-0.5-0.5-0.7-1-0.4c-2.1,1.1-4.3,2.2-6.4,3.3c-0.7,0.4-0.7,0.7-0.2,1.3
		c3.7,4,8,7.1,13.1,9C-63.9-107.9-63-107.6-62.1-107.3z"/>
	<g>
		<path class="st6" d="M118.1-107.7c0.1,0,0.2,0,0.3,0c1.2,0.6,2.3,1.4,3.4,2.2c3,2.1,5.8,4.4,8.5,6.9c2,1.8,3.8,3.8,5.4,6
			c0.6,0.8,1.1,1.6,1.5,2.6c0,0.6-0.3,1.2-0.6,1.7c-2.7,5.8-5.3,11.6-7.9,17.4c-2.5,5.5-5,11-7.5,16.5c-0.6,1.3-1.2,2.6-1.7,3.9
			c-0.1,0.2-0.2,0.4-0.4,0.6c0.2-0.1,0.4-0.1,0.6,0.1c-0.1,0.5-0.5,0.3-0.8,0.4c-0.2,0-0.3,0-0.5-0.1c-0.1-0.1-0.3-0.2-0.3-0.3
			c-0.2-0.4-0.7-0.5-0.7-1c-0.1-1.1-0.7-2.1-1.1-3c-1.7-3.5-4.2-6.2-7.6-8.1c-2.8-1.6-5.9-2.5-9.2-2.8c-2-0.2-4-0.2-5.9,0
			c-0.3,0-0.5,0.1-0.7-0.2c-0.2-0.2,0-0.5,0.1-0.7c1.1-2,2.3-4,3.5-5.9c3-5.2,6.1-10.3,9.1-15.5c2.1-3.5,4.2-7.1,6.2-10.6
			c1.1-1.8,2.2-3.7,3.2-5.5c0.2-0.3,0.3-0.5,0.2-0.9c0.9-0.9,1.6-2,2.4-3C117.6-107.4,117.9-107.6,118.1-107.7z"/>
		<path class="st9" d="M80.3-59.4c0.7-0.3,0.9-1,1.2-1.6c2.5-4.2,5-8.4,7.4-12.6c2.6-4.5,5.1-9,7.7-13.6c1.8-3.2,3.5-6.4,5.3-9.6
			c0.7-1.3,1.5-2.6,2.2-4c0.2-0.3,0.4-0.4,0.8-0.4c0.5,0,1,0,1.4-0.3c0.1,0,0.2,0,0.2,0.1c0,0.4-0.2,0.7-0.4,1
			c-2.1,3.7-4.2,7.3-6.3,10.9c-3.3,5.7-6.6,11.4-9.9,17c-2.4,4.1-4.7,8.1-7.1,12.2c-0.2,0.3-0.4,0.5-0.7,0.7
			C81.5-59.5,80.9-59.5,80.3-59.4C80.3-59.2,80.3-59.3,80.3-59.4z"/>
		<path class="st18" d="M174.7-83.7c0.2,0.1,0,0.5,0.3,0.6c0,0.3,0,0.7,0,1c-0.1,0.2-0.1,0.5,0,0.7v0.1c-0.1,0.1-0.1,0.1-0.2,0
			C174.4-82.1,174.5-82.9,174.7-83.7z"/>
		<path class="st19" d="M175-79.9c-0.2,0.1-0.1,0.4-0.3,0.6c-0.2-0.3-0.2-0.6-0.1-0.9c0-0.1,0.1-0.3,0.2-0.4c0.1-0.1,0.1-0.1,0.2,0
			C175-80.3,175-80.1,175-79.9z"/>
		<path class="st20" d="M158.4-33.7L158.4-33.7c-0.3,0.1-0.6,0.1-0.9,0.1v-0.1C157.8-33.9,158.1-33.9,158.4-33.7z"/>
		<path class="st21" d="M175-81.4c-0.2-0.2-0.2-0.5,0-0.7C175-81.9,175-81.7,175-81.4z"/>
		<path class="st22" d="M175-80.6h-0.1c-0.2-0.2-0.2-0.5,0-0.7c0.1,0,0.1,0,0.2,0C175-81.1,175-80.8,175-80.6z"/>
		<path class="st7" d="M170.6-93.1c0.2,0,0.4,0,0.4,0.3c0,0.2,0,0.4,0,0.6c-0.2,1,0.2,1.6,1,2.1c0.1,0.5-0.2,0.9-0.3,1.3
			c-1.7,4.6-3.3,9.3-5,14c-1.8,5.1-3.7,10.2-5.5,15.2c-1.6,4.4-3.2,8.7-4.7,13.1c-0.4,1.1-0.8,2.3-1.2,3.4c-0.1,0.3-0.2,0.6-0.6,0.6
			c-1.3-0.5-2.5-1.3-3.7-1.9c-3.7-1.8-7.5-3.2-11.4-4.3c-3.1-0.8-6.3-1.3-9.5-1.5c-3.2-0.2-6.4-0.1-9.6,0.4c-0.3,0-0.6,0.2-0.9-0.1
			c-0.2,0-0.4,0-0.7-0.1c1.7-3.8,3.5-7.5,5.2-11.3c2-4.3,3.9-8.6,5.9-13c1.4-3.1,2.7-6.1,4.1-9.2c0.9-1.9,1.8-3.9,2.7-5.9
			c0.1-0.3,0.3-0.6,0.3-0.9c0.7,0.1,1-0.5,1.5-0.8c5.2-3.1,10.6-5.5,16.5-6.9c1.9-0.4,3.8-0.7,5.7-0.9c2.1-0.2,4.1,0.1,6.1,0.5
			c0.6,0.1,0.7,0.4,0.5,0.9c-0.1,0.1-0.1,0.3-0.1,0.5c-0.2,0.7-0.2,1.2,0.7,1.4c-0.6,0.2-0.8,0.8-1,1.3c-1.7,5.2-3.5,10.4-5.2,15.6
			c-2.3,7-4.7,14-7,20.9c-0.8,2.2-1.5,4.5-2.3,6.7c-0.3,0.9-0.4,0.9-1.3,0.7c-2.6-0.5-5.2-0.9-7.8-1.1c-2.3-0.2-4.6-0.1-6.9,0
			c-0.1,0,0,0.1,0,0c0,0,0,0,0.1,0c1.9,0.3,3.8,0.7,5.7,1.1c3.1,0.7,6.3,1.4,9.3,2.5c0.6,0.2,1.1,0.5,1.7,0.7c0.7,0.3,0.8,0.3,1-0.4
			c1-2.3,1.8-4.6,2.6-7c2.4-6.6,4.7-13.2,7-19.9c1.4-3.9,2.7-7.9,4.1-11.8c0.7-2.1,1.5-4.2,2.2-6.3
			C170.2-92.6,170.3-92.9,170.6-93.1z"/>
		<path class="st8" d="M119.6-49.9c2.8-0.4,5.7-0.7,8.5-0.6c9.2,0.2,17.7,2.8,25.7,7.4c0.3,0.2,0.6,0.3,0.9,0.5
			c0.5,0.1,0.9,0.4,1.4,0.7c0.7,0.4,0.7,0.5,1-0.3c0.7-1.8,1.3-3.6,1.9-5.4c2.7-7.5,5.3-15,8-22.6c1.7-4.8,3.4-9.5,5.1-14.3
			c0.1-0.3,0.2-0.6,0.4-0.9c0.2-0.2,0.1-0.6,0.6-0.5c0.9,0.5,1.4,1.3,1.7,2.3c0.1,0.8-0.1,1.6,0.1,2.4c0,0.2,0,0.5,0,0.7
			c0,0.1-0.1,0.2-0.1,0.3c-0.3,0.3-0.2,0.7-0.3,1.1c-2,6-3.8,11.9-5.7,17.9c-2.5,8-4.9,16-7.3,24c-0.5,1.8-2.5,2.3-3.8,2.2
			c-2.4-0.2-4.6-1.1-6.7-2c-5-2.3-10.1-4.2-15.3-6.2c-3.7-1.4-7.5-2.7-11.3-4.1c-1.5-0.6-3.1-1-4.6-1.6c-0.4-0.1-0.8-0.2-1.1-0.5
			C119-49.7,119.3-49.8,119.6-49.9z"/>
		<path class="st7" d="M82.2-59.4c1.1-1.6,2-3.4,3-5c1.3-2.2,2.6-4.5,3.9-6.7c1.7-3,3.4-5.9,5.1-8.9c2.5-4.3,5.1-8.7,7.6-13
			c1.6-2.8,3.2-5.5,4.7-8.3c0-0.3,0.4-0.4,0.3-0.7c0.2-0.4,0.6-0.6,1.1-0.6c0.7,0.1,1.5,0.1,2.2,0.2c0.5,0.1,0.9,0,1.2-0.5
			c0.5-0.7,1.2-1.3,1.8-1.9c0.2-0.2,0.5-0.4,0.8-0.1c-0.4,1.1-1.1,2-1.7,3c-2.9,4.8-5.9,9.6-8.8,14.4c-2,3.3-4,6.5-6,9.8
			c-2.9,4.7-5.8,9.5-8.8,14.2c-0.1,0.1-0.2,0.3-0.2,0.5c0.7-0.1,1.3-0.3,2-0.3c3.4-0.4,6.7-0.1,9.9,1c4,1.3,7.6,3.3,11,5.9
			c1.8,1.4,3.5,2.9,5.2,4.5c0.3,0.3,0.8,0.6,0.8,1.1c0.1,0.4,0.7,0.4,0.7,0.9c-0.5,0.1-0.8-0.1-1.2-0.3c-3.7-1.9-7.5-3.8-11.4-5.3
			c-2.8-1.1-5.5-2.1-8.5-2.6c-1.7-0.3-3.4-0.7-5.1-0.9c-2.5-0.3-5.1-0.4-7.6-0.1c-0.2,0-0.4,0.1-0.6,0
			C83.1-59.8,82.6-59.2,82.2-59.4z"/>
		<path class="st8" d="M83.6-59.4c0.6-0.4,1.2-0.2,1.9-0.3c3.7-0.2,7.3,0.2,10.9,0.9c6.2,1.3,11.9,3.9,17.5,6.7
			c1.4,0.7,2.8,1.4,4.1,2c0.1,0.1,0.2,0.2,0.3,0.3c-0.4,0.3-0.9,0.2-1.3,0.2c-1.3-0.1-2.6-0.2-4-0.3c-2.3-0.2-4.5-0.3-6.8-0.5
			c-3.6-0.3-7.2-0.5-10.8-0.8c-2.8-0.2-5.5-0.4-8.3-0.6c-1-0.1-1.9-0.1-2.9-0.2c-1.1,0-2.1-0.4-2.7-1.5c-0.3-2,0.6-3.7,1.6-5.3
			C83.3-58.9,83.5-59.1,83.6-59.4z"/>
		<path class="st9" d="M117.3-50.9c-1.2-1.3-2.5-2.4-3.8-3.6c-2.1-1.8-4.4-3.5-6.8-4.8c-2.7-1.5-5.5-2.7-8.6-3.4
			c-2.1-0.5-4.1-0.6-6.2-0.5c-1,0-2,0.2-3,0.4c-0.3,0.1-0.6,0.2-0.7,0c-0.2-0.2,0.1-0.5,0.2-0.7c1.5-2.4,3-4.9,4.6-7.3
			c2.9-4.7,5.8-9.4,8.7-14.2c2.7-4.4,5.4-8.8,8.1-13.2c1.3-2.1,2.5-4.2,3.8-6.2c0.1-0.2,0.3-0.3,0.4-0.5c0.4,0.2,0.9,0.5,1.3,0.7
			c0.3,0.2,0.3,0.4,0.1,0.7c-1.6,2.7-3.2,5.4-4.8,8c-1.5,2.5-2.9,5.1-4.4,7.6c-1.5,2.6-3.2,5.2-4.6,7.8c-1.2,2.1-2.4,4-3.6,6.1
			c-1.4,2.5-2.9,4.9-4.4,7.3c-0.2,0.4-0.4,0.7-0.6,1.1c-0.1,0.1-0.3,0.2-0.2,0.4c0.1,0.1,0.3,0.1,0.5,0.1c1.5-0.3,3-0.2,4.5-0.1
			c2.6,0.1,5.2,0.6,7.7,1.5c1.9,0.7,3.6,1.6,5.2,2.8c2,1.5,3.7,3.4,4.9,5.6c0.7,1.2,1.3,2.6,1.8,3.9C117.4-51.3,117.7-51,117.3-50.9
			z"/>
		<path class="st10" d="M81.6-53.4c0.1,0,0.3,0.1,0.4,0.2c0.5,0.7,1.3,1.1,2.1,1.1c1.8,0,3.5,0.2,5.2,0.3c2.8,0.2,5.6,0.3,8.4,0.7
			c1.4,0.2,2.9,0.2,4.3,0.3c2.3,0.1,4.6,0.3,6.9,0.5c1.4,0.1,2.7,0.2,4.1,0.3c1.7,0.1,3.5,0.4,5.2,0.3c0.1,0,0.3,0.1,0.4,0.1
			c1.5,0.5,2.9,1,4.3,1.5c3.3,1.2,6.6,2.4,10,3.7c4.6,1.7,9.1,3.4,13.6,5.3c2.5,1,4.9,2.3,7.4,3.1c1.6,0.5,3.1,1,4.8,0.7
			c1.2-0.2,2-0.9,2.4-2.2c0.8-2.9,1.8-5.8,2.6-8.7c1.4-4.7,2.9-9.4,4.3-14.2c0.8-2.6,1.6-5.2,2.5-7.8c1.3-4.1,2.6-8.3,4-12.5
			c0,0.2,0.1,0.3,0.1,0.4c0,0.3,0,0.6,0,1c-1.9,6-3.8,12-5.7,18c-2.6,8.5-5.2,17-7.8,25.5c-0.4,1.5-1.5,1.9-2.8,2.1
			c-0.3,0-0.6,0-0.9,0c-1.9-0.2-3.7-0.8-5.4-1.6c-8.8-4-17.8-7.2-26.9-10.5c-1.1-0.4-2.3-0.7-3.4-1.2c-2.5-1.1-5.2-1.2-7.9-1.4
			c-6.8-0.5-13.7-1.1-20.5-1.5c-2.9-0.2-5.7-0.5-8.6-0.5c-0.5,0-0.9-0.1-1.4-0.2C82-51.1,81.5-51.9,81.6-53.4z"/>
		<path class="st23" d="M106.8-102c0.2,0.4-0.1,0.5-0.3,0.7c-0.1-0.1-0.1-0.1-0.2-0.2C106.5-101.7,106.6-101.9,106.8-102z"/>
		<path class="st9" d="M170.6-93.1c-1.1,3.1-2.1,6.3-3.2,9.4c-0.8,2.4-1.6,4.9-2.5,7.3c-2.2,6.4-4.5,12.8-6.7,19.2
			c-1.1,3.1-2.3,6.1-3.4,9.2c-0.1,0.3-0.3,0.6-0.4,0.8c-0.4,1-0.4,1-1.3,0.5c-3.1-1.4-6.4-2.1-9.7-2.9c-2.2-0.5-4.4-0.9-6.6-1.3
			c-0.3-0.1-0.8,0.1-1.1-0.3c0.5-0.1,1-0.2,1.5-0.2c1.9-0.1,3.7-0.1,5.6,0c1.5,0.1,3.1,0.3,4.6,0.5c1.4,0.2,2.7,0.4,4.1,0.7
			c0.4,0.1,0.5-0.1,0.6-0.4c0.4-1.2,0.8-2.4,1.2-3.6c1.1-3.4,2.2-6.7,3.4-10.1c1.3-3.9,2.7-7.9,4-11.8c1.4-4.1,2.8-8.2,4.2-12.3
			c0.7-2.1,1.5-4.3,2.1-6.4c0.2-0.5,0.4-0.6,0.9-0.6c0.5,0.1,1,0.3,1.6,0.4c0.4,0.1,0.5,0.3,0.3,0.7s-0.7,0.8-0.5,1.2
			C169.5-92.9,170.2-93.1,170.6-93.1z"/>
		<path class="st9" d="M172.6-85.4c-3.3,9.2-6.5,18.5-9.8,27.7c-1.9,5.3-3.7,10.6-5.6,15.9c-0.2,0.5-0.3,0.7-0.8,0.3
			c-0.5-0.4-1.1-0.7-1.6-1.1c0.5-0.3,0.5-0.9,0.7-1.3c1.5-4.1,3-8.3,4.5-12.5s3-8.5,4.5-12.7c2.5-6.9,5-13.9,7.5-20.8
			c0-0.1,0.1-0.1,0.1-0.2c0.7,0.4,1,0.9,0.7,1.8c-0.2,0.6,0.1,1.4-0.2,2c0,0.2-0.1,0.4,0,0.6C172.7-85.6,172.7-85.5,172.6-85.4z"/>
		<path class="st24" d="M172.6-85.4c0-0.1,0-0.2,0-0.3c-0.1-0.3-0.1-0.5,0.3-0.4c0.1,0.1,0.1,0.1,0.2,0.2
			C172.6-86,172.8-85.5,172.6-85.4z"/>
		<path class="st25" d="M172.9-86.2c-0.3,0-0.3,0.3-0.3,0.4c-0.2-0.2-0.2-0.4,0-0.6C172.7-86.2,172.8-86.2,172.9-86.2z"/>
		<path class="st26" d="M136.9-49.8c-0.2,0.1-0.3,0.1-0.5,0C136.6-49.9,136.8-49.9,136.9-49.8z"/>
		<path class="st27" d="M133.6-49.8c0.2-0.1,0.4-0.1,0.6,0C134-49.7,133.8-49.7,133.6-49.8z"/>
	</g>
</g>
</svg>
